<svg id="Layer_1" data-name="Layer 1" xmlns="http://www.w3.org/2000/svg" viewBox="0 0 2691.45 1172.26"><defs><style>.cls-1{fill:#403d27;}.cls-2{fill:#f7f8f4;}.cls-3{fill:#3d3a24;}.cls-4{fill:#fcdb92;}.cls-5{fill:#69bd45;}.cls-6{fill:#cbaf87;}</style></defs><path class="cls-1" d="M2183,1126.22c12.75,1.77,20.25,10.16,23.49,21.47,3.53,12.34,5.1,25.24,7.4,37.91,1,5.77,1.77,11.59,2.72,17.93l20.54-11.18.33,7.24c-1.48.74-3,1.45-4.43,2.22-10.49,5.51-14.93,13-12.67,25.79,2.16,12.29.88,25.19,1,37.82.06,6.39-3.09,10.5-9.08,12.81-4.53,1.74-8.86,4-13.5,6.18l6,18.91c-17.71,1.45-29.07,11.58-39,24.27-12,15.36-14.55,32.88-14,51.77.62,19.66,7.45,35.7,23.41,47.33,9.27,6.75,19,12.9,28.5,19.35-14.39,24.16-13.55,52.89,3,75.31,26.1,35.24,59.76,41.09,98.46,23.8,2.74,5.67,4.72,10.64,7.41,15.17,15.24,25.67,36.14,40.45,67.78,38.73,19.39-1.06,36-7.09,49.75-19.92,8.17-7.6,15.5-16.64,16.4-28.88.12-1.5,1-3,1.72-4.94,11.73,6,23.81,7.62,36.1,8.72,17.32,1.56,31.79-3.82,44.91-15.18,22.59-19.54,34.46-43,28.27-73.22-1.49-7.23-5.43-14-8.38-21.28,14.38-5.16,26.5-14.9,37.61-26.07a44.21,44.21,0,0,0,12.83-26.47c.94-7.91,1.26-15.93,1.42-23.91.53-26.56-20.56-60.58-53.1-65.16,11.55-31.67,14.95-61.76-12.76-88.22-26.43-25.25-55.17-30.6-87.84-13.88-3-20.54-19.69-37.26-35.43-43.86-7,1.94-12.62,3.83-18.36,5-5.21,1-10.57,1.25-15.87,1.8-8.13.85-10.28,2.58-11.88,10.55-2,9.79-4.1,19.58-5.35,29.47-2.31,18.26-3.25,36.53,5.39,53.76-13.61-1.92-19.46-11.14-22-23.44-5.13-24.55,2-48.06,6.39-71.76.83-4.53,4.22-6.94,9.45-7.11a149.17,149.17,0,0,0,20.74-2.28c12.15-2.13,12.49-2.77,12.89-15.55,7.45-.51,13.79.58,16.68,9,.71,2.09,3.86,3.36,5.92,5,6.55,5.08,13.78,9.49,19.53,15.36,7.72,7.89,13.94,17.07,14.56,29.21,31.46-16.74,59.78-12.51,86.25,9.68,32,26.83,31.71,59.72,18.16,95.75,21.4,3.17,35.22,16.27,45.54,33.79a61.64,61.64,0,0,1,6.11,13.59c5.12,17.36,4.07,35,.3,52.35-1.79,8.26-6.5,15.33-12.64,21.18-10.63,10.14-21.67,19.76-35.63,25.25a19.24,19.24,0,0,0-3,2.11c8.72,11,11.47,23.82,10.88,37.43-.81,18.63-7,35.13-20.28,48.58-.23.24-.48.46-.69.72-23.29,28-52.61,30.85-85.12,20.44-2.81-.9-5.62-1.83-8.51-2.76-8.49,32.82-31.09,50.11-62.82,54.53-43.28,6-69.57-17.18-85.85-55.52-39.44,16.76-73.69,12.05-100.9-23.13-17.65-22.83-19.57-53.7-3.91-81.27-40.58-16.21-61-45.47-53.36-89.69,5.16-29.87,22.81-50.25,53.66-58.13-1.63-4.67-3.25-9.31-5.08-14.57-2.77.31-5.34.39-7.82.9-15.15,3.09-30.4,4.77-45.54.82-5.91-1.54-11.31-5-16.94-7.64,2,.16,4,.23,5.94.51,23.77,3.38,46.13-1.58,67.74-11.23,4.94-2.2,8-5.29,7.9-11.25-.16-10.25,1.3-20.64.12-30.75-2.79-24-6.82-47.91-10.14-71.87A63.88,63.88,0,0,0,2183,1126.22Z" transform="translate(-16.04 -437.06)"/><path class="cls-2" d="M1462.62,1420.66a19.88,19.88,0,0,1-1.85.75c-10.52,3.13-12.69,2.15-14-8.44-2.26-18.63-.92-37.23,1.67-55.76a64.83,64.83,0,0,0,.89-9.91c-.37-29.63-.65-59.27-1.44-88.9-.24-8.94-2-17.84-3-26.75-.91-7.59-2.3-15.15-2.68-22.76-.41-8.2-2.6-15.25-10-19.4-6.06-3.37-6.82-8.13-5.65-14.28a49,49,0,0,1,16.53-28.92,83.56,83.56,0,0,1,35.24-17.77c16.1-3.91,31.68-3.71,47.06,1.69,7.12,2.5,13.64,6.73,20.43,10.18,12,11.79,19.14,26.12,22.83,42.39,4,17.52,2.83,34.44-6.39,50.16-13.76,23.47-34.71,37.1-60.91,43-6.74,1.52-13.7,2.08-21.24,3.18-.64,3.79-1.57,7.64-1.9,11.54-1.61,19.48-2.73,39-4.68,58.45-2.09,20.84-4.81,41.61-7.51,62.38C1465.55,1414.63,1463.77,1417.6,1462.62,1420.66Zm25-167.11c6.73-1.68,13.47-3.33,20.19-5,15-3.8,26.13-13,34.45-25.47,14.4-21.63,7.51-51.57-14-63-3.06-1.75-5.93-4.28-9.22-5.11-12.64-3.21-25.31-4.25-38.36-1.31-18.14,4.08-24.25,11.6-21.21,29.76,3.28,19.62,7.32,39.11,11,58.65C1472.83,1254.1,1473.41,1254.47,1487.66,1253.55Z" transform="translate(-16.04 -437.06)"/><path class="cls-2" d="M1463.11,1014.81c-14.4,3.21-16.95-4.41-17-14.79a38.28,38.28,0,0,1,1-9.91c5.78-22,7.72-44.56,10.61-67,1.36-10.55,3.46-21,5.25-31.51,2-12,.23-23.57-6.85-33.42-20.68-28.77-36-60.69-53.92-91-4.57-7.73-10.22-14.82-14.81-22.53-3.21-5.38-5.46-11.34-8.18-17-1.69-3.53-.53-6.61,1.81-9.17,6.21-6.81,14.92-6.47,21,.59,1.07,1.24,2.32,2.33,3.48,3.49,18.55,27.79,36.33,56,51.07,86.09,2,4,4.49,7.94,10.37,10,1-3.57,1.81-6.6,2.65-9.64,2.77-25.29,5.46-50.59,8.36-75.87a61.14,61.14,0,0,1,7.31-23.45c8.32-.43,14.45,2.74,19.45,8.53,0,5.31.47,10.69-.18,15.92-2.91,23.43-6.3,46.8-9.25,70.23-4.24,33.67-8.13,67.38-12.38,101-2.37,18.81-5.33,37.55-7.71,56.36-1.42,11.23-1.88,22.58-3.42,33.78C1470.75,1002.55,1470.15,1010.22,1463.11,1014.81Z" transform="translate(-16.04 -437.06)"/><path class="cls-2" d="M561.91,1208.35q6.78-20.56,13.55-41.13c.82-2.48,1.15-5.22,2.41-7.44,3.16-5.6,8.13-6,12.59-1.33,2,2.13,4,4.35,6,6.53,13.36,18.67,26.65,37.39,40.14,56,2.22,3.06,5.28,5.49,9.52,9.81,1.11-4.81,1.73-7.51,2.35-10.21.36-21.72,3.56-43.24.67-65.23-1.86-14.12,1.29-29,2.68-43.41.47-4.9,3.67-6.63,8.48-5.74,5,.93,9.46,2.87,11.51,8.11.62,4.93,1.83,9.86,1.79,14.79-.29,30.5-.34,61-1.57,91.49-.58,14.16-3.37,28.27-5.79,42.29-.68,4-3.58,7.52-5.46,11.27-9.07,1.44-14-4.92-18.56-10.73-12.42-15.82-24.32-32-36.44-48.11-3-5.93-6.76-11.14-14.24-14.31-3.29,8-6.25,15.31-9.29,22.58q-9.24,22-18.54,44l-5.07,4.27c-6.7-2.56-9.08-8.28-11.37-13.71-4.64-11-8.44-22.4-13.25-33.33-12.84-29.21-26.07-58.25-39.05-87.4-1.88-4.24-3.25-8.7-4.76-13.1s.23-7.81,3.42-10.66c5.19-4.63,9.14-3.84,12.62,2.4,1.11,2,2.26,4,3.39,6a18.11,18.11,0,0,0,.78,2.87q18.92,42.84,37.94,85.63c1.84,4.13,3.66,8.55,9.67,10.16C559.36,1216.41,560.63,1212.38,561.91,1208.35Z" transform="translate(-16.04 -437.06)"/><path class="cls-2" d="M901.65,1175.6c4.69-4.76,2.38-10.58,2.19-16-.24-6.6-1.6-13.17-1.7-19.77-.39-25.3-.71-50.6-.58-75.9.07-14.3.67-28.63,1.8-42.88.64-8.08,3.3-10.17,9.36-10.44,5.84-.26,7.37,1.22,10.11,9.84-.05,3.32-.18,6.65-.13,10q1.29,94.26,2.57,188.54a249.24,249.24,0,0,1-.85,27.88c-2,19.94-8.6,27.32-27.57,33.08-14.38,4.37-28.85,4-43.44,1.7-1.77-.84-3.49-1.8-5.32-2.5-29.56-11.3-42.68-35-35.84-65.67a86.77,86.77,0,0,1,16.7-35.86c15.38-19.23,37.85-22.78,58.5-9.34,1.66,1.08,3.4,2,5.1,3.06Zm-20.45,13.15c-12.17-8.94-16.39-9.23-28.52-1.86q-3.4,2.07-6.65,4.36c-7.09,5.06-11.16,11.78-12.73,20.51-2,11.27,1.37,21.71,3.79,32.31,2.25,9.89,8.53,15.4,18.86,15.91,10.94,3.3,21.53-.34,32.29-1.41,9-.9,12.72-6.08,13.86-14C905.29,1222.16,898.16,1203.59,881.2,1188.75Z" transform="translate(-16.04 -437.06)"/><path class="cls-2" d="M2026.79,872.29c-18.1-5-19.64-8.18-19.89-27.45-.38-30.19-1.8-60.37-2.82-90.55-.91-26.51-2-53-2.74-79.54a163.43,163.43,0,0,1,1.1-19.88c.36-3.83.17-8.37,5.21-9.72s10.75,1.62,13.44,6.78c.31.58.68,1.14,1,1.7,2.08,19.69,4.52,39.35,6.13,59.08,1,11.52.47,23.15.86,34.73.19,5.72,2.88,7.11,7.55,4.21,3.08-1.91,6-4,9-6.06,6.1-1.05,12.16-2.62,18.3-3,11.92-.79,22.53,3.1,31.84,10.54,15.48,15.18,25.69,33.17,27.2,55,2.06,29.92-11.1,50.69-38,59.38-8.41,2.72-17.51,3.87-26.39,4.51C2048.11,872.81,2037.43,872.26,2026.79,872.29Zm19.85-17.79c17.79,5.4,34.63-.4,45-15.9,9.33-14,11.73-29.42,7.62-45.56-2.21-8.68-6.18-16.75-14.75-21.32-13.88-10.13-25.25-10.64-36.62-.48a38.3,38.3,0,0,0-9.25,13.84c-7.27,17.78-8.88,36.65-9.19,55.64,0,2,1.07,4.86,2.61,5.87C2036.65,849.61,2041.74,851.91,2046.64,854.5Z" transform="translate(-16.04 -437.06)"/><path class="cls-2" d="M1140.22,1221.51c.07-10.91.45-21.83.15-32.73-.47-16.62-1.43-33.23-2.11-49.84a18.88,18.88,0,0,1,.58-5c1.73-7.39,9.75-9.93,15.38-4.74,2.17,2,3.82,4.56,5.71,6.87l3.8,8.27c2.09-3.92,3.33-6.23,4.56-8.55,2.15-3.31,4.49-6.5,6.41-9.94,13.08-23.43,43-26.36,63.17-14,2.24,1.38,4.42,2.87,6.62,4.31a71.56,71.56,0,0,1,15.13,27.69c4.53,15.92,8.94,31.89,8.78,48.73a139.86,139.86,0,0,0,1.52,18.8,219,219,0,0,1-.33,53.61c-.53,4.39-2.77,8.58-4.23,12.86l-13.69,2.36c-3.61-9.59-4-18.37-3-27.3.19-1.65,1-3.25,1-4.87.16-29.25,1.41-58.6-5.52-87.36-2.49-10.32-5.94-20.47-15.21-27.17-4.64-2.35-9.17-5-14-6.9-1.88-.74-5.14-.61-6.56.57-7.32,6.13-16.19,10.91-20.37,20.07-3.7,8.12-7.94,16.27-9.85,24.86-6.82,30.72-14.64,61.34-14.46,93.2,0,4.31-2.25,8.63-3.46,12.94-13.1,1.65-16.77-1.08-18.16-14.83-.63-6.18.34-12.5.05-18.74-.35-7.5-1.28-15-2-22.41C1140.2,1222.4,1140.22,1221.51,1140.22,1221.51Z" transform="translate(-16.04 -437.06)"/><path class="cls-2" d="M561.49,869.9a31.69,31.69,0,0,1-5.6,1.92c-5.12.76-8.44-1.17-9.68-6.22a62,62,0,0,1-2.15-14.71c0-12.28.92-24.55.92-36.82,0-13.9-.15-27.82-1.09-41.67-.42-6.19-2.74-12.32-8.19-16.44-12.56-12-24.59-7.81-34,1.37-6.81,6.64-10.78,15.19-13.37,24.15-6.11,21-11.53,42.2-10.37,64.52.45,8.5-.88,17.09-1.4,25.64-1.88.65-3.75,1.32-5.63,1.94-4.27,1.4-7.46-.23-8.63-4.26A48.88,48.88,0,0,1,460,855.71c.08-15.91,1-31.82,1-47.73-.14-28.18-.78-56.36-1.22-84.54l-.15-9.39c-.1-12.22,0-24.45-.33-36.67-.28-11.22-1-22.43-1.46-33.64-.25-5.94,2-10.31,8.05-12l9.56,4.87q1,2,2,3.9c1.06,10.58,2.37,21.15,3.14,31.76,1.29,17.92,2.24,35.87,3.33,53.8.25,4.07.93,7.87,5.59,9.67l10.58-7.75c5.14-1.27,10.22-3.06,15.44-3.72,11.59-1.47,21.52,2.8,30.35,10,14.06,19.61,20.09,41.88,20.18,65.61.08,20.93-1.16,41.86-2,62.78C563.88,865.1,562.36,867.48,561.49,869.9Z" transform="translate(-16.04 -437.06)"/><path class="cls-2" d="M2183,1126.22a63.88,63.88,0,0,1,11.43,29.34c3.32,24,7.35,47.84,10.14,71.87,1.18,10.11-.28,20.5-.12,30.75.09,6-3,9-7.9,11.25-21.61,9.65-44,14.61-67.74,11.23-2-.28-4-.35-5.94-.51-4.28-1.78-8.73-3.24-12.82-5.38-14-7.38-19.45-19.4-16.06-34.88a20.05,20.05,0,0,0,.67-2.91c1.28-17.18,13-24.41,27.57-28.72a61.7,61.7,0,0,1,36.37.48c5.6,1.72,11.34,3,17.62,4.61.84-3.3,1.74-5.43,1.88-7.61,1.09-17,1-33.93-4.15-50.36-1.13-3.61-3.84-6.72-5.82-10.05-4.43-8.44-11.46-10.17-19.84-7.15-8.91,3.2-17.63,6.9-26.44,10.38-5.5.92-11.34,2.92-15-3.54-3.46-6.1,1.29-9.72,4.41-13.88,6.31-8.42,14.26-13.35,25.15-13.61,5.85-.14,11.68-2.33,17.52-2.28A45,45,0,0,1,2183,1126.22Zm-51.3,131.8,1.89,1.75c15.29,5.59,31,1.2,42.52-12.69l-8.28-11.26c-16.46-13.53-34-7.62-46.34,1.3-2.25,1.63-3.87,4.67-4.8,7.39-.62,1.79-.23,5,1,6.15,4,3.61,7.76,8.25,14.15,7.66Z" transform="translate(-16.04 -437.06)"/><path class="cls-2" d="M1857.5,1158.19c-1-.06-2-.16-3-.18-11.3-.2-13.56-2.22-14.43-13-.73-8.86.46-11,9.73-12.69,9.1-1.64,18.41-2.11,27.6-3.23,8.39-1,8.69-1.25,9.29-9.77.6-8.28.66-16.6,1.26-24.88.44-6.1,1.58-12.2,8.54-14.34,7.19-2.2,13.31.71,18.31,8.15v38.92c5.2,3.11,10.76,3,16.38,2.5a114.29,114.29,0,0,1,11.52-.61c5.52.24,10,2.47,11.94,8.16-.2,12.7-.59,13.37-12.75,15.55-5.86,1.06-11.84,1.4-17.76,2.08-10.08,1.14-12.17,3.15-13.9,13.12-1.08,6.19-2.27,12.37-3.4,18.55-3,16.39-4.78,32.83-1,49.33,2.69,11.68,9.16,19.69,21.72,21.44,9.42.61,18.84,1.4,28.28,1.76,5.22.2,7.66,2.71,8.13,7.64-1.44,1.76-2.65,3.79-4.35,5.25-11.82,10.19-25.5,11.72-40.16,8.3a8.74,8.74,0,0,0-1.73-1c-27.14-8-37.38-27.9-37.76-54.23-.22-14.9.83-29.82,1.27-44.73.16-5.29.2-10.59.29-15.88-.41-6.14-1.88-8.45-7.59-8.48C1868.48,1155.93,1863,1157.39,1857.5,1158.19Z" transform="translate(-16.04 -437.06)"/><path class="cls-2" d="M395.67,874.34c-11.27-3.88-21.49-9.47-29.59-18.43q-2.19-3.74-4.36-7.47c-1.94-8.64-4.81-17.2-5.57-25.94-.94-10.81-.29-21.79,0-32.68.25-10.21.89-20.41,1.36-30.61.06-6.93-1.19-9-7.66-9.13-5.42-.08-10.86,1.38-16.29,2.16-1.64,0-3.28.11-4.92.07-9.05-.26-11.71-2.62-12.49-11.59-.31-3.59-.06-7.23-.07-10.84l3.13-3.5,42.37-4.93c.32-4.24.58-7.47.81-10.7.55-7.9.84-15.83,1.71-23.7,1.23-11.25,8.13-16.09,18.67-12.55,3.34,1.12,5.78,4.92,8.63,7.49v39.94c5.46,1.93,10.95,3.49,16.83.82,3.88,0,7.82-.5,11.63,0,4.93.66,9.54,2.4,11,8.11,0,12.89-.46,13.7-12.36,16-6.18,1.18-12.5,1.63-18.76,2.37-9.09,1.06-11.3,2.93-13,11.74-1.6,8.13-3.15,16.28-4.43,24.46-2.32,14.83-3.73,29.69-.21,44.55,2.76,11.7,9.15,19.73,21.76,21.43,9.14.63,18.27,1.56,27.42,1.79,5.64.14,8.56,2.35,8.89,8-7,9.17-16.33,14.17-27.74,14.63C406.8,876,401.22,874.85,395.67,874.34Z" transform="translate(-16.04 -437.06)"/><path class="cls-2" d="M1008.25,752.33c-15.58-.41-19.13-4.72-16.63-20.28a20.7,20.7,0,0,1,1.11-3.12c8.88-3.57,18.22-5,27.94-5.13,17-.31,17-.51,17.42-17.36.17-6.63.38-13.28,1.08-19.86.58-5.41,2.3-10.56,8.36-12.38,6.38-1.92,12.43.53,17.15,6.66.4.52.85,1,1.28,1.5v40.57l16,.81c3.88-.17,7.77-.54,11.64-.46,5.64.13,10.06,2.44,12.25,8-.47,12.67-.91,13.43-13,15.66-6.52,1.2-13.18,1.65-19.78,2.43-7.7.91-9.84,2.36-11.2,10-2.64,14.7-5.73,29.43-6.77,44.28-.7,10.07.83,20.58,3.1,30.49,2.21,9.66,8.89,16.09,19.68,16.62l.39-.49-.47-.41-.75.55,1.14,1c7.25.45,14.51.83,21.76,1.38,4.27.32,8.53.89,13,1.38l1.63,7.07c-6.8,9.32-16.21,14.06-27.51,14.59-5.5.25-11.06-.9-16.6-1.41-29.78-8.56-40-30.5-39.85-59.07.08-15.24,1.17-30.48,1.73-45.72.13-3.63-.08-7.26-.13-10.89-.3-6.29-1.73-8.58-7.45-8.59C1019.27,750.08,1013.76,751.52,1008.25,752.33Z" transform="translate(-16.04 -437.06)"/><path class="cls-2" d="M2486.68,874.34a5.28,5.28,0,0,0-.88-.46c-25.31-7.45-37.56-25.12-38.27-50.76-.46-16.88.58-33.8.92-50.7.1-4.62.09-9.24.12-13.86-.33-6.38-1.6-8.45-7.52-8.47-5.53,0-11.06,1.43-16.59,2.24-15.39-.42-18.36-3.85-16.73-19.36a46.6,46.6,0,0,1,1.35-5.18c8.06-1.24,16.45-2.6,24.87-3.8,2.28-.32,4.63-.12,7-.26,12.14-.76,12.77-1.43,13.24-13.31.3-7.28.46-14.57,1.06-21.83.5-6,1.6-12.15,8.52-14.36s12.84.61,18.42,8.11v40.57l16,.82c3.88-.16,7.77-.56,11.64-.44,5.58.17,10.17,2.22,12.28,7.93-.42,12.89-.65,13.41-12.91,15.69a127.32,127.32,0,0,1-20.75,2.38c-6.42.13-9.27,3.88-10.09,8.94-2.89,18-8.27,35.73-7.12,54.17a102,102,0,0,0,4.32,24.3c2.66,8.37,8.86,13.75,18.41,13.79l-.13-.65-.63.67,1.37.84c6.59.44,13.18.81,19.75,1.33,4.93.38,9.83,1,14.89,1.45.62,2.66,1.15,4.89,1.67,7.11a35.11,35.11,0,0,1-27.59,14.51C2497.76,876,2492.21,874.86,2486.68,874.34Z" transform="translate(-16.04 -437.06)"/><path class="cls-2" d="M2393.37,1137.19c-.4,12.78-.74,13.42-12.89,15.55a149.17,149.17,0,0,1-20.74,2.28c-5.23.17-8.62,2.58-9.45,7.11-4.38,23.7-11.52,47.21-6.39,71.76,2.57,12.3,8.42,21.52,22,23.44,8.87.32,17.74.67,26.61,1,5.48.18,9.82,1.66,10,8.23-1.64,2-3,4.27-5,5.92-10.33,8.85-22.67,10.4-35.64,9.4l.24.13-5.25-1.67c-2.13-.87-4.25-1.76-6.4-2.59-15.57-6.09-25.81-17.12-29.79-33.36a98.85,98.85,0,0,1-2.6-20.58c-.38-14.2-.09-28.42-.07-42.63q.8-5.22,1.61-10.45c.07-2.08.15-4.15.23-6.23,1.82-5.9-2-8.29-6.52-8.34-5.8-.06-11.6,1.34-17.4,2.11-1.33-.06-2.65-.13-4-.17-9.89-.33-11.54-1.73-13.06-11.15-1.57-9.77,0-12.78,9.59-14.6,8.42-1.6,17.07-2,25.62-3,10.44-1.13,11-1.64,11.51-12.12.29-6.3.23-12.62.41-18.93a30.12,30.12,0,0,1,.56-5.94c1.19-5.19,2.15-10.66,8.49-12.31,6.64-1.73,12.57.62,17.17,6.68.39.52.85,1,1.28,1.49v40.5l16.09.94c3.87-.21,7.74-.68,11.59-.57C2386.88,1129.24,2391.27,1131.6,2393.37,1137.19Z" transform="translate(-16.04 -437.06)"/><path class="cls-2" d="M1635.79,1282.22c-1.84-.76-3.64-1.62-5.52-2.25-14.45-4.87-24.27-14.63-30.36-28.43-5.2-11.81-6.94-24.26-7-37a153.15,153.15,0,0,1,13.7-62.91c6.27-14.16,15.56-24.75,30.1-31.71,9.73-4.66,18.91-6.43,28.7-3.69,5.87,1.65,11.11,5.59,16.63,8.49A104.55,104.55,0,0,1,1707,1174c5.85,27.52,3.8,54.2-14.12,76.93C1678.63,1269,1661.19,1283.43,1635.79,1282.22Zm2.46-22.43c11,2.48,19.51-2.91,26.92-9.55,22.77-20.39,30.54-56.28,18.79-84.48-3.09-7.42-6.83-14.46-13.87-19.06-14.43-10.91-19.57-8.21-28.6-2.15a40.84,40.84,0,0,0-15,17c-6.61,14.33-11.27,29.36-12.21,45.07a122.35,122.35,0,0,0,2,31.69C1618.64,1249.58,1625.51,1258.18,1638.25,1259.79Z" transform="translate(-16.04 -437.06)"/><path class="cls-2" d="M1771.68,874.47c-6.82-3.34-13.93-6.22-20.39-10.15-6.28-3.83-11.34-9.16-12.86-16.83,3.48-7,9.24-7.6,15.3-5.25a78.35,78.35,0,0,1,15.86,8.19c22.37,15.23,51.57-4.56,54.74-29.3.9-7-4.42-9.7-8.86-13-3-1.84-5.87-4.22-9.15-5.44-9.18-3.4-18.74-3.06-28.33-2.08-10.16,1-20.35,1.83-30.52,2.73l-4.73-1.38c-14.92-4.32-24.64-17.22-24.1-32.75.67-19.59,14.16-40.75,38.13-43,7.23-.66,14.3-2.81,21.51-3.79,14.46-2,27.69,1.22,39.32,10.29,8.13,7.14,8.54,15.63,4.35,24.92-4.31,1.17-8,.58-11.15-3-1.83-2.09-4.53-3.42-6.83-5.09-5.56-6.1-12.56-8.72-20.57-7.26-9.43,1.71-19,3.49-28,6.42-11.68,3.78-15.91,12-14.12,25.9l15,2.57c5.92-.25,11.87-.21,17.75-.81,13.69-1.39,27.24-.86,40.18,3.95,7,2.62,13.57,6.61,20.33,10a72.72,72.72,0,0,1,4.26,6.7c12.45,25.12,7.73,44.39-9.41,59.71C1813,871.28,1794.19,879.21,1771.68,874.47Z" transform="translate(-16.04 -437.06)"/><path class="cls-2" d="M876.16,803.38a10.41,10.41,0,0,0-1.78-.86c-20.34-5.57-30.12-20.84-26-41.23,3-14.93,14.47-32.76,37-35,7.21-.73,14.27-2.83,21.46-3.78,14.41-1.92,27.65,1.12,39.23,10.23,8.51,7,8.59,15.64,4.61,25-4.33,1.05-8.08.73-11.29-3.08-1.8-2.14-4.57-3.46-6.9-5.15-6.16-6.72-13.94-8.66-22.58-7a231.37,231.37,0,0,0-23.19,5.38c-13.54,4-17.53,10.18-17.15,24.91,6.83,3.91,7.11,4,15.69,4.47,6.24-.3,12.51-.3,18.71-1a92.38,92.38,0,0,1,43.83,5.73c5.46,2.11,10.4,5.56,15.58,8.41a78.4,78.4,0,0,1,4.17,6.74c10.68,21.71,9.61,42.77-9.53,59.61-16.38,14.4-35.06,22.51-57.53,17.81-6.29-3-13-5.25-18.73-9.06a49,49,0,0,1-12.48-12.51c-3.83-5.48-1.25-10.62,5.4-11.37a22.74,22.74,0,0,1,10.53,1.8,82.39,82.39,0,0,1,13.12,7c13.24,8.36,25.85,6.49,38.07-2a36.76,36.76,0,0,0,13.9-17.77c4.81-13.35,4.88-14.42-6.15-22.4-3-1.85-5.84-4.28-9.11-5.48-9.19-3.36-18.76-3.13-28.37-2.12C896.54,801.66,886.34,802.46,876.16,803.38Z" transform="translate(-16.04 -437.06)"/><path class="cls-2" d="M2367.07,757.68c-4.32,1-8.14.78-11.38-3-1.82-2.15-4.57-3.49-6.91-5.2-5.61-6-12.57-8.66-20.59-7.18-9.41,1.74-18.92,3.46-28,6.44-11.81,3.9-15.68,11.76-13.68,26l14.93,2.48c5.58-.23,11.2-.15,16.74-.75,14-1.51,27.88-.92,41.16,4,7,2.58,13.57,6.58,20.33,9.93l2.23,1.93-.11-.07c1.06,2.36,2.08,4.75,3.21,7.09,10.18,21.09,6.87,41.6-10.18,57-16.46,14.83-35.39,23-58.19,18.3-6.82-3.34-14-6.11-20.32-10.22-4.29-2.79-7.94-7.06-10.8-11.38-3.65-5.52-1.08-10.7,5.5-11.37a23,23,0,0,1,10.51,1.89,82.34,82.34,0,0,1,13.12,7c12.83,8.15,25.19,6.49,37.23-1.53a39.73,39.73,0,0,0,14.79-18.3c5.07-12.19,4.61-13.89-6.17-22.43-3-1.85-5.88-4.26-9.17-5.47-9.22-3.41-18.83-3.11-28.48-2.13-10.21,1-20.44,1.84-30.66,2.75a28.26,28.26,0,0,0-2.77-1.07c-19-5.32-28.93-21.07-25-40.42,3.11-15.24,14.19-33.5,37.88-35.68,6.92-.64,13.68-2.74,20.58-3.67,14.47-2,27.79,1,39.45,10.2C2370.8,739.72,2371.31,748.25,2367.07,757.68Z" transform="translate(-16.04 -437.06)"/><path class="cls-2" d="M1174.72,876.25c-3.08-1.22-6.18-2.38-9.22-3.69-15.86-6.82-24.87-19.49-29.49-35.51-6.25-21.68-4.42-43.41.8-65A135.06,135.06,0,0,1,1152,734.36c4.39-7.35,10-13.14,17.89-16.69a32.39,32.39,0,0,0,4.45-2.22c16.48-10.69,32-7.84,46.88,3.32,14,15.41,22.45,33.58,25.94,53.94,4.63,26.93,1.75,52.81-16.49,74.28C1216.27,863.92,1199.27,877.83,1174.72,876.25Zm34.67-135.43c-5-2.37-9.87-5.13-15.07-6.91-2.14-.73-5.29.07-7.48,1.17-10,5.06-17.94,12.21-22.29,23-6.88,17.06-11.34,34.65-11.86,53.08-.27,9.67.75,19.26,5.25,28.07,4.13,8.08,10.06,13.91,19.68,14.71,1.91.4,4.12,1.63,5.68,1.07,7.76-2.8,15.89-4.94,21.93-11.24,19-19.85,26.82-43.31,21.9-70.44C1224.84,760.74,1220.15,749,1209.39,740.82Z" transform="translate(-16.04 -437.06)"/><path class="cls-2" d="M254.87,1281.84c-8.23,1.25-13.59-1.78-17.57-9.46-15.13-29.19-33.28-56.75-46.59-87-4.25-9.65-11.13-18.11-16.1-27.48a284.36,284.36,0,0,1-12.84-28c-1.94-4.87,3.26-13.89,8.18-14.79,2.12-.39,5.17.81,6.85,2.34,2.38,2.18,3.87,5.32,5.75,8q27.24,49.32,54.52,98.64c2.49,4.51,5,9.17,11,11.9.82-4.21,1.51-7.73,2.2-11.25q11.19-44.71,22.41-89.42a56.15,56.15,0,0,1,3.17-10.4c3.85-8.17,9.43-9.52,16.7-4.22,2.09,1.53,3.69,3.73,5.52,5.61q-1.25,7.72-2.48,15.46c-1.63,10.11-2.58,20.4-5,30.31-7.77,31.48-16.1,62.82-24.21,94.21C264.59,1273.12,261.17,1278.54,254.87,1281.84Z" transform="translate(-16.04 -437.06)"/><path class="cls-2" d="M620.13,875.49c-15.53-2.9-24-13.24-28.52-27.46-2.88-9.16-5-18.56-7.49-27.81-.14-2.56-.29-5.16-.43-7.75-.36-17.69,1.1-35.06,8.61-51.47,5.13-11.23,11.42-21.58,20-30.62a46.51,46.51,0,0,1,23.9-13.46c6.32-1.38,13.81.53,20.28,2.55,6.2,1.93,11.75,5.89,17.59,9,7.23,7.67,12.57,16.25,13.41,27.09.67,8.62-.73,11.43-8.85,14.29a179,179,0,0,1-22,6.22c-13,2.78-26.06,5.18-39.16,7.4-4.26.73-6.43,2.65-7.12,6.86-2.18,13.18-3.5,26.39-1.46,39.69,1.76,11.47,8,17.38,20.19,19.61,7.57.79,15.13,2,22.72,2.28,9.63.4,19.29.1,29.88.1.86,2.57,1.77,5.28,2.67,8-4.63,7.27-12.22,9.83-19.87,11.8A132.91,132.91,0,0,1,620.13,875.49Zm18.64-118c3.83-.85,7.74-1.43,11.46-2.62,4.93-1.57,8.81-4.4,9.13-10.23-4.61-5.81-16-9.71-22.44-7.66-8.11,2.58-16.51,13.29-17.1,22C626.37,761.63,632.6,760.12,638.77,757.49Z" transform="translate(-16.04 -437.06)"/><path class="cls-2" d="M730,1281.26c-13.83-2.42-22.28-11-27.06-23.72-14.35-38.07-13.44-74.88,9.75-109.55,7.12-10.65,16-19.36,28.63-23.79a30.32,30.32,0,0,1,15.5-1.62c10.08,1.64,18.87,6.13,27.2,11.75,7.5,7.91,12.91,16.84,13.44,28.08.36,7.7-.86,10.54-8.1,12.81-11.06,3.45-22.36,6.22-33.68,8.72s-22.65,4.26-33.85,6.32c-4.17,16.44-5.19,31.92-2.68,47.53,1.58,9.85,8.19,15.35,18.87,16.61l-.23-.51,1.22,1.65c8.24.78,16.46,1.9,24.72,2.27,9,.39,17.95.09,27.9.09l2.69,8c-5,7.38-12.84,10.1-20.91,12C759.1,1281.28,744.63,1282.79,730,1281.26Zm18.69-118c3.81-.87,7.71-1.48,11.43-2.65,4.91-1.53,8.8-4.3,9.15-10.1-4.6-5.84-16.22-9.91-22.43-7.87-8,2.64-16.48,13.51-17.09,22.22C736.26,1167.42,742.51,1166.13,748.65,1163.3Z" transform="translate(-16.04 -437.06)"/><path class="cls-2" d="M2185.59,849.58c8.12.8,16.23,1.94,24.38,2.3,9.14.4,18.32.09,28.35.09.84,2.75,1.67,5.44,2.5,8.13-4.78,7-12.22,9.78-19.89,11.71a133.29,133.29,0,0,1-44.27,3.65c-15.77-2.93-24.23-13.59-28.61-27.94-3.05-10-5.11-20.3-7.62-30.45-.11-1.47-.22-3-.34-4.48-.33-16.67,1.1-33,7.66-48.66a115.5,115.5,0,0,1,18.3-30.55c7.14-8.41,16.22-14.23,26.57-16.43,6.35-1.34,13.82.48,20.29,2.48,6.2,1.91,11.76,5.88,17.59,9,7.14,7.65,12.84,16,13.49,26.94.58,9.73-.25,11.49-9.43,14.73a164.57,164.57,0,0,1-21,5.9c-14.87,3.1-29.84,5.72-45.16,8.61-3.8,16.15-5.38,31.79-2.57,47.74,1.57,9,8,14.73,18.12,16l-.24-.3Zm10-92.16c4.07-1,8.23-1.66,12.17-3,4.48-1.53,8-4.24,7.92-9.71-.49-1.08-.69-2.71-1.53-3.17-16.28-8.88-24.78-5.89-36.17,9.21-1.59,2.1-1.82,5.23-2.69,7.9C2183.12,761.55,2189.43,760,2195.64,757.42Z" transform="translate(-16.04 -437.06)"/><path class="cls-2" d="M411.63,1255.51c8.21.79,16.41,1.87,24.64,2.3,7,.36,13.94-.11,20.92-.07,7.27,0,7.27.12,9.48,8.16-4.59,7.34-12.27,9.84-19.88,11.75-14.52,3.64-29.32,5.26-44.33,3.56-15.07-2.67-23.29-12.69-28-26.3-2.28-6.52-4.26-13.14-6.38-19.71l-.06-.09c-.35-3.39-.71-6.77-1.06-10.15q-.57-6-1.13-12c.11-17.83,3-35.14,11.54-51,4.4-8.11,9.16-16.4,15.39-23.08,18.56-19.9,35.46-21.3,57.79-8.32,2,1.17,3.91,2.48,5.86,3.73,7.77,8.16,13.29,17.28,13.6,29,.16,6.2-1.91,10.4-8,12-11.24,3-22.45,6.07-33.79,8.58s-22.7,4.31-33.86,6.39c-3.75,16.54-5.32,32-2.52,47.69,1.63,9.14,7.84,14.78,18.19,16.25l-.23-.27Zm30-104.85c-.47-1.1-.64-2.75-1.46-3.2-16.65-9.17-24.4-6-36.18,9.07-1.62,2.06-1.8,5.25-2.65,8,7.77,3,14.05,1.37,20.26-1.23,3.73-.86,7.56-1.44,11.19-2.64C437.5,1159.05,441.54,1156.52,441.61,1150.66Z" transform="translate(-16.04 -437.06)"/><path class="cls-2" d="M2659.55,1315.17a31,31,0,0,1-3.45,1.95c-6.55,2.75-11.22.26-12.23-6.52-.86-5.86.71-11.17,3.69-16.19,14.26-24.07,20-50.37,20.44-78.07.05-3.31.43-6.62.67-9.93.35-5,1.19-10,1-14.92-.86-18.89-.22-38.1-3.54-56.58-6.56-36.62-18.41-71.48-44-100-.88-1-2.5-1.87-2.61-2.92-.36-3.4-1.08-7.25.15-10.15.67-1.57,5.49-2.83,7.64-2,6.44,2.35,12.48,5.79,18.68,8.8,8.45,9.55,14.53,20.53,20,32,15.24,32.3,24,66,24.65,101.91.69,35.66,0,71.16-6.52,106.35C2680.66,1286.87,2675.52,1303.88,2659.55,1315.17Z" transform="translate(-16.04 -437.06)"/><path class="cls-1" d="M361.72,848.44q2.17,3.73,4.36,7.47c-14.58,1.28-28.37-1.93-41.87-7.7-.69,1-1.6,1.67-1.69,2.47-2,16.85-12.35,28.12-25.06,38C275,906.13,249.7,904.77,224,900.18c-8.74-1.57-15.74-7-21.9-13.3-11-11.22-20.82-23.32-26.4-39.36-40.17,17.17-75,11.88-102-24.17-14.3-19.05-21.3-53.88-3.33-79.37-1.93-1.09-3.74-2.31-5.7-3.19C50.33,734.4,38.81,724.33,28.42,713c-8.48-9.27-11-21.09-11.93-33.23-1.52-19.65.35-38.47,12.37-55.25,9.82-13.72,21.46-24.45,38.63-27.74.93-.17,1.76-.86,3.48-1.73-5.82-12.84-7.6-26.55-8.42-40.51-.8-13.55,2.43-25.86,10.94-36.4,5.64-7,11.49-14,18.27-19.76,19.55-16.72,42.25-22,67.13-15.26C164.33,484.56,169,489,174,492c-.37.39-.75.77-1.12,1.15-3.27-1.55-6.4-3.67-9.85-4.55-23-5.9-44.54-2.83-63.09,12.44-8.13,6.7-14.93,15.14-21.76,23.28-5.93,7.08-8.7,15.71-8.84,25-.23,15.39.45,30.66,7.34,44.91a16.72,16.72,0,0,1,.84,3.43C49.68,601,29.06,628.45,25.19,653.15c-6.78,43.26,13.37,70.52,52.06,86.31C61.64,765.07,62.93,794.18,80,816.79c26.32,34.92,59.79,39.87,98.62,22.84,5,16.08,15.07,28,26.09,39.21a44.47,44.47,0,0,0,25.31,13,153.43,153.43,0,0,0,18.89,1.81c27.05.93,48.74-9.36,63.69-32.11,4.06-6.18,6.09-13.71,9.31-21.22C333.9,846.85,347.62,848.63,361.72,848.44Z" transform="translate(-16.04 -437.06)"/><path class="cls-3" d="M1462.62,1420.66c1.15-3.06,2.93-6,3.34-9.18,2.7-20.77,5.42-41.54,7.51-62.38,2-19.44,3.07-39,4.68-58.45.33-3.9,1.26-7.75,1.9-11.54,7.54-1.1,14.5-1.66,21.24-3.18,26.2-5.89,47.15-19.52,60.91-43,9.22-15.72,10.36-32.64,6.39-50.16-3.69-16.27-10.88-30.6-22.83-42.39,11.06,2.52,19.09,9.66,25.09,18.52,12.28,18.11,18.75,37.93,15.36,60.32-2.81,18.53-12.66,32.67-26.45,44.4-15.66,13.33-34,20.6-54.46,22.46-2.6.23-5.18.53-8.41.87-.82,3.4-1.94,6.52-2.27,9.72-.93,8.9-1.58,17.82-2.26,26.74-.86,11.23-1.32,22.5-2.54,33.69-2.27,20.82-5,41.59-7.52,62.37a21.84,21.84,0,0,1-1.21,5.83c-1.93,4.59-6.1,5.92-10.57,6.2-4.74.29-6.1-3.15-6.9-7C1463.34,1423.22,1463,1421.94,1462.62,1420.66Z" transform="translate(-16.04 -437.06)"/><path class="cls-3" d="M1463.11,1014.81c7-4.59,7.64-12.26,8.63-19.38,1.54-11.2,2-22.55,3.42-33.78,2.38-18.81,5.34-37.55,7.71-56.36,4.25-33.66,8.14-67.37,12.38-101,3-23.43,6.34-46.8,9.25-70.23.65-5.23.15-10.61.18-15.92,13.74,1.62,17.86,5.87,16.8,19.13-.87,10.91-2.82,21.73-4.3,32.59-1.74,12.81-3.56,25.62-5.22,38.45-2.85,22.05-5.7,44.11-8.37,66.18-2.64,21.77-5,43.56-7.59,65.33q-3.76,31.65-7.8,63.26a64.19,64.19,0,0,1-2.58,11.64c-2.11,6.51-5.66,9.13-11.48,9.17C1468.06,1023.88,1466,1022.16,1463.11,1014.81Z" transform="translate(-16.04 -437.06)"/><path class="cls-1" d="M853.41,1281.66c14.59,2.27,29.06,2.67,43.44-1.7,19-5.76,25.58-13.14,27.57-33.08a249.24,249.24,0,0,0,.85-27.88q-1.17-94.27-2.57-188.54c-.05-3.32.08-6.65.13-10,11.72-3.93,16.32-.88,16.47,11.29q1.29,103.85,2.35,207.71a131.91,131.91,0,0,1-2.11,23.78c-1.93,10.94-8.38,18.55-19.06,22.45-18.73,6.85-37.6,8.41-56.63,1.54C860.18,1285.93,856.88,1283.55,853.41,1281.66Z" transform="translate(-16.04 -437.06)"/><path class="cls-2" d="M2000.11,1272.36c-2,.36-3.9.76-5.86,1.06-4.2.65-7.44-.81-8.45-5.05a89.08,89.08,0,0,1-2.39-14.57c-1.38-20.86-1.6-41.74-4.27-62.57-1.8-14.07-1.29-28.52-.85-42.77.27-8.54,7.53-11.59,13.78-5.68,7.33,6.93,13.34,5.86,21.16,1,17.36-10.73,45.67-8.46,60.93,4l2,.51-.51-.16c.57,2,1,4.14,1.74,6.15,2.79,7.83-2.58,14.66-10.91,13.59-2.18-.28-4.27-1.35-6.4-2-5-1.44-10-3.2-15.13-4.27-17.46-3.64-29.23,2.47-35.05,19.34a101.57,101.57,0,0,0-5.52,27.1c-1,18.19-.63,36.45-.83,54.69C2003.48,1266.34,2004.19,1270.2,2000.11,1272.36Z" transform="translate(-16.04 -437.06)"/><path class="cls-2" d="M1287,866.43c-12.77,2.35-16.48-.63-17-13.95-.69-16.44-1.16-32.88-1.94-49.31-.17-3.54-1.25-7-1.91-10.53-.64-4.56-1.28-9.15-1.92-13.74,0-9.93-.1-19.86,0-29.78a36.07,36.07,0,0,1,1.11-8.85c1.59-6,8-8.74,12.07-4.35,8.35,8.93,15.46,6.45,24.4.89,12.74-7.92,47.13-8.75,58.93,5.24l1.49.11-.7.09,2.46,6.26c2.42,6.13.32,11.11-6,13-2.4.72-5.14.27-7.73.35-7.15-2.2-14.18-5.06-21.48-6.47-14.3-2.74-24.46,2.72-30.78,15.82a39.82,39.82,0,0,0-3.91,11.2c-1.66,11.44-3.39,22.93-3.95,34.46-.66,13.55-.13,27.16-.1,40.75C1290,860.94,1290.55,864.39,1287,866.43Z" transform="translate(-16.04 -437.06)"/><path class="cls-2" d="M1724.55,1181.8c.33-10.93.22-21.89,1.12-32.78.78-9.39,7.39-12.36,14.06-6,7.47,7.12,13.53,5.28,21.15.59,17.1-10.53,45.7-8.15,60.83,4.36a31.39,31.39,0,0,0,2,4.5c2.54,4,3.65,8.07-.06,11.8-3.49,3.51-7.48,4.72-12.65,2.78a132.22,132.22,0,0,0-20-5.69c-15.48-3.16-27,2.54-32.76,17.28a88.63,88.63,0,0,0-6.1,26c-1.23,18.87-1,37.83-1.49,56.75-.1,3.83,1.3,8.15-2.9,10.92-12.73,2.24-16.42-.6-17.15-14-.78-14.49-1-29-1.82-43.51-.38-6.51-1.65-13-2.51-19.44Q1725.4,1188.6,1724.55,1181.8Z" transform="translate(-16.04 -437.06)"/><path class="cls-1" d="M2659.55,1315.17c16-11.29,21.11-28.3,24.46-46.28,6.57-35.19,7.21-70.69,6.52-106.35-.69-35.9-9.41-69.61-24.65-101.91-5.42-11.48-11.5-22.46-20-32,5.21,2.69,11.2,4.51,15.43,8.3a61.49,61.49,0,0,1,12.84,16.4c17.39,32.26,29.5,66.09,32,103.16,2.79,41.13,1.16,81.89-6.23,122.42a170,170,0,0,1-4.75,18.36c-3.54,11.67-11.09,20.31-21,27.08-6.53,4.45-11.85,2.57-14.08-5.21A28.82,28.82,0,0,1,2659.55,1315.17Z" transform="translate(-16.04 -437.06)"/><path class="cls-1" d="M403.75,851.39c-12.61-1.7-19-9.73-21.76-21.43-3.52-14.86-2.11-29.72.21-44.55,1.28-8.18,2.83-16.33,4.43-24.46,1.74-8.81,3.95-10.68,13-11.74,6.26-.74,12.58-1.19,18.76-2.37,11.9-2.27,12.35-3.08,12.36-16,5.57.63,10.18-1.15,14.36-5,4.61-4.18,9.62-7.93,14.45-11.87q.09,4.69.16,9.39l-13.65,10.85c3,17.92-.16,17.23-10.13,21.54a30.82,30.82,0,0,0,.33,4.62c6.47,29.41-.7,54.59-23.17,75.06-2.7,2.46-5.24,5.16-8.22,7.24C401.13,845.39,402.2,848.25,403.75,851.39Zm25.18-94.32c-.28-.16-.57-.47-.83-.45-4.31.32-8.62.66-12.92,1-7.71.7-9.64,2.12-11.33,9.83-2.06,9.42-4.08,18.88-5.35,28.43a262,262,0,0,0-1.84,26.87c-.12,4.06.92,8.15,1.49,12.7C428.08,816.17,438.08,779.78,428.93,757.07Z" transform="translate(-16.04 -437.06)"/><path class="cls-1" d="M475.43,636.56l-9.56-4.87c-10.12-17.77-23.61-31.17-45.86-34,7.06-13.69,8.56-27.76,9.14-42a50.54,50.54,0,0,0-12.87-36.71c-2.41-2.75-5-5.32-7.32-8.18-18.52-23.28-58.66-34.6-88.67-14.42-2.83-18.59-13.84-31.1-28.85-41.08-18.55-12.34-38.75-12.29-59.61-9.6-16.13,2.07-27.35,11.55-36.53,23.85-6.43,8.6-12,17.88-18.11,27.21l-4.3-3.53c.37-.38.75-.76,1.12-1.15,1.25-1.44,3-2.67,3.69-4.35,5.58-13.91,15.21-24.89,25.55-35.31a43.92,43.92,0,0,1,24.26-12.95c14.49-2.4,29.09-3.64,43.56-.17,20.45,4.91,35.92,16.92,46.61,34.82,2.81,4.68,3.9,10.38,5.9,16,30.22-16.21,58.33-12.13,84.6,9.46,32.46,26.66,32.89,59.79,19.24,96C450.88,600.9,466.8,614.55,475.43,636.56Z" transform="translate(-16.04 -437.06)"/><path class="cls-1" d="M1264.18,778.9c.64,4.59,1.28,9.18,1.92,13.74-.69,8.2-.82,16.52-2.16,24.65-5.21,31.62-24.29,52.38-52.94,64.67-12.76,5.47-25.31,3.3-36.29-5.71,24.56,1.58,41.56-12.33,56-29.26,18.24-21.47,21.12-47.35,16.49-74.28-3.49-20.36-11.94-38.53-25.94-53.94,8.8.48,14.4,6.32,19.71,12.23,10.45,11.61,16.35,25.65,20.76,40.41C1262.44,773.93,1263.34,776.4,1264.18,778.9Z" transform="translate(-16.04 -437.06)"/><path class="cls-3" d="M1160.28,1278.35c1.21-4.31,3.48-8.63,3.46-12.94-.18-31.86,7.64-62.48,14.46-93.2,1.91-8.59,6.15-16.74,9.85-24.86,4.18-9.16,13-13.94,20.37-20.07,1.42-1.18,4.68-1.31,6.56-.57,4.82,1.89,9.35,4.55,14,6.9-13.2,7.19-23.45,17-29.3,31.24-7.38,18-9.77,37.18-13.58,56-3.76,18.61-6.44,37.26-6.26,56.33.08,8-3.46,10.67-11.11,10.46C1162.57,1287.51,1161.32,1283.06,1160.28,1278.35Z" transform="translate(-16.04 -437.06)"/><path class="cls-3" d="M1724.55,1181.8q.85,6.79,1.69,13.55c-.53,12.91-.09,25.83-4,38.54-8,26.17-25.76,43.18-50,53.74-12.69,5.53-25.41,3.59-36.51-5.41,25.4,1.21,42.84-13.2,57.11-31.3,17.92-22.73,20-49.41,14.12-76.93a104.55,104.55,0,0,0-24.93-49.27c6.49.1,11.09,3.91,15.49,8,11.23,10.46,17.74,23.78,22.72,38C1721.6,1174.47,1723.13,1178.12,1724.55,1181.8Z" transform="translate(-16.04 -437.06)"/><path class="cls-2" d="M1698,873.54c-2,.26-3.94.46-5.9.79-5.25.89-8.28-1.69-9.58-6.42a44.81,44.81,0,0,1-2-10.69c-.24-12.23.34-24.49-.21-36.7s-2.62-24.37-3.06-36.59c-.47-12.89.11-25.81.4-38.72.09-4,.23-8.19,5.6-9.13s8.68,1,11.14,6.93c.38.9.88,1.76,1.32,2.63,1.22,12.53,2,25.13,3.77,37.57a401.53,401.53,0,0,1,3.84,79.45C1703.15,867.13,1702.68,871.32,1698,873.54Z" transform="translate(-16.04 -437.06)"/><path class="cls-2" d="M1118.07,1279.32c-13.17,1.89-17-1.32-17.54-15.21-.32-8.59.19-17.22-.26-25.79-.87-16.53-2.55-33-3.13-49.56-.44-12.56.21-25.17.55-37.76.1-4,.23-8.2,5.66-9.07s8.61,1,11.07,7c.37.91.89,1.75,1.34,2.62,1.24,12.51,2,25.08,3.8,37.51a400.35,400.35,0,0,1,3.75,79.33C1123.07,1272.76,1122.88,1277.15,1118.07,1279.32Z" transform="translate(-16.04 -437.06)"/><path class="cls-3" d="M254.87,1281.84c6.3-3.3,9.72-8.72,11.45-15.42,8.11-31.39,16.44-62.73,24.21-94.21,2.45-9.91,3.4-20.2,5-30.31q1.24-7.73,2.48-15.46c12.14-.48,18.47,6.39,16,17.63-5.87,26.54-11.66,53.09-17.88,79.54-3.88,16.48-8.42,32.8-12.84,49.14a38.35,38.35,0,0,1-4.16,10.09C272.8,1293.09,261.06,1292.5,254.87,1281.84Z" transform="translate(-16.04 -437.06)"/><path class="cls-2" d="M2237.46,1199.59l-.33-7.24c.22-13.47.37-26.95.7-40.41.1-4.24-.08-8.91,5.73-10,5.61-1,8.64,1,11.41,7.8a13.86,13.86,0,0,0,1,1.71c.86,10.87.78,21.93,2.77,32.6,5.24,28.19,5.9,56.54,4.93,85-.16,4.71-1.75,8.24-5.69,10.74-13.27.91-17.06-2.46-17.73-15.91-.15-3,.18-6,.11-8.94C2239.93,1236.5,2241.39,1217.91,2237.46,1199.59Z" transform="translate(-16.04 -437.06)"/><path class="cls-2" d="M345.26,1279.24c-13.44,2-17.25-1.09-17.66-14.89-.23-7.95.28-15.94-.06-23.89-1.12-26.82-2.51-53.63-3.69-80.46a63.78,63.78,0,0,1,.6-9.94c.41-3.68.94-7.35,5.73-8.11,5.26-.83,8.64.91,10.93,6,.55,1.2.91,2.49,1.36,3.73.76,9.89.57,20,2.48,29.62,5.83,29.47,6.07,59.15,5.19,89C350,1274.43,348.51,1277.13,345.26,1279.24Z" transform="translate(-16.04 -437.06)"/><path class="cls-1" d="M1747.72,1272.29c4.2-2.77,2.8-7.09,2.9-10.92.46-18.92.26-37.88,1.49-56.75a88.63,88.63,0,0,1,6.1-26c5.76-14.74,17.28-20.44,32.76-17.28a132.22,132.22,0,0,1,20,5.69c5.17,1.94,9.16.73,12.65-2.78,3.71-3.73,2.6-7.8.06-11.8a31.39,31.39,0,0,1-2-4.5c9.48.23,15.07,5.76,19,13.74,1.92,3.94,2.35,7.73-1,11s-7.19,4.27-11.87,2.81c-7.26-2.27-14.55-4.68-22-6.08-13.89-2.59-23.87,2.66-30.37,15.29-5,9.65-7,20.16-7.38,30.82-.62,18.61-.48,37.25-.75,55.88-.11,7.22-1.73,9.26-8.16,10.12S1750.24,1281.42,1747.72,1272.29Z" transform="translate(-16.04 -437.06)"/><path class="cls-3" d="M660.76,1274.12c1.88-3.75,4.78-7.32,5.46-11.27,2.42-14,5.21-28.13,5.79-42.29,1.23-30.47,1.28-61,1.57-91.49,0-4.93-1.17-9.86-1.79-14.79,12.85.45,15.11,2.21,17.21,14.3a71.69,71.69,0,0,1,1,11.89c.1,22.25.51,44.51-.09,66.75-.33,12.55-2.32,25.07-3.66,37.59-.71,6.59-1.62,13.15-2.42,19.72-.16,1.32-.13,2.68-.41,4-1.2,5.44-1.39,11.54-8,13.85-6.12,2.15-8.67-3.64-12.75-6C661.87,1275.9,661.39,1274.88,660.76,1274.12Z" transform="translate(-16.04 -437.06)"/><path class="cls-1" d="M2140.09,812.59c.12,1.5.23,3,.34,4.48-.87,6.9-1.25,13.93-2.71,20.72-3.55,16.41-13.32,28.25-28.64,34.93-6.95,3-14.46,5.92-21.9,6.47-14.9,1.11-29.93.88-44.89.53-5.88-.13-12-1.47-15.5-7.43,10.64,0,21.32.52,31.9-.25,8.88-.64,18-1.79,26.39-4.51,26.86-8.69,40-29.46,38-59.38-1.51-21.88-11.72-39.87-27.2-55,7.14.33,12.14,4.79,17,9.19,13.07,11.86,21.21,26.65,25.23,43.78C2138.57,808.28,2139.4,810.42,2140.09,812.59Z" transform="translate(-16.04 -437.06)"/><path class="cls-3" d="M1265.36,1278c1.46-4.28,3.7-8.47,4.23-12.86a219,219,0,0,0,.33-53.61,139.86,139.86,0,0,1-1.52-18.8c.16-16.84-4.25-32.81-8.78-48.73a71.56,71.56,0,0,0-15.13-27.69c8.58,1,14.8,6.12,19.55,12.57a77.42,77.42,0,0,1,10,18.24c7.27,19.1,10.48,39,11.2,59.47.45,12.94,2.22,25.85,2.45,38.79.17,9.59-.92,19.25-1.91,28.83-1.31,12.73-4.35,14.79-18.88,12.94C1266.42,1284.26,1265.89,1281.11,1265.36,1278Z" transform="translate(-16.04 -437.06)"/><path class="cls-3" d="M476.55,871.64c.52-8.55,1.85-17.14,1.4-25.64-1.16-22.32,4.26-43.47,10.37-64.52,2.59-9,6.56-17.51,13.37-24.15,9.42-9.18,21.45-13.33,34-1.37-14.14,3.51-23,12.89-28,26.06-7.82,20.92-13.49,42.36-13.44,64.94,0,8.31.21,16.62,0,24.92-.16,6.8-2.54,9.43-8.31,10.21s-7.36-3.2-8.56-7.6C477.19,873.53,476.85,872.59,476.55,871.64Z" transform="translate(-16.04 -437.06)"/><path class="cls-1" d="M2183.94,848.3c-10.1-1.27-16.55-7-18.12-16-2.81-15.95-1.23-31.59,2.57-47.74,15.32-2.89,30.29-5.51,45.16-8.61a164.57,164.57,0,0,0,21-5.9c9.18-3.24,10-5,9.43-14.73-.65-10.92-6.35-19.29-13.49-26.94,17,4.75,28.9,18.93,29.9,35.65.54,9-.37,11.48-9.1,14-13.35,3.87-27,6.7-40.58,9.79a151.44,151.44,0,0,1-18.59,3.41c-6.21.63-8.31,3.93-9.14,9.62C2180.66,816.76,2179.92,832.56,2183.94,848.3Z" transform="translate(-16.04 -437.06)"/><path class="cls-1" d="M410,1254.26c-10.35-1.47-16.56-7.11-18.19-16.25-2.8-15.71-1.23-31.15,2.52-47.69,11.16-2.08,22.58-3.9,33.86-6.39s22.55-5.61,33.79-8.58c6.11-1.61,8.18-5.81,8-12-.31-11.77-5.83-20.89-13.6-29,16.92,4.61,29.14,19.23,29.76,35.63.37,9.64-.23,11.5-10,14.32-13.36,3.84-27.05,6.57-40.63,9.62-6.14,1.38-12.35,2.6-18.58,3.48-4.67.65-6.78,2.92-7.6,7.58C406.37,1221.44,405.7,1237.87,410,1254.26Z" transform="translate(-16.04 -437.06)"/><path class="cls-3" d="M629.07,849.59c-12.18-2.23-18.43-8.14-20.19-19.61-2-13.3-.72-26.51,1.46-39.69.69-4.21,2.86-6.13,7.12-6.86,13.1-2.22,26.17-4.62,39.16-7.4a179,179,0,0,0,22-6.22c8.12-2.86,9.52-5.67,8.85-14.29-.84-10.84-6.18-19.42-13.41-27.09,17.36,5.32,29.07,19.5,29.71,36,.34,8.68-.38,11-8.62,13.41-13.37,3.93-27,6.83-40.65,9.94-6.81,1.56-13.71,2.69-20.59,3.89-3.15.56-5.8,1.52-6.55,5.09-3.46,16.45-4.9,32.91-.25,49.38A16.67,16.67,0,0,0,629.07,849.59Z" transform="translate(-16.04 -437.06)"/><path class="cls-3" d="M738,1254.4c-10.68-1.26-17.29-6.76-18.87-16.61-2.51-15.61-1.49-31.09,2.68-47.53,11.2-2.06,22.61-3.84,33.85-6.32s22.62-5.27,33.68-8.72c7.24-2.27,8.46-5.11,8.1-12.81-.53-11.24-5.94-20.17-13.44-28.08,16.75,5,28.49,18.75,29.7,34.88.71,9.51-.29,12.16-9.47,14.79-13.7,3.91-27.72,6.75-41.65,9.88-6.48,1.46-13,2.65-19.58,3.75-3.4.57-5.48,2.3-6.07,5.63C733.86,1220.37,731.78,1237.48,738,1254.4Z" transform="translate(-16.04 -437.06)"/><path class="cls-3" d="M1077.9,850.72c-10.79-.53-17.47-7-19.68-16.62-2.27-9.91-3.8-20.42-3.1-30.49,1-14.85,4.13-29.58,6.77-44.28,1.36-7.6,3.5-9.05,11.2-10,6.6-.78,13.26-1.23,19.78-2.43,12.11-2.23,12.55-3,13-15.66,2.95.3,6,.25,8.81,1,5.16,1.32,7.44,5.13,7.36,11.38s-1.54,9.07-7.19,10.18c-8.44,1.66-17,2.58-25.57,3.7-6.83.89-9.81,2.63-10.86,9.29-2.66,17-7.48,33.66-7.21,51.14C1071.4,829.39,1072.62,840.41,1077.9,850.72Z" transform="translate(-16.04 -437.06)"/><path class="cls-3" d="M2493.92,850.49c-9.55,0-15.75-5.42-18.41-13.79a102,102,0,0,1-4.32-24.3c-1.15-18.44,4.23-36.18,7.12-54.17.82-5.06,3.67-8.81,10.09-8.94a127.32,127.32,0,0,0,20.75-2.38c12.26-2.28,12.49-2.8,12.91-15.69a56.17,56.17,0,0,1,6.89.62c7.07,1.52,9.34,4.56,9.23,11.88-.1,7.07-1.42,9-9.21,10.53-7.5,1.48-15.14,2.24-22.73,3.2s-10.56,2.67-11.7,9.69c-2.67,16.4-5.05,32.87-6.8,49.38A61.38,61.38,0,0,0,2493.92,850.49Z" transform="translate(-16.04 -437.06)"/><path class="cls-3" d="M345.26,1279.24c3.25-2.11,4.76-4.81,4.88-9,.88-29.82.64-59.5-5.19-89-1.91-9.66-1.72-19.73-2.48-29.62,11.44-3.52,14.59-1.93,16.19,9.42,2.07,14.66,3.52,29.41,5.34,44.11a72.63,72.63,0,0,0,1.78,7.67q.57,6.06,1.13,12.08c.35,3.38.71,6.76,1.06,10.15l.06.09c-.31,2.58-.79,5.15-.87,7.74-.36,11.22-.49,22.45-.9,33.67-.31,8.44-2.42,10.78-9.93,11.8C349.42,1289.35,348,1288.13,345.26,1279.24Z" transform="translate(-16.04 -437.06)"/><path class="cls-3" d="M2258,1279.85c3.94-2.5,5.53-6,5.69-10.74,1-28.51.31-56.86-4.93-85-2-10.67-1.91-21.73-2.77-32.6,11.7-3,15-.91,16.19,10.81.76,7.47,1.26,15,1.89,22.58l16,5.25-.42,3.14-13.86-1.78c.24,2.91.24,4.54.52,6.13,4.77,26.64,4.68,53.51,3.7,80.41-.25,7-1.73,8.61-8.28,10.3C2263.81,1290.33,2262,1289.18,2258,1279.85Z" transform="translate(-16.04 -437.06)"/><path class="cls-3" d="M1927.58,1257.3c-12.56-1.75-19-9.76-21.72-21.44-3.79-16.5-2-32.94,1-49.33,1.13-6.18,2.32-12.36,3.4-18.55,1.73-10,3.82-12,13.9-13.12,5.92-.68,11.9-1,17.76-2.08,12.16-2.18,12.55-2.85,12.75-15.55,3.26.34,6.62.3,9.76,1.1,4.26,1.1,7,5.84,6.95,10.84-.07,5.8-2,9.41-7.21,10.41a253.42,253.42,0,0,1-26.58,3.8c-5.11.45-8.5,2.69-9.38,7.29-4.39,23.06-11.43,45.95-6.5,69.82C1922.89,1246.25,1925.58,1251.7,1927.58,1257.3Z" transform="translate(-16.04 -437.06)"/><path class="cls-3" d="M1287,866.43c3.57-2,3.06-5.49,3.06-8.79,0-13.59-.56-27.2.1-40.75.56-11.53,2.29-23,3.95-34.46a39.82,39.82,0,0,1,3.91-11.2c6.32-13.1,16.48-18.56,30.78-15.82,7.3,1.41,14.33,4.27,21.48,6.47l-2.16,1.65-4.87-1-8.7.26c-11.77,2.86-19.4,10.59-22.14,21.88a223.72,223.72,0,0,0-5.89,37.07c-1,14.17-.19,28.47-.24,42.7,0,8.45-.83,9.63-6.84,11-6.47,1.47-8.4.3-11.8-7.15A19.79,19.79,0,0,1,1287,866.43Z" transform="translate(-16.04 -437.06)"/><path class="cls-3" d="M2000.11,1272.36c4.08-2.16,3.37-6,3.41-9.61.2-18.24-.16-36.5.83-54.69a101.57,101.57,0,0,1,5.52-27.1c5.82-16.87,17.59-23,35.05-19.34,5.12,1.07,10.09,2.83,15.13,4.27l-11,2.38c-14,3.13-21.47,12.9-24.56,26a170.42,170.42,0,0,0-4.41,30.45c-.74,14.92-.21,29.89-.24,44.84,0,9-.93,10.71-7.13,11.87-8.1,1.52-10-.63-12.28-8.08C2000.33,1273,2000.21,1272.67,2000.11,1272.36Z" transform="translate(-16.04 -437.06)"/><path class="cls-3" d="M583.69,812.47c.14,2.59.29,5.19.43,7.75-.82,11.83-1.61,23.7-2.47,35.56-.36,5-.78,9.89-1.37,14.82-.71,5.92-3.2,8.67-8.16,9.42s-7.87-1.25-10-7.2a18.63,18.63,0,0,1-.58-2.92c.87-2.42,2.39-4.8,2.49-7.25.88-20.92,2.12-41.85,2-62.78-.09-23.73-6.12-46-20.18-65.61,9.54.73,15.4,6.83,20.2,14.18,9.81,15,14.07,31.82,15.86,49.42C582.4,802.74,583.09,807.6,583.69,812.47Z" transform="translate(-16.04 -437.06)"/><path class="cls-3" d="M1698,873.54c4.66-2.22,5.13-6.41,5.36-10.88a401.53,401.53,0,0,0-3.84-79.45c-1.82-12.44-2.55-25-3.77-37.57,10.88-2.92,14.82-1.44,15.7,8.11,3.62,39.24,11.59,78.18,8.3,117.93-.45,5.37-2.19,8.68-7.37,10.29C1704.25,884.51,1701.78,883.13,1698,873.54Z" transform="translate(-16.04 -437.06)"/><path class="cls-3" d="M1118.07,1279.32c4.81-2.17,5-6.56,5.24-10.92a400.35,400.35,0,0,0-3.75-79.33c-1.78-12.43-2.56-25-3.8-37.51,11.92-3.32,15-.86,16.4,11.93,1.86,17.46,4.07,34.89,6.25,52.32.24,1.92,1.19,3.76,1.81,5.66,0,0,0,.93,0,.9-.08,13.13-.13,26.3-.24,39.48,0,5.27-.1,10.55-.38,15.82-.37,7.11-2.38,9.31-9.16,10.6s-8.73.12-11.93-7A9.34,9.34,0,0,1,1118.07,1279.32Z" transform="translate(-16.04 -437.06)"/><path class="cls-3" d="M1771.68,874.47c22.51,4.74,41.33-3.19,57.66-17.78,17.14-15.32,21.86-34.59,9.41-59.71a72.72,72.72,0,0,0-4.26-6.7c7.43.72,13,4.81,17.57,10.27,13,15.72,13.09,41.62.24,57.47-11.14,13.74-25.82,22.06-42.94,25.32C1795.84,885.9,1783,882.88,1771.68,874.47Z" transform="translate(-16.04 -437.06)"/><path class="cls-3" d="M2316.66,874.5c22.8,4.74,41.73-3.47,58.19-18.3,17.05-15.36,20.36-35.87,10.18-57-1.13-2.34-2.15-4.73-3.21-7.09,8.2-.91,12.63,4.78,16.6,10.29a46.6,46.6,0,0,1-3.18,58c-18.34,20.85-46.76,28.67-70.18,19.13C2322.07,878.36,2319.45,876.22,2316.66,874.5Z" transform="translate(-16.04 -437.06)"/><path class="cls-3" d="M900.53,874.51c22.47,4.7,41.15-3.41,57.53-17.81,19.14-16.84,20.21-37.9,9.53-59.61a78.4,78.4,0,0,0-4.17-6.74A22.94,22.94,0,0,1,980.2,800c10.46,14.25,14.09,30.24,7.31,47-11.75,29-52,44.64-80.41,31.85C904.75,877.72,902.71,876,900.53,874.51Z" transform="translate(-16.04 -437.06)"/><path class="cls-1" d="M2045.7,745.59c-3,2-6,4.15-9,6.06-4.67,2.9-7.36,1.51-7.55-4.21-.39-11.58.09-23.21-.86-34.73-1.61-19.73-4-39.39-6.13-59.08,13-.83,14.25-.29,16.87,12a217.83,217.83,0,0,1,4.45,29.37C2044.66,711.85,2045,728.73,2045.7,745.59Z" transform="translate(-16.04 -437.06)"/><path class="cls-3" d="M500.05,727.94l-10.58,7.75c-4.66-1.8-5.34-5.6-5.59-9.67-1.09-17.93-2-35.88-3.33-53.8-.77-10.61-2.08-21.18-3.14-31.76,11.83,0,14.75,2.1,17.08,13.31a121.56,121.56,0,0,1,2,16.72C497.8,689.64,498.89,708.79,500.05,727.94Z" transform="translate(-16.04 -437.06)"/><path class="cls-3" d="M563.69,1267.51q9.27-22,18.54-44c3-7.27,6-14.57,9.29-22.58,7.48,3.17,11.21,8.38,14.24,14.31-5.24,13.24-10.4,26.51-15.74,39.7-3.6,8.89-7.2,17.82-14.68,25.26C569,1278.12,566.67,1272.49,563.69,1267.51Z" transform="translate(-16.04 -437.06)"/><path class="cls-2" d="M1097.6,1103.66c-7.24-1-14.6-1.31-18.1-9.74-3.1-7.48-4-14.67-.13-22,2.86-5.42,7-8.48,13.48-8.4,8.83.11,17.41.47,23,8.79C1120.41,1088.51,1114.62,1098.46,1097.6,1103.66Z" transform="translate(-16.04 -437.06)"/><path class="cls-2" d="M2237.81,1103.64c-7.22-1-14.58-1.28-18.06-9.71-3.07-7.47-4-14.65-.14-22,2.84-5.4,6.95-8.54,13.42-8.44,8.79.15,17.4.4,23,8.74C2260.73,1088.36,2254.88,1098.44,2237.81,1103.64Z" transform="translate(-16.04 -437.06)"/><path class="cls-2" d="M1677.64,697.84c-7.36-.72-14.52-1.39-18-9.74-3.12-7.44-4.12-14.63-.15-22,2.86-5.31,6.89-8.53,13.38-8.49,8.86,0,17.34.57,23,8.78C1700.44,682.71,1694.79,692.46,1677.64,697.84Z" transform="translate(-16.04 -437.06)"/><path class="cls-1" d="M250.24,1224.87c-.69,3.52-1.38,7-2.2,11.25-5.93-2.73-8.48-7.39-11-11.9q-27.34-49.28-54.52-98.64c7.53-4.24,8.53-4.33,12.51,2.57,17.23,29.86,34.23,59.85,51.3,89.8C247.67,1220.25,249,1222.56,250.24,1224.87Z" transform="translate(-16.04 -437.06)"/><path class="cls-2" d="M324.19,1103.62c-7.25-.92-14.45-1.51-17.87-9.85-3.06-7.46-3.75-14.69,0-22,2.76-5.37,6.94-8.48,13.41-8.34,8.76.18,17.33.42,22.85,8.81C347.31,1088.6,341.33,1098.78,324.19,1103.62Z" transform="translate(-16.04 -437.06)"/><path class="cls-1" d="M561.91,1208.35c-1.28,4-2.55,8.06-3.9,12.31-6-1.61-7.83-6-9.67-10.16q-19.08-42.76-37.94-85.63a18.11,18.11,0,0,1-.78-2.87c8.83-5.07,9.87-4.88,14.07,4.09Q542.91,1167.18,561.91,1208.35Z" transform="translate(-16.04 -437.06)"/><path class="cls-1" d="M1469.56,808.89c-.84,3-1.67,6.07-2.65,9.64-5.88-2-8.39-5.91-10.37-10-14.74-30.06-32.52-58.3-51.07-86.09,4.38-2.61,8-2.15,11.13,2.23,5.37,7.58,11.49,14.69,16.33,22.58C1445.42,767.65,1457.38,788.34,1469.56,808.89Z" transform="translate(-16.04 -437.06)"/><path class="cls-1" d="M885.3,777.18c-8.58-.48-8.86-.56-15.69-4.47-.38-14.73,3.61-20.87,17.15-24.91A231.37,231.37,0,0,1,910,742.42c8.64-1.63,16.42.31,22.58,7l-26.89,5.74C893.71,757.75,886.53,764.72,885.3,777.18Z" transform="translate(-16.04 -437.06)"/><path class="cls-1" d="M2301.47,777.16l-14.93-2.48c-2-14.22,1.87-22.08,13.68-26,9.05-3,18.56-4.7,28-6.44,8-1.48,15,1.2,20.59,7.18-9,1.91-18,3.77-26.91,5.72C2310,757.74,2302.7,764.66,2301.47,777.16Z" transform="translate(-16.04 -437.06)"/><path class="cls-1" d="M1756.23,777.15l-15-2.57c-1.79-13.92,2.44-22.12,14.12-25.9,9.09-2.93,18.61-4.71,28-6.42,8-1.46,15,1.16,20.57,7.26-8.06,1.61-16.12,3.24-24.18,4.83C1767,756.87,1757.92,763.18,1756.23,777.15Z" transform="translate(-16.04 -437.06)"/><path class="cls-1" d="M402.46,1281.21c15,1.7,29.81.08,44.33-3.56,7.61-1.91,15.29-4.41,19.88-11.75h13.45c3.88,9.49,4.05,10.21-3.25,14a76.19,76.19,0,0,1-18.44,6.88c-14.27,3.19-28.83,5.09-43.27,1.25C410.64,1286.87,406.68,1283.56,402.46,1281.21Z" transform="translate(-16.04 -437.06)"/><path class="cls-1" d="M620.13,875.49a132.91,132.91,0,0,0,44.34-3.73c7.65-2,15.24-4.53,19.87-11.8H697.7c3.91,9.61,4.1,10.39-3.3,14.11-6.41,3.22-13.33,6.2-20.33,7.28a208.72,208.72,0,0,1-33.52,2.24C633.1,883.52,625.33,882.19,620.13,875.49Z" transform="translate(-16.04 -437.06)"/><path class="cls-1" d="M2176.66,875.46a133.29,133.29,0,0,0,44.27-3.65c7.67-1.93,15.11-4.67,19.89-11.71h13.49c3.9,9.38,3.79,9.63-3.14,14.1-7.72,5-16.45,6.69-25.32,8.11-12.17,2-24.41,3.21-36.45-.06C2184.87,881,2180.89,877.78,2176.66,875.46Z" transform="translate(-16.04 -437.06)"/><path class="cls-1" d="M730,1281.26c14.67,1.53,29.14,0,43.41-3.37,8.07-1.92,15.89-4.64,20.91-12,3-.06,6.09-.58,9,0,2.26.44,5.17,1.74,6.15,3.55,1.6,2.95,1.48,6.57-2.11,8.75-3.13,1.89-6.12,4.31-9.52,5.41-18.3,5.89-37,8.8-56,4.32C737.52,1286.9,733.87,1283.54,730,1281.26Z" transform="translate(-16.04 -437.06)"/><path class="cls-3" d="M324.19,1103.62c17.14-4.84,23.12-15,18.38-31.34,10.67.6,16.42,4.86,18,13.37,1.78,9.45-4.27,20.43-13.3,24.16C337.57,1113.82,329.67,1111.7,324.19,1103.62Z" transform="translate(-16.04 -437.06)"/><path class="cls-3" d="M1097.6,1103.66c17-5.2,22.81-15.15,18.29-31.39,11.65.9,17.59,6.1,18,15.78.5,11.51-7.9,22.3-18.92,23.2C1108.2,1111.8,1100.56,1112.63,1097.6,1103.66Z" transform="translate(-16.04 -437.06)"/><path class="cls-3" d="M2237.81,1103.64c17.07-5.2,22.92-15.28,18.23-31.42,11.76,1,17.59,6.09,18,15.79.52,11.58-7.73,22.23-18.84,23.23C2248.39,1111.86,2240.83,1112.52,2237.81,1103.64Z" transform="translate(-16.04 -437.06)"/><path class="cls-2" d="M2591.72,1252.92c-9.8,1-13.31-.37-15.77-6.3-3.32-8-1-18.06,5.22-22.74a12.27,12.27,0,0,1,16.14,1.53,54.37,54.37,0,0,1,3.45,4.85C2603.47,1243.83,2601.65,1248.38,2591.72,1252.92Z" transform="translate(-16.04 -437.06)"/><path class="cls-3" d="M1677.64,697.84c17.15-5.38,22.8-15.13,18.21-31.43,11.73,1,17.58,6.08,18,15.77.53,11.44-8,22.37-18.83,23.3C1688.16,706.07,1680.67,706.65,1677.64,697.84Z" transform="translate(-16.04 -437.06)"/><path class="cls-1" d="M648.45,1220.55c-.62,2.7-1.24,5.4-2.35,10.21-4.24-4.32-7.3-6.75-9.52-9.81-13.49-18.58-26.78-37.3-40.14-56,5-3.83,8.42-1.5,11.62,2.67,10.29,13.4,20.68,26.71,31,40.1C642.26,1212,645.32,1216.28,648.45,1220.55Z" transform="translate(-16.04 -437.06)"/><path class="cls-1" d="M2486.68,874.34c5.53.52,11.08,1.66,16.57,1.41a35.11,35.11,0,0,0,27.59-14.51h13.29c4.1,8.62,3.9,9.65-2,14C2525.71,887.34,2503.44,887,2486.68,874.34Z" transform="translate(-16.04 -437.06)"/><path class="cls-1" d="M2498.14,723.73l-16-.82V682.34c12.1-.09,16.52,3.26,17.09,14.92C2499.66,706.05,2498.56,714.91,2498.14,723.73Z" transform="translate(-16.04 -437.06)"/><path class="cls-1" d="M395.67,874.34c5.55.51,11.13,1.64,16.65,1.42,11.41-.46,20.76-5.46,27.74-14.63l14.05.85c3.38,6.44,1.4,10.12-3.27,13.51C434.66,887.24,412.72,886.89,395.67,874.34Z" transform="translate(-16.04 -437.06)"/><path class="cls-1" d="M1919.48,1280.25c14.66,3.42,28.34,1.89,40.16-8.3,1.7-1.46,2.91-3.49,4.35-5.25,3,.18,5.93.27,8.87.57s6.08.4,6.83,4.31c.7,3.63-.45,6.36-3.41,8.61-8.67,6.58-18.08,11-29.28,9.68C1937.17,1288.67,1927.4,1287,1919.48,1280.25Z" transform="translate(-16.04 -437.06)"/><path class="cls-3" d="M1070.49,874.36c5.54.51,11.1,1.66,16.6,1.41,11.3-.53,20.71-5.27,27.51-14.59l14.19.72c3.31,6.19,2,10-3,13.51A46.57,46.57,0,0,1,1070.49,874.36Z" transform="translate(-16.04 -437.06)"/><path class="cls-1" d="M1082,723.74l-16-.81V682.36c12.31-.08,16.09,2.74,16.71,14.45C1083.15,705.75,1082.28,714.76,1082,723.74Z" transform="translate(-16.04 -437.06)"/><path class="cls-1" d="M1931.2,1129.68c-5.62.53-11.18.61-16.38-2.5v-38.92c12.73-.37,16.9,3.22,17.13,15.74C1932.1,1112.56,1931.48,1121.12,1931.2,1129.68Z" transform="translate(-16.04 -437.06)"/><path class="cls-3" d="M2369.67,1129.65l-16.09-.94v-40.5c12.76-.15,16.53,3.25,16.69,15.92C2370.38,1112.63,2369.89,1121.14,2369.67,1129.65Z" transform="translate(-16.04 -437.06)"/><path class="cls-2" d="M2579.73,1168.25c-6.12-.42-12.66.89-16-6.87-3.6-8.39,2-17.65,11.2-17,6.94.53,14,1.71,17.66,9C2591.63,1161.23,2586.21,1165.2,2579.73,1168.25Z" transform="translate(-16.04 -437.06)"/><path class="cls-1" d="M2292.21,803.33c10.22-.91,20.45-1.7,30.66-2.75,9.65-1,19.26-1.28,28.48,2.13,3.29,1.21,6.14,3.62,9.17,5.47-13.58,1-27.16,1.9-40.73,2.91C2309.64,811.84,2299.77,811.73,2292.21,803.33Z" transform="translate(-16.04 -437.06)"/><path class="cls-1" d="M876.16,803.38c10.18-.92,20.38-1.72,30.55-2.8,9.61-1,19.18-1.24,28.37,2.12,3.27,1.2,6.09,3.63,9.11,5.48-13.86,1-27.7,2.14-41.56,3C892.92,811.8,883.32,811.61,876.16,803.38Z" transform="translate(-16.04 -437.06)"/><path class="cls-1" d="M1747.47,803.32c10.17-.9,20.36-1.68,30.52-2.73,9.59-1,19.15-1.32,28.33,2.08,3.28,1.22,6.12,3.6,9.15,5.44-13.86,1-27.71,2.19-41.57,3.08C1764.18,811.81,1754.58,811.66,1747.47,803.32Z" transform="translate(-16.04 -437.06)"/><path class="cls-3" d="M2591.72,1252.92c9.93-4.54,11.75-9.09,9-22.66,5.91-1,11.15-.64,14.64,5.45a20.21,20.21,0,0,1,.64,20.07c-2.68,5.27-8.68,5.62-14,6C2595.82,1262.24,2593.4,1257.92,2591.72,1252.92Z" transform="translate(-16.04 -437.06)"/><path class="cls-1" d="M2121.83,1148.56c8.81-3.48,17.53-7.18,26.44-10.38,8.38-3,15.41-1.29,19.84,7.15l-21.53,7.89c-3.75,1.37-7.41,3.09-11.27,4C2127.51,1159.19,2124.58,1157.14,2121.83,1148.56Z" transform="translate(-16.04 -437.06)"/><path class="cls-1" d="M2049,1168.27l11-2.38c2.13.7,4.22,1.77,6.4,2,8.33,1.07,13.7-5.76,10.91-13.59-.71-2-1.17-4.1-1.74-6.15,9,.53,14.1,6.11,17.77,13.62,1.91,3.89,2.3,7.68-1,10.92s-7.09,4.16-11.79,2.94C2070.13,1173,2059.56,1170.71,2049,1168.27Z" transform="translate(-16.04 -437.06)"/><path class="cls-1" d="M1348.1,763.53l2.16-1.65c2.59-.08,5.33.37,7.73-.35,6.3-1.91,8.4-6.89,6-13l-2.46-6.26c9.07.24,14.27,5.75,18.26,13.14,2.08,3.85,2.86,7.54-.22,11s-7.16,4.89-11.69,3.53C1361.22,768,1354.68,765.69,1348.1,763.53Z" transform="translate(-16.04 -437.06)"/><path class="cls-3" d="M1822,757.66c4.19-9.29,3.78-17.78-4.35-24.92,9.37,1.09,15.28,7.61,21.26,13.82,2.44,2.52,2.41,14.36.54,17.35-1.77,2.82-6.7,3.76-9.62,1.4S1824.54,760.23,1822,757.66Z" transform="translate(-16.04 -437.06)"/><path class="cls-1" d="M950.72,757.68c4-9.34,3.9-17.94-4.61-25,9.54,1.26,15.82,7.64,21.78,14.26,2.67,3,2.3,13.84.07,17.1a6.6,6.6,0,0,1-9.53,1.21A102.17,102.17,0,0,1,950.72,757.68Z" transform="translate(-16.04 -437.06)"/><path class="cls-3" d="M2579.73,1168.25c6.48-3,11.9-7,12.86-14.84,5.34-.09,10.78-.13,14,5.16a9.93,9.93,0,0,1,1.42,6.23c-1,5.59-7.11,10.41-13.53,11.35C2586.72,1177.28,2583.75,1175.69,2579.73,1168.25Z" transform="translate(-16.04 -437.06)"/><path class="cls-1" d="M2367.07,757.68c4.24-9.43,3.73-18-4.71-25,9.63,1.07,15.78,7.63,21.77,14.19,2.56,2.81,2.23,14,.12,17.1a6.57,6.57,0,0,1-9.49,1.3A102.08,102.08,0,0,1,2367.07,757.68Z" transform="translate(-16.04 -437.06)"/><path class="cls-1" d="M2289.58,1193.24l.42-3.14,12,5.64,17.71-25.06-1.62,10.45c-4.37,6.87-8.74,13.74-13,20.48Z" transform="translate(-16.04 -437.06)"/><path class="cls-1" d="M2424.46,752.33c5.53-.81,11.06-2.26,16.59-2.24,5.92,0,7.19,2.09,7.52,8.47-4.55.66-9.09,1.7-13.66,1.88C2429.44,760.66,2425.17,758.59,2424.46,752.33Z" transform="translate(-16.04 -437.06)"/><path class="cls-1" d="M1857.5,1158.19c5.48-.8,11-2.26,16.46-2.23,5.71,0,7.18,2.34,7.59,8.48-5.26.59-10.51,1.57-15.77,1.65C1860.91,1166.16,1857.62,1163.59,1857.5,1158.19Z" transform="translate(-16.04 -437.06)"/><path class="cls-1" d="M1008.25,752.33c5.51-.81,11-2.25,16.54-2.24,5.72,0,7.15,2.3,7.45,8.59-4.89.6-9.77,1.62-14.67,1.71C1012.44,760.48,1008.64,758.15,1008.25,752.33Z" transform="translate(-16.04 -437.06)"/><path class="cls-1" d="M2296,1158.22c5.8-.77,11.6-2.17,17.4-2.11,4.53.05,8.34,2.44,6.52,8.34-5.21.58-10.42,1.57-15.64,1.62C2299.45,1166.12,2296.19,1163.53,2296,1158.22Z" transform="translate(-16.04 -437.06)"/><path class="cls-1" d="M1168.29,1135.84c-1.23,2.32-2.47,4.63-4.56,8.55l-3.8-8.27C1162.66,1134.33,1165.42,1133.51,1168.29,1135.84Z" transform="translate(-16.04 -437.06)"/><path class="cls-1" d="M901.65,1175.6l-9.1-4.25Z" transform="translate(-16.04 -437.06)"/><path class="cls-1" d="M1334.53,762.81l8.7-.26Z" transform="translate(-16.04 -437.06)"/><path class="cls-3" d="M2381.93,792.22l-2.23-1.93Z" transform="translate(-16.04 -437.06)"/><path class="cls-1" d="M2076.13,1148.36l-2-.51Z" transform="translate(-16.04 -437.06)"/><path class="cls-1" d="M411.63,1255.51l-1.9-1.52Z" transform="translate(-16.04 -437.06)"/><path class="cls-3" d="M739,1255.54l-1.22-1.65Z" transform="translate(-16.04 -437.06)"/><path class="cls-1" d="M1362.21,742.16l-1.49-.11A9.26,9.26,0,0,0,1362.21,742.16Z" transform="translate(-16.04 -437.06)"/><path class="cls-1" d="M2185.59,849.58,2183.7,848Z" transform="translate(-16.04 -437.06)"/><path class="cls-3" d="M1078.21,851.35l-1.14-1,.75-.55A3.17,3.17,0,0,0,1078.21,851.35Z" transform="translate(-16.04 -437.06)"/><path class="cls-3" d="M2494.53,851.35l-1.37-.84.63-.67A3.75,3.75,0,0,0,2494.53,851.35Z" transform="translate(-16.04 -437.06)"/><path class="cls-4" d="M2289.58,1193.24l15.43,8.37c4.3-6.74,8.67-13.61,13-20.48,0,14.21-.3,28.43.08,42.63a98.85,98.85,0,0,0,2.6,20.58c4,16.24,14.22,27.27,29.79,33.36,2.15.83,4.27,1.72,6.4,2.59l5.25,1.67-.24-.13c.68,1.58,1.37,3.15,2.11,4.86-49.65,8.61-80.05,50-76.38,97.16,3.1,39.85,36.4,75.14,76.92,79.92,44.36,5.22,85.46-21.17,97.38-62.48,10.27-35.6,1.22-88.76-60.14-112.49l5.28-3.27c2-1.24,4-2.43,5.9-3.76,6.24-4.38,6.22-4.4,4-14.11l-14.49-1.15c-.17-6.57-4.51-8-10-8.23-8.87-.28-17.74-.63-26.61-1-8.64-17.23-7.7-35.5-5.39-53.76,1.25-9.89,3.38-19.68,5.35-29.47,1.6-8,3.75-9.7,11.88-10.55,5.3-.55,10.66-.77,15.87-1.8,5.74-1.14,11.33-3,18.36-5,15.74,6.6,32.4,23.32,35.43,43.86,32.67-16.72,61.41-11.37,87.84,13.88,27.71,26.46,24.31,56.55,12.76,88.22,32.54,4.58,53.63,38.6,53.1,65.16-.16,8-.48,16-1.42,23.91a44.21,44.21,0,0,1-12.83,26.47c-11.11,11.17-23.23,20.91-37.61,26.07,2.95,7.32,6.89,14.05,8.38,21.28,6.19,30.24-5.68,53.68-28.27,73.22-13.12,11.36-27.59,16.74-44.91,15.18-12.29-1.1-24.37-2.75-36.1-8.72-.71,2-1.6,3.44-1.72,4.94-.9,12.24-8.23,21.28-16.4,28.88-13.78,12.83-30.36,18.86-49.75,19.92-31.64,1.72-52.54-13.06-67.78-38.73-2.69-4.53-4.67-9.5-7.41-15.17-38.7,17.29-72.36,11.44-98.46-23.8-16.6-22.42-17.44-51.15-3-75.31-9.53-6.45-19.23-12.6-28.5-19.35-16-11.63-22.79-27.67-23.41-47.33-.59-18.89,2-36.41,14-51.77,9.91-12.69,21.27-22.82,39-24.27l-6-18.91c4.64-2.15,9-4.44,13.5-6.18,6-2.31,9.14-6.42,9.08-12.81-.13-12.63,1.15-25.53-1-37.82-2.26-12.83,2.18-20.28,12.67-25.79,1.47-.77,2.95-1.48,4.43-2.22,3.93,18.32,2.47,36.91,2.87,55.41.07,3-.26,6-.11,8.94.67,13.45,4.46,16.82,17.73,15.91,4,9.33,5.86,10.48,13.71,8.45,6.55-1.69,8-3.34,8.28-10.3,1-26.9,1.07-53.77-3.7-80.41-.28-1.59-.28-3.22-.52-6.13Z" transform="translate(-16.04 -437.06)"/><path class="cls-1" d="M1528.27,1160.09c-1.1.51-2.39,1.68-3.27,1.43-10.91-3.17-21.65-1.19-32.28,1.18-12.37,2.75-19.24,13-17.35,25.54,1.23,8.17,3,16.26,4.52,24.39q3.87,20.46,7.77,40.92c-14.25.92-14.83.55-17.13-11.47-3.73-19.54-7.77-39-11-58.65-3-18.16,3.07-25.68,21.21-29.76,13-2.94,25.72-1.9,38.36,1.31C1522.34,1155.81,1525.21,1158.34,1528.27,1160.09Z" transform="translate(-16.04 -437.06)"/><path class="cls-1" d="M881.2,1188.75c-6.57,3.81-13.4,7.23-19.64,11.52-7.49,5.13-11.32,12.64-12,21.83-1,13.2,2.39,25.58,6.43,37.88-10.33-.51-16.61-6-18.86-15.91-2.42-10.6-5.82-21-3.79-32.31,1.57-8.73,5.64-15.45,12.73-20.51q3.24-2.3,6.65-4.36C864.81,1179.52,869,1179.81,881.2,1188.75Z" transform="translate(-16.04 -437.06)"/><path class="cls-3" d="M2084.48,771.72c-13.55-.25-22.91,6.51-28.06,18.42-8.88,20.5-11.89,42.09-9.78,64.36-4.9-2.59-10-4.89-14.61-7.91-1.54-1-2.65-3.87-2.61-5.87.31-19,1.92-37.86,9.19-55.64a38.3,38.3,0,0,1,9.25-13.84C2059.23,761.08,2070.6,761.59,2084.48,771.72Z" transform="translate(-16.04 -437.06)"/><path class="cls-4" d="M172.89,493.14l4.3,3.53c6.16-9.33,11.68-18.61,18.11-27.21,9.18-12.3,20.4-21.78,36.53-23.85,20.86-2.69,41.06-2.74,59.61,9.6,15,10,26,22.49,28.85,41.08,30-20.18,70.15-8.86,88.67,14.42,2.28,2.86,4.91,5.43,7.32,8.18a50.54,50.54,0,0,1,12.87,36.71c-.58,14.29-2.08,28.36-9.14,42,22.25,2.87,35.74,16.27,45.86,34-6.09,1.74-8.3,6.11-8.05,12,.47,11.21,1.18,22.42,1.46,33.64.3,12.22.23,24.45.33,36.67-4.84,3.94-9.85,7.69-14.46,11.87-4.18,3.8-8.79,5.58-14.36,5-1.41-5.71-6-7.45-11-8.11-3.81-.51-7.75,0-11.63,0,0-8.21.3-16.42.06-24.61-.36-12.69-3.79-15.83-16.89-16.14-2.85-2.57-5.29-6.37-8.63-7.49-10.54-3.54-17.44,1.3-18.67,12.55-.87,7.87-1.16,15.8-1.71,23.7-.23,3.23-.49,6.46-.81,10.7l-42.36,4.93c1.73-2.85,3.48-5.67,5.16-8.53C343.88,684.48,343.83,651,322,619.2c-21.53-31.38-53-42.93-89.89-36.44-51.46,9-83,61.33-68.79,111.76,14,49.76,67.87,77.12,116.5,59.43,14.11-5.13,25.49-14,36.23-24.07,0,3.61-.24,7.25.07,10.84.78,9,3.44,11.33,12.49,11.59,1.64,0,3.28,0,4.93-.07,1.86,6.8,3.84,8.71,10.44,8.58,4.51-.09,9-1,13.5-1.61-.47,10.2-1.11,20.4-1.36,30.61-.27,10.89-.92,21.87,0,32.68.76,8.74,3.63,17.3,5.57,25.94-14.1.19-27.82-1.59-39.84-8.09-3.22,7.51-5.25,15-9.31,21.22-14.95,22.75-36.64,33-63.69,32.11A153.43,153.43,0,0,1,230,891.87a44.47,44.47,0,0,1-25.31-13c-11-11.25-21.09-23.13-26.09-39.21-38.83,17-72.3,12.08-98.62-22.84-17-22.61-18.33-51.72-2.72-77.33-38.69-15.79-58.84-43.05-52.06-86.31,3.87-24.7,24.49-52.15,52.34-55.51a16.72,16.72,0,0,0-.84-3.43C69.8,580,69.12,564.69,69.35,549.3c.14-9.28,2.91-17.91,8.84-25C85,516.17,91.82,507.73,100,501c18.55-15.27,40.13-18.34,63.09-12.44C166.49,489.47,169.62,491.59,172.89,493.14Z" transform="translate(-16.04 -437.06)"/><path class="cls-1" d="M2167.81,1235.82c-7.81-.51-14.95,1.75-22.1,4.72-8.18,3.4-13,8.94-13.87,17.78-6.39.59-10.12-4-14.15-7.66-1.25-1.12-1.64-4.36-1-6.15.93-2.72,2.55-5.76,4.8-7.39C2133.85,1228.2,2151.35,1222.29,2167.81,1235.82Z" transform="translate(-16.04 -437.06)"/><path class="cls-1" d="M2131.68,1258l1.89,1.75Z" transform="translate(-16.04 -437.06)"/><path class="cls-1" d="M316.06,729.88c-10.74,10-22.12,18.94-36.23,24.07-48.63,17.69-102.47-9.67-116.5-59.43-14.22-50.43,17.33-102.72,68.79-111.76,36.92-6.49,68.36,5.06,89.89,36.44,21.82,31.8,21.87,65.28,2.35,98.65-1.68,2.86-3.43,5.68-5.16,8.53C318.15,727.55,317.1,728.71,316.06,729.88Zm-150.69-59.1a83.6,83.6,0,0,0,84.17,83.35c46.06-.16,83.89-38.22,83.65-84.17-.24-46.31-37.9-83.92-84-83.84C202.26,586.2,165.19,623.63,165.37,670.78Z" transform="translate(-16.04 -437.06)"/><path class="cls-3" d="M391.38,682c13.1.31,16.53,3.45,16.89,16.14.24,8.19,0,16.4-.06,24.61-5.88,2.68-11.37,1.12-16.83-.81Z" transform="translate(-16.04 -437.06)"/><path class="cls-1" d="M357.49,759.21c-4.5.57-9,1.52-13.5,1.61-6.6.13-8.58-1.78-10.44-8.58,5.42-.78,10.86-2.24,16.28-2.16C356.3,750.18,357.55,752.28,357.49,759.21Z" transform="translate(-16.04 -437.06)"/><path class="cls-1" d="M2402.53,1266.51l14.49,1.15c2.2,9.71,2.22,9.73-4,14.11-1.91,1.33-3.93,2.52-5.9,3.76l-5.28,3.27c61.36,23.73,70.41,76.89,60.14,112.49-11.92,41.31-53,67.7-97.38,62.48-40.52-4.78-73.82-40.07-76.92-79.92-3.67-47.12,26.73-88.55,76.38-97.16-.74-1.71-1.43-3.28-2.11-4.86,13,1,25.31-.55,35.64-9.4C2399.49,1270.78,2400.89,1268.5,2402.53,1266.51Zm57.86,109a83.34,83.34,0,0,0-83.54-84c-46.64-.12-84.25,36.87-84.54,83.14-.29,46.65,37.66,84.85,84.21,84.78A83.91,83.91,0,0,0,2460.39,1375.54Z" transform="translate(-16.04 -437.06)"/><path class="cls-1" d="M2362.17,1282l-5.25-1.67Z" transform="translate(-16.04 -437.06)"/><path class="cls-3" d="M1670.09,1146.7c-14.08,5.15-24.36,14.09-29.69,28.54s-9.16,29-10.31,44.34c-1.07,14.19.91,27.73,8.16,40.21-12.74-1.61-19.61-10.21-21.94-21.49a122.35,122.35,0,0,1-2-31.69c.94-15.71,5.6-30.74,12.21-45.07a40.84,40.84,0,0,1,15-17C1650.52,1138.49,1655.66,1135.79,1670.09,1146.7Z" transform="translate(-16.04 -437.06)"/><path class="cls-1" d="M1209.39,740.82c-13.44,4.79-23.53,13.09-28.9,26.73-6.61,16.79-10.88,34-11.24,52.16-.24,12.24,2.06,23.68,8.37,34.23-9.62-.8-15.55-6.63-19.68-14.71-4.5-8.81-5.52-18.4-5.25-28.07.52-18.43,5-36,11.86-53.08,4.35-10.79,12.25-17.94,22.29-23,2.19-1.1,5.34-1.9,7.48-1.17C1199.52,735.69,1204.39,738.45,1209.39,740.82Z" transform="translate(-16.04 -437.06)"/><path class="cls-1" d="M638.77,757.49c-6.17,2.63-12.4,4.14-18.95,1.46.59-8.68,9-19.39,17.1-22,6.42-2.05,17.83,1.85,22.44,7.66C649.64,744.35,644.57,751.51,638.77,757.49Z" transform="translate(-16.04 -437.06)"/><path class="cls-1" d="M748.65,1163.3c-6.14,2.83-12.39,4.12-18.94,1.6.61-8.71,9.08-19.58,17.09-22.22,6.21-2,17.83,2,22.43,7.86C759.52,1150.2,754.38,1157.22,748.65,1163.3Z" transform="translate(-16.04 -437.06)"/><path class="cls-1" d="M2195.64,757.42c-6.21,2.61-12.52,4.13-20.3,1.24.87-2.67,1.1-5.8,2.69-7.9,11.39-15.1,19.89-18.09,36.17-9.21.84.46,1,2.09,1.53,3.17C2206.16,744.4,2201.18,751.35,2195.64,757.42Z" transform="translate(-16.04 -437.06)"/><path class="cls-5" d="M2195.64,757.42c5.54-6.07,10.52-13,20.09-12.7.1,5.47-3.44,8.18-7.92,9.71C2203.87,755.76,2199.71,756.45,2195.64,757.42Z" transform="translate(-16.04 -437.06)"/><path class="cls-1" d="M421.58,1163.25c-6.21,2.6-12.49,4.28-20.26,1.23.85-2.7,1-5.89,2.65-8,11.78-15.08,19.53-18.24,36.18-9.07.82.45,1,2.1,1.46,3.19C432.07,1150.29,427.05,1157.13,421.58,1163.25Z" transform="translate(-16.04 -437.06)"/><path class="cls-5" d="M368,1235.11c-.35-3.39-.71-6.77-1.06-10.15C367.26,1228.34,367.62,1231.72,368,1235.11Z" transform="translate(-16.04 -437.06)"/><path class="cls-4" d="M428.93,757.07c9.15,22.71-.85,59.1-30.78,78.43-.57-4.55-1.61-8.64-1.49-12.7a262,262,0,0,1,1.84-26.87c1.27-9.55,3.29-19,5.35-28.43,1.69-7.71,3.62-9.13,11.33-9.83,4.3-.39,8.61-.73,12.92-1C428.36,756.6,428.65,756.91,428.93,757.07Z" transform="translate(-16.04 -437.06)"/><path class="cls-6" d="M165.37,670.78c-.18-47.15,36.89-84.58,83.85-84.66,46.07-.08,83.73,37.53,84,83.84.24,45.95-37.59,84-83.65,84.17A83.6,83.6,0,0,1,165.37,670.78Z" transform="translate(-16.04 -437.06)"/><path class="cls-6" d="M2460.39,1375.54a83.91,83.91,0,0,1-83.87,83.94c-46.55.07-84.5-38.13-84.21-84.78.29-46.27,37.9-83.26,84.54-83.14A83.34,83.34,0,0,1,2460.39,1375.54Z" transform="translate(-16.04 -437.06)"/></svg>