<svg id="Layer_1" data-name="Layer 1" xmlns="http://www.w3.org/2000/svg" viewBox="0 0 1750.03 998.28"><defs><style>.cls-1{fill:#cbe1b0;}.cls-2{fill:#f8f8f6;}.cls-3{fill:#433c28;}.cls-4{fill:#be5327;}</style></defs><path class="cls-1" d="M744.42,990.73c8.12-15.64,16.15-31.32,24.42-46.87,2.37-4.46.13-7.49-2-11-13.36-21.52-22.42-44.72-25.37-69.91-8.44-72.08,16.22-130.37,74.69-173.43,27.88-20.53,57-39.39,85.63-58.9,34-23.13,71.58-35.67,112.58-36,48.41-.44,90.62,16.3,126.05,49.58,1.92,1.8,3.91,3.54,6.46,5.85,3.21-2.61,6.36-4.92,9.24-7.54,30.59-27.77,61.08-55.55,89.46-85.72,63.16-67.14,162.12-77.35,236.56-25,11.08,7.78,20.55,17.89,30.62,27.09,1.64,1.5,2.52,3.84,4.31,6.66,9.71-9.4,18.06-17,25.83-25.09,20.54-21.5,43.95-38.56,72-49.23,105.22-40.11,222.14,26.12,241.48,137,7.31,41.91.71,81.59-19.4,119-8.51,15.84-17.47,31.45-26.19,47.19-1.92,3.45-3.69,7-5.77,10.94,2.79,2.91,5.52,5.34,7.76,8.16,8.9,11.18,18.16,22.13,26.22,33.9,4.07,5.93,8.32,10.88,14.46,14.62,15.52,9.43,28.64,21.72,40.43,35.44a29.38,29.38,0,0,1,2.56,4.18c-.62,1.5-1,3.2-1.88,4.48-21.41,29.56-26.62,62.65-19.83,97.66,3.89,20,14.32,35.81,36.09,40.75,3,1.94,5.76,4.36,9,5.71a33,33,0,0,0,29.57-1.44c9.15-5.07,17.57-11.44,26.32-17.24q24.13,104.87-53.45,179.42c-24.07,23-48.75,45.45-72.63,68.68-37.86,36.83-83.56,53.57-135.7,53.93-7.68,0-12.85,1.93-17.78,8.06-9.38,11.66-19.1,23.23-29.91,33.55-55.73,53.2-120.39,66-192.92,41.28-2.51-.86-5-1.83-8.11-3-52.91,56.33-117.31,78.17-192,55.27-74.47-22.84-114.92-77.09-127.16-154-65.17,11.54-122-4.8-169.92-52.1-3.26,1.39-6.58,2.75-9.85,4.22-112,50.22-239.67-22.07-253.78-144a193,193,0,0,1,7.42-79.09l2.79-1.75c1.29,3.29,2.58,6.58,3.76,9.57,12.46-.09,15.94-3.35,16.28-14.07C743.24,1021.88,743.86,1006.31,744.42,990.73Zm379.63-112.67c8.66,9.2,13,10.06,22.19,4.36,10.21-6.33,13.49-14.43,9.93-24.22-2.74-7.55-9.09-8.94-15.94-9.58-6.11-8.27-15-9.29-24-7.89-3.37.53-8.5,3.87-8.93,6.56-1.18,7.25-1.86,15.34.31,22.13C1109.66,875.74,1116.8,878.46,1124.05,878.06Zm174.93-.14c1,5.09,4.73,6.75,9.34,7.48,6.28,1,11.89-.71,17.07-4,6.7-4.28,9.11-11.8,7-21.2-1.92-8.59-2.89-9.33-14-10.69-.66-.07-1.3-.26-2-.39-1.38-2.64-2.42-5.55-4.22-7.87-3.66-4.68-8.44-7.45-14.7-6.54-12.64,1.83-18.29,9.57-17.52,24.43C1280.77,873,1287,879,1299,877.92Zm17.44,43.31c-.57-1.2-1.19-2.38-1.7-3.61-1.79-4.41-5.13-5.78-9.63-5.16s-5.86,4.06-6.47,7.78c-.48,2.93-.29,6-.5,9-2.43,34,4.57,67.66,4.19,101.63-.11,10,4.67,13.24,15.7,12.76,3.09,4.65,5.57,10.16,13,7.9,6-1.83,6.92-3.27,7.21-13.09.34-11.56.62-23.13.92-34.7.94,3,2.45,6,2.7,9,.42,5.3-.18,10.67.1,16,.64,12.34,4.24,15.12,16.17,13,1.73,3.77,2,8.61,7.86,9,7.38.5,11.16-3.14,11.71-11,1.28-18.22,2.21-36.49,4.41-54.6a165.81,165.81,0,0,1,16.38-55.14c5.29-10.46,12.82-18.41,24-22.49,2.25,2.2,5.28,4,6.6,6.69a98.46,98.46,0,0,1,6.8,17.53c4.1,15,6.85,30.29,6,46-.81,15.5-1.29,31-1.67,46.52a51.65,51.65,0,0,0,1.16,13.73c1.43,5.64,3.85,6.63,9.7,5.39a38.75,38.75,0,0,0,4.68-1.63c.61,1.9,1.3,3.78,1.81,5.71,1.27,4.74,4.65,5.19,8.6,4.18,6.07-1.54,9.65-5.82,9.67-12,.07-25,.54-50-.18-74.93-.47-16.32-3.09-32.55-10.18-47.57-6-12.77-14.66-23-29-26.84-7.49-5-15.37-8.87-24.39-10.64-16.8-3.29-31.59,3.39-40.15,18.45-1.89,3.33-4.74,6.13-7.15,9.17l-6.83.89a16.32,16.32,0,0,1-2-2.21c-3.17-5.22-7.76-7.29-13.55-5.47-6.06,1.92-6.24,7.44-6,12.36.84,16.53,1.28,33.14,3.4,49.52a134.52,134.52,0,0,1-.73,41.35c-1.73-20.4-3.43-40.82-5.22-61.22a62.11,62.11,0,0,0-1.65-10.72C1329,919.91,1328.68,919.77,1316.42,921.23Zm-175.87.1c-.46-1.24-.86-2.51-1.38-3.72-1.85-4.29-5.28-5.68-9.7-5.19-5.09.56-6.22,4.46-6.83,8.49a47.56,47.56,0,0,0-.4,8.93c1.31,33.74,2.56,67.48,4.11,101.21.45,9.86,4.88,13,15.92,12.57.55.82,1.15,1.61,1.62,2.46,2.51,4.54,5.88,7,11.38,5.4,5.7-1.69,6.84-3.28,7.18-11.15.45-10.27.84-20.53,1.26-30.8.8,1.75,2,3.43,2.34,5.27,2.08,11.17,6.91,19.3,19.87,19,2,2,3.68,5.25,5.94,5.68a82.9,82.9,0,0,0,18.67,1.43c13.12-.54,24-6.79,33.84-14.92,3.37,14.21,2,28.45-.64,42.46-6.2,32.26-24,57.57-60.3,62.66-11,1.55-22.43,3-32.49-4.25.45-3.15.52-6.43,1.44-9.44,1.35-4.4,1.12-8.57-1.88-11.87-3.16-3.5-7.14-1.87-10.81-.31a16.56,16.56,0,0,1-1.86.54c-1.11-4.52-1.74-9.43-8-9.81-4.48-.27-10.26,2.59-11.36,6.46-2.66,9.33-4,18.52.49,28.06,5.26,11.18,14.51,15.77,25.64,18.18,4.13,2.42,8,5.79,12.46,7.11,16.2,4.8,32.74,4.59,49.45,2.46,24-3.08,42.65-14.59,55.37-35,10.7-17.15,18-35.59,17.37-56.38a47.33,47.33,0,0,1,.87-9.93c3.68-19.54,2.68-39,.2-58.62-2.39-18.8-4.17-37.68-6.47-56.49a69.08,69.08,0,0,0-3.47-15.5c-3.48-9.36-10.09-15.44-20.48-16.5-11.36-10.74-25.79-12.94-40-11.25-14.53,1.72-26.86,8.49-32.68,24-5,13.47-9.22,27.07-11.13,41.28-1.41,10.49-2,21.08-3,31.61-1.24-17.46-6.17-34.54-5.16-52.26a38.63,38.63,0,0,0-1.54-11.7C1153.35,919.92,1152.75,919.66,1140.55,921.33Zm-50.19-.94c-4.32-7.84-12.53-7.8-19.76-9.86-13.81-3.94-27.14-2.25-39.63,4.2-6.29,3.24-11,4.23-17.08-.71-6.52-5.27-13.12-2-14,6.15-1,9.55-1.47,19.16-2.17,28.74-1.29-3.38-2.62-6.74-3.85-10.14-4-11-9.07-21.49-17-30.32-4.7-5.25-9.83-10-17.1-11.51-.9-.27-2.06-.28-2.67-.86-9.48-9-20.93-9.11-32.72-7.15-15.87,2.64-25.46,13.46-33.07,26.42a111.48,111.48,0,0,0-14.86,46.15c-1.72,18.19-2.22,36.55,5.09,54,6.27,15,16.32,25.65,32.91,28.86,10,9.63,22,10.69,34.11,6,21.6-8.46,37.8-22.9,46.19-45.2,4-10.74,5.18-21.86,5.59-33.16.43.88,1.19,1.74,1.25,2.64.92,13.83,1.68,27.67,2.64,41.49.32,4.6,1.1,9.16,1.62,13.75.49,4.31,3.4,6.35,7.17,7.17,2.54.55,5.23.37,7.85.53,3.53,6.23,7.13,8.32,12.32,7.17,4.78-1.06,6.71-4.27,6.6-11.76,0-3.64-.61-7.27-1-10.89a168.41,168.41,0,0,1,1.74-51.54c4.18-21.46,13.79-29.71,35.64-32.39,3.6-.45,5.86.33,8.86,2.43,6.47,4.52,13.59,8.43,21.85,4.4C1110.32,928.45,1105.48,921.42,1090.36,920.39Zm542.22,55.77c7.14,7.6,16.13,8.31,25.67,6.88,13.09-2,26.15-4.42,39.4-1.25,9,3.8,8.46,11.22,6.94,18.17-3.17,14.57-29.63,29.61-47.49,20.72a117.82,117.82,0,0,0-17.49-7c-3.86-1.19-8.12-1.09-12.25-1.58-2.75,8.48-1.33,14.81,4.77,18.93,5.35,3.61,11.59,5.91,17.43,8.78,7.44,7.21,17.42,7.57,26.67,9.75,21.73,5.13,39.06-3,53.81-18.42,7.21-7.55,10.71-16.7,11.31-27,1.16-20-8.29-35.57-25.27-41.67-6.2-4.72-13-7.94-20.87-8.67-7.59-.71-15.18-1.74-22.78-1.77-9.93,0-19.86.78-29.8,1.22,2.59-13.56,11.64-21.24,24.08-25,5.9-1.78,12.36-1.71,18.56-2.48,2.22,1.78,4.73,3.31,6.61,5.41,3,3.4,6.54,5,11,4.4a39.07,39.07,0,0,1,4.66,3.57c2.64,2.73,5.11,5.11,9.41,3.09s4.61-5.71,5.1-9.83c1.06-9-7.93-18.33-20.37-20.41-7.18-6.36-15.55-10.32-25.13-10.6-9.9-.3-19.85-.14-29.73.54-17.54,1.2-29.68,10.51-36.85,26.36C1600.45,949.4,1609.88,972.54,1632.58,976.16Zm192.83-74.22c.15-6.89.33-13.78.45-20.68.27-16,.26-16-15.58-18.43-1.76-7.51-8.28-6.73-13.62-7.45-7.42-1-10.46,1.74-10.67,9.22-.19,7,.23,14-.06,20.94-.55,13.54-3.33,15.86-16.69,16.6a170.79,170.79,0,0,0-22.63,3c-3.92.75-7.58,2.73-7.62,7.84-.08,10.54,3.9,14.75,14.5,15.17,1,0,2,.13,3,.2.62,5.42,3.37,8.14,9.1,7.75,4.23-.29,8.49-.1,12.74-.12-.06,4.3.48,8.7-.28,12.87-3,16.49-1.4,32.93,0,49.38,1.57,18,9.33,39.9,31.88,43.63,3,2,5.68,5,8.91,5.71a231.25,231.25,0,0,0,27.34,4.27c10.06,1,17.87-4,24-11.51a8.94,8.94,0,0,0,1.45-6.95c-.38-1.4-3.34-2.67-5.3-3-3.23-.47-6.58-.11-9.89-.09.29-5.68-2-8.45-8.09-8.23-8.2.29-16.43-.07-24.64-.14a52.65,52.65,0,0,1-7.85-25.41c-.81-18.79,3.31-36.88,7.62-55,1.43-6,4.74-7.74,10.66-7.75a134.64,134.64,0,0,0,21.73-2.13c2.6-.44,6.64-2.6,6.94-4.47a32.38,32.38,0,0,0-.81-14.46c-1.38-4.35-6.28-2.3-9.74-2.57a29.46,29.46,0,0,0-4,.18c-2.53-8-2.53-8-9.87-8.23C1834.06,902,1829.73,902,1825.41,901.94Z" transform="translate(-486.31 -479.39)"/><path class="cls-2" d="M2188.23,979.52c2.51-22,4.79-44.06,7.62-66,1.08-8.43,3.39-16.7,5.1-24.84,8.7-1.33,14.18,1.39,18.11,7.59.28,5.29,2,11,.55,15.79-4.48,14.25-4.43,28.88-5.73,43.43-1,11.59-2.49,23.14-4.08,34.67-3.16,23.07-6.86,46.07-9.76,69.18-4.3,34.35-8,68.77-12.26,103.13-.45,3.61-3,7-4.57,10.44-1,.21-1.94.5-2.93.62-10.87,1.34-12.42,0-12.71-10.58-.43-15.75,2.68-31,5.52-46.42,3.54-19.25,6.25-38.66,9.1-58,1.92-13.09-.93-25.2-8.92-35.82-17.46-23.23-30.36-49.16-44.43-74.41-5-9-10.83-17.5-16.54-26.07-4.43-6.65-8.79-13.26-9.69-21.32,10.18-11.68,15.29-11.78,25.8-.7,2.87,5.54,5.47,11.25,8.68,16.6,12.9,21.54,28.16,41.68,38.69,64.66,1.92,4.2,4.44,8.17,9.74,9.44a33.08,33.08,0,0,0,2.35-5.45A31.77,31.77,0,0,0,2188.23,979.52Z" transform="translate(-486.31 -479.39)"/><path class="cls-2" d="M722.71,1042l-2.79,1.75H711c-4.13-6.55-4.8-13.59-3.49-20.42,3-15.56,1.88-31,1.14-46.67-.67-14.32-1.14-28.54-5-42.4-2.91-10.5-5.06-21.45-14.39-28.75-10-8.39-13.26-8.43-23.5-2.2-7.14,4.34-11.9,10.43-15.71,17.56a145.64,145.64,0,0,0-16,50c-2.63,20.06-3.85,40.29-5.9,60.43-.35,3.43-1.78,6.74-2.72,10.11-2.28.42-4.55,1-6.85,1.25-4.33.5-7.22-1.66-8-5.73a125.07,125.07,0,0,1-2-15.69c-.36-5.28-.05-10.6-.3-15.89q-2.09-45.24-4.29-90.48c-.09-2,0-4,.11-6,.09-3.4.26-6.81,4.2-8.18s7.92-1.67,11.2,1.47a68.3,68.3,0,0,1,5.11,6.09l3.31,6.69,4.77-6.63c2.77-4.49,5.62-8.93,8.29-13.48,7.28-12.4,19.39-15.57,32.27-15.62,11.93-.05,22.49,5,31.58,12.8,8.1,9.07,14,19.43,16.63,31.26,2.1,9.35,4.32,18.89,4.57,28.4.71,26.83.57,53.68.38,80.53C726.39,1035.46,724,1038.71,722.71,1042Z" transform="translate(-486.31 -479.39)"/><path class="cls-2" d="M512.48,918.68l-11.45,2c-6.3-10.41-5.36-17.07,4.08-23,5-3.1,10.76-6,16.43-6.55a190.76,190.76,0,0,1,34.62-.71c4.69.36,9.05,4.94,13.55,7.6,4,11.22,8.67,22.28,12,33.71,2.67,9.23,4.1,18.87,5.47,28.41,3,20.82,4.17,41.74,2.1,62.77-.58,5.92-3.15,9.4-8.93,11.66-21.12,8.26-42.72,12.52-65.43,9.74-9.46-2.19-16.75-7.41-23-14.9-3.9-4.68-6.16-9.26-5.47-15.3.5-4.29.7-8.62,1.32-12.89,1.59-10.86,7.74-18.27,17.88-22.16,14.68-5.62,29.58-7.68,44.85-2.1,4,1.47,8.22,2.48,12.26,3.68,5.25-11.24,1.6-46.82-6.2-63.3-3.65-7.26-9.95-9.44-17.19-7.52C530.25,912.27,521.42,915.69,512.48,918.68Zm11.06,104.92c15.17,5.74,27.47.51,39.72-10.16l-7.89-11.64c-14.41-14.31-33.8-7.59-45,3.1-5.35,5.1-3.73,11.63,3.09,15.1C516.62,1021.6,520.17,1022.42,523.54,1023.6Z" transform="translate(-486.31 -479.39)"/><path class="cls-2" d="M1910.78,1044.46c-21.77-4.94-32.2-20.73-36.09-40.75-6.79-35-1.58-68.1,19.83-97.66.92-1.28,1.26-3,1.88-4.48,2.24-1.38,4.58-2.61,6.68-4.17,17.19-12.73,35.9-12.62,52.57.39,1.6,2.11,3.28,4.15,4.77,6.33,19.46,28.57,26.16,59.46,15,92.74C1966,1025,1937.81,1045.16,1910.78,1044.46ZM1944.31,919c-13-12.55-16.73-9.49-27.5-2.18-5.5,3.74-9.73,10-13.21,15.93A93.07,93.07,0,0,0,1891,978.5c-.18,9.17.67,18.83,3.52,27.46,3.13,9.48,9.85,17.11,21.29,17.89,20.73-.76,37.24-18.41,40.68-38.12C1967.16,970.2,1963.25,933.82,1944.31,919Z" transform="translate(-486.31 -479.39)"/><path class="cls-3" d="M2183.21,1172.88c1.57-3.48,4.12-6.83,4.57-10.44,4.27-34.36,8-68.78,12.26-103.13,2.9-23.11,6.6-46.11,9.76-69.18,1.59-11.53,3-23.08,4.08-34.67,1.3-14.55,1.25-29.18,5.73-43.43,1.49-4.74-.27-10.5-.55-15.79,12.68.55,16.79,4.56,17.13,16.74,0,1.66.37,3.45-.11,5-6.61,20.89-4.49,42.8-7.65,64.08-2.09,14.11-5.16,28.08-7,42.21-2.84,21.71-4.89,43.52-7.48,65.27-3.26,27.34-6.61,54.68-10.28,82-.44,3.21-2.44,7.21-5,8.94C2191.39,1185.32,2185.39,1182.07,2183.21,1172.88Z" transform="translate(-486.31 -479.39)"/><path class="cls-2" d="M2017.7,1035.94c-12.24,2.39-15.46.33-15.83-11.87-.48-15.63-.36-31.27-4.25-46.57l-2.19-23c-.42-2.55-.85-5.1-1.27-7.65l.27.09c.56-8.23,1-16.46,1.72-24.68.29-3.52-.47-7.81,3.78-9.53s8.21-1.45,11.77,2.37c4,4.22,8.28,4.14,13.21.57,9-6.53,19.34-8.49,30.32-6.71,5.57.9,11.09,2.15,16.69,2.79a22.28,22.28,0,0,1,15.19,8.37c3.39,5.68,2,11.36.53,16.8-7.49,3.59-13.58.6-19.21-2.94-14.07-8.85-37.66-.07-43.12,16a116.88,116.88,0,0,0-5.28,21.11c-2.14,15.13-2.7,30.33-.28,45.58C2020.78,1023.11,2021.83,1029.89,2017.7,1035.94Z" transform="translate(-486.31 -479.39)"/><path class="cls-3" d="M514.9,1044.35c22.71,2.78,44.31-1.48,65.43-9.74,5.78-2.26,8.35-5.74,8.93-11.66,2.07-21,.89-42-2.1-62.77-1.37-9.54-2.8-19.18-5.47-28.41-3.31-11.43-7.93-22.49-12-33.71,10.52.3,16.74,7,19.8,15.72a325.35,325.35,0,0,1,11.69,41.16c4.69,22.53,5.88,45.47,4.79,68.48-.17,3.64-.31,7.43-1.44,10.82-.85,2.56-2.77,5.71-5,6.71-22.55,10-45.86,16.15-70.66,10.54C523.91,1050.37,519.53,1046.79,514.9,1044.35Z" transform="translate(-486.31 -479.39)"/><path class="cls-3" d="M1994.43,947l-.27-.09c.42,2.55.85,5.1,1.27,7.65l2.19,23c-1,5.8-1.85,11.65-3.09,17.41-3,13.87-9.92,25.76-18.87,36.58-8.75,5.8-17.17,12.17-26.32,17.24a33,33,0,0,1-29.57,1.44c-3.23-1.35-6-3.77-9-5.71,27,.7,55.24-19.44,64.66-47.6,11.14-33.28,4.44-64.17-15-92.74-1.49-2.18-3.17-4.22-4.77-6.33,6-.6,10,3,13.92,6.62,9.88,9,15.59,20.55,20.43,32.68C1991.33,940.44,1992.94,943.67,1994.43,947Z" transform="translate(-486.31 -479.39)"/><path class="cls-3" d="M625.45,1041.38c.94-3.37,2.37-6.68,2.72-10.11,2.05-20.14,3.27-40.37,5.9-60.43a145.64,145.64,0,0,1,16-50c3.81-7.13,8.57-13.22,15.71-17.56,10.24-6.23,13.47-6.19,23.5,2.2-.68.73-1.23,1.72-2.06,2.15-18.33,9.42-25,27-30.78,44.86-6.54,20.37-9.54,41.48-10.63,62.85-.45,8.65-1.28,17.28-1.47,25.92-.11,5.25-2.26,8.06-7.36,8.9-5.88,1-8.46-.32-10.88-5.86A13.91,13.91,0,0,1,625.45,1041.38Z" transform="translate(-486.31 -479.39)"/><path class="cls-3" d="M2017.7,1035.94c4.13-6,3.08-12.83,2-19.28-2.42-15.25-1.86-30.45.28-45.58a116.88,116.88,0,0,1,5.28-21.11c5.46-16.05,29.05-24.83,43.12-16,5.63,3.54,11.72,6.53,19.21,2.94,1.46-5.44,2.86-11.12-.53-16.8,12.87,1.18,20.2,9.11,18.11,19.59-1.12,5.64-4.27,8.26-9.85,7-4.15-.9-8.14-2.81-12-4.64a31.39,31.39,0,0,0-41.84,15.54c-6,13.37-6.33,27.77-7,42-.43,8.55,1,17.18,1.51,25.78.16,2.65.34,5.31.32,8-.09,7.56-2,10.63-6.85,11.56C2023.85,1046,2020.06,1043.08,2017.7,1035.94Z" transform="translate(-486.31 -479.39)"/><path class="cls-3" d="M722.71,1042c1.29-3.26,3.68-6.51,3.71-9.78.19-26.85.33-53.7-.38-80.53-.25-9.51-2.47-19-4.57-28.4-2.66-11.83-8.53-22.19-16.63-31.26,9.07-.09,14.38,6.18,19.54,12.11a56.39,56.39,0,0,1,13.26,27.5c2.6,15,4.14,30.13,6,45.23.56,4.59.57,9.25.83,13.88-.57,15.59-1.19,31.16-1.68,46.75-.34,10.72-3.82,14-16.28,14.07C725.29,1048.55,724,1045.26,722.71,1042Z" transform="translate(-486.31 -479.39)"/><path class="cls-3" d="M2188.23,979.52a31.77,31.77,0,0,1-.36,5.88,33.08,33.08,0,0,1-2.35,5.45c-5.3-1.27-7.82-5.24-9.74-9.44-10.53-23-25.79-43.12-38.69-64.66-3.21-5.35-5.81-11.06-8.68-16.6,7.93-.58,12.75,3.36,16.78,10C2159.29,933.42,2173.85,956.42,2188.23,979.52Z" transform="translate(-486.31 -479.39)"/><path class="cls-3" d="M512.48,918.68c8.94-3,17.77-6.41,26.87-8.82,7.24-1.92,13.54.26,17.19,7.52L535,924.14c-3.13,1-6.24,2-9.4,2.89C517.54,929.26,513.34,929.44,512.48,918.68Z" transform="translate(-486.31 -479.39)"/><path class="cls-3" d="M632.7,908.3l-4.77,6.63-3.31-6.69Z" transform="translate(-486.31 -479.39)"/><path class="cls-2" d="M1185.92,1033.85c-13,.25-17.79-7.88-19.87-19-.34-1.84-1.54-3.52-2.34-5.26q-.3-7-.61-14c1-10.55,1.61-21.14,3-31.63,1.91-14.21,6.08-27.81,11.13-41.28,5.82-15.55,18.15-22.32,32.68-24,14.22-1.69,28.65.51,40,11.25,5.21,7.63,7.27,16.19,8.17,25.29,1.8,18.2,4.48,36.32,5.93,54.53,1.26,15.88,1.69,31.85,1.74,47.78,0,7.58-2.52,15.17-2.48,22.75.1,20.43-7,38.48-17.51,55.33-10.07,16.08-24.22,27.49-42.86,32.14-19.26,4.81-38.78,5.62-58.29,1-11.13-2.41-20.38-7-25.64-18.18-4.49-9.54-3.15-18.73-.49-28.06,1.1-3.87,6.88-6.73,11.36-6.46,6.22.38,6.85,5.29,8,9.81-1.08,3.13-2.5,6.2-3.12,9.42-.33,1.7.13,4.63,1.27,5.35,4.59,2.89,8.76,7.16,15,6.31,10.06,7.21,21.47,5.8,32.49,4.25,36.33-5.09,54.1-30.4,60.3-62.66,2.68-14,4-28.25.64-42.46a37.9,37.9,0,0,0-3.82-21.57c-2.83,2.69-5.29,4.51-7.1,6.84-9.16,11.76-20.75,19.29-35.73,21.16C1193.79,1033,1189.85,1033.39,1185.92,1033.85Zm42.37-108c-8.06-9.82-14-10.53-24.31-4-6.9,4.39-10.75,10.64-13.25,18-7.32,21.38-8.41,43.44-6.29,65.7.94,9.89,7,12.1,15.86,6.5,11.62-3.74,18.93-12.24,23.85-22.76,7.9-16.93,10.36-35,9.64-53.56C1233.62,931.41,1232.41,927.86,1228.29,925.84Z" transform="translate(-486.31 -479.39)"/><path class="cls-2" d="M1339.12,1003.67a134.59,134.59,0,0,0,.73-41.36c-2.12-16.38-2.56-33-3.4-49.52-.25-4.92-.07-10.44,6-12.36,5.79-1.82,10.38.25,13.55,5.47a16.32,16.32,0,0,0,2,2.21l2.74,6.51a46.4,46.4,0,0,0,4.38-4.81c.38-.54-.16-1.71-.29-2.59,2.41-3,5.26-5.84,7.15-9.17,8.56-15.06,23.35-21.74,40.15-18.45,9,1.77,16.9,5.62,24.39,10.64,9.44,10.21,16,22.06,18.8,35.64,2.08,10,4.1,20.3,4.35,30.51.63,25.22.1,50.48.37,75.72,0,4.19-2,6.78-4.22,9.6a38.75,38.75,0,0,1-4.68,1.63c-5.85,1.24-8.27.25-9.7-5.39a51.65,51.65,0,0,1-1.16-13.73c.38-15.51.86-31,1.67-46.52.83-15.75-1.92-31-6-46a98.46,98.46,0,0,0-6.8-17.53c-1.32-2.66-4.35-4.49-6.61-6.69-3.69-6.66-12.47-10.87-17.75-7.81-7.47,4.32-14.64,9-19.21,17A149.21,149.21,0,0,0,1370,956.46c-5.9,24.42-8,49.27-8.42,74.31-.06,4,.14,8-3.51,10.88-11.93,2.16-15.53-.62-16.17-13-.28-5.31.32-10.68-.1-16-.25-3.05-1.76-6-2.7-9Z" transform="translate(-486.31 -479.39)"/><path class="cls-2" d="M1809.94,1041.87c-22.55-3.73-30.31-25.62-31.88-43.63-1.42-16.45-3-32.89,0-49.38.76-4.17.22-8.57.28-12.87.17-2.68.34-5.36.59-9.15l-22.43,1.52c-1-.07-2-.17-3-.2-10.6-.42-14.58-4.63-14.5-15.17,0-5.11,3.7-7.09,7.62-7.84a170.79,170.79,0,0,1,22.63-3c13.36-.74,16.14-3.06,16.69-16.6.29-7-.13-14,.06-20.94.21-7.48,3.25-10.23,10.67-9.22,5.34.72,11.86-.06,13.62,7.45,0,12.73-2.48,25.5.12,39.11h15c4.32.07,8.65.1,13,.22,7.34.2,7.34.22,9.87,8.23-1,12.16-1,12.28-13.22,14.19a122.89,122.89,0,0,1-14.86,1.25c-10.29.32-11.18,0-13.36,10.37-3.13,14.86-5.21,30-7,45.07a48.59,48.59,0,0,0,4.28,26.25c3.86,8.28,9.66,14.2,19.55,14.45,8.21.07,16.44.43,24.64.14,6.12-.22,8.38,2.55,8.09,8.23-9.59,12.05-21.72,16.17-36.71,12.14C1816.61,1041.65,1813.2,1042,1809.94,1041.87Z" transform="translate(-486.31 -479.39)"/><path class="cls-2" d="M1642.63,953.21c9.94-.44,19.87-1.26,29.8-1.22,7.6,0,15.19,1.06,22.78,1.77,7.83.73,14.67,4,20.87,8.67.88,2.1,1.62,4.26,2.64,6.28,8.27,16.44,10.47,33.31-.6,48.94-11.91,16.8-28.14,26.93-49.9,24.76-6.24-.62-12.44-1.73-18.66-2.62-5.84-2.87-12.08-5.17-17.43-8.78-6.1-4.12-7.52-10.45-4.77-18.93,4.13.49,8.39.39,12.25,1.58a117.82,117.82,0,0,1,17.49,7c17.86,8.89,44.32-6.15,47.49-20.72,1.52-7,2.1-14.37-6.94-18.17-11.79-8.95-25.26-10.78-39.46-9.12-8.56,1-17.07,2.32-25.61,3.49-22.7-3.62-32.13-26.76-22.57-47.89,7.17-15.85,19.31-25.16,36.85-26.36,9.88-.68,19.83-.84,29.73-.54,9.58.28,18,4.24,25.13,10.6,4.13,7.67,5.8,15.46,1.2,23.58-4.5.57-8-1-11-4.4-1.88-2.1-4.39-3.63-6.61-5.41-11.56-11-25-8.94-38-4.3-11.88,4.24-19.54,13-21.09,26.07C1630.75,953,1636.89,952.53,1642.63,953.21Z" transform="translate(-486.31 -479.39)"/><path class="cls-2" d="M914.52,1044.39c-16.59-3.21-26.64-13.86-32.91-28.86-7.31-17.48-6.81-35.84-5.09-54a111.48,111.48,0,0,1,14.86-46.15c7.61-13,17.2-23.78,33.07-26.42,11.79-2,23.24-1.84,32.72,7.15.61.58,1.77.59,2.67.86.76,1.73,1.19,3.73,2.33,5.15C971.58,913.7,977.4,927,980.9,941.4c5.91,24.21,5.14,48.06-9,69.23C958.55,1030.73,940.77,1045.25,914.52,1044.39ZM947,919.68c-6.08-8.76-11.68-10.33-20.69-6.55-8.13,3.41-13.63,9.48-17.87,16.76a103.24,103.24,0,0,0-14.24,58.31,56.11,56.11,0,0,0,3.77,18.41c3.78,9.07,10,16.34,20.82,17.47a37.72,37.72,0,0,0,22.11-8.07c20.89-16.26,36.74-59.43,12.7-90.7C951.86,923.06,949.2,921.54,947,919.68Z" transform="translate(-486.31 -479.39)"/><path class="cls-3" d="M1144.64,1148.72c19.51,4.59,39,3.78,58.29-1,18.64-4.65,32.79-16.06,42.86-32.14,10.55-16.85,17.61-34.9,17.51-55.33,0-7.58,2.5-15.17,2.48-22.75,0-15.93-.48-31.9-1.74-47.78-1.45-18.21-4.13-36.33-5.93-54.53-.9-9.1-3-17.66-8.17-25.29,10.39,1.06,17,7.14,20.48,16.5a69.08,69.08,0,0,1,3.47,15.5c2.3,18.81,4.08,37.69,6.47,56.49,2.48,19.58,3.48,39.08-.2,58.62a47.33,47.33,0,0,0-.87,9.93c.62,20.79-6.67,39.23-17.37,56.38-12.72,20.41-31.33,31.92-55.37,35-16.71,2.13-33.25,2.34-49.45-2.46C1152.63,1154.51,1148.77,1151.14,1144.64,1148.72Z" transform="translate(-486.31 -479.39)"/><path class="cls-2" d="M997.76,948.91c.7-9.58,1.19-19.19,2.17-28.74.84-8.15,7.44-11.42,14-6.15,6.12,4.94,10.79,4,17.08.71,12.49-6.45,25.82-8.14,39.63-4.2,7.23,2.06,15.44,2,19.76,9.86,3.53,5.3,1.63,10.79,1,16.25-6.23,3.09-11.55,2.67-17.07-1.06-12-8.15-24.09-6.12-35.49,1.39-9.7,6.39-12.75,16.84-14.58,27.43a164.35,164.35,0,0,0-1,52.7c1,7.09,1,13.92-2.31,20.47-2.62-.16-5.31,0-7.85-.53-3.77-.82-6.68-2.86-7.17-7.17-.52-4.59-1.3-9.15-1.62-13.75-1-13.82-1.72-27.66-2.64-41.49-.06-.9-.82-1.76-1.25-2.64l-1-13.13c-.42-2.4-.85-4.81-1.27-7.21Z" transform="translate(-486.31 -479.39)"/><path class="cls-3" d="M997.76,948.91l.42,2.75c.42,2.4.85,4.8,1.27,7.2l1,13.13c-.41,11.3-1.54,22.42-5.59,33.16-8.39,22.3-24.59,36.74-46.19,45.2-12.09,4.73-24.08,3.67-34.11-6,26.25.86,44-13.66,57.41-33.76,14.11-21.17,14.88-45,9-69.23-3.5-14.38-9.32-27.7-18.73-39.31-1.14-1.42-1.57-3.42-2.33-5.15,7.27,1.5,12.4,6.26,17.1,11.51,7.9,8.83,13,19.28,17,30.32C995.14,942.17,996.47,945.53,997.76,948.91Z" transform="translate(-486.31 -479.39)"/><path class="cls-3" d="M1358.09,1041.65c3.65-2.83,3.45-6.83,3.51-10.88.37-25,2.52-49.89,8.42-74.31a149.21,149.21,0,0,1,15.49-39.86c4.57-8,11.74-12.65,19.21-17,5.28-3.06,14.06,1.15,17.75,7.81-11.2,4.08-18.73,12-24,22.49a165.81,165.81,0,0,0-16.38,55.14c-2.2,18.11-3.13,36.38-4.41,54.6-.55,7.85-4.33,11.49-11.71,11C1360.12,1050.26,1359.82,1045.42,1358.09,1041.65Z" transform="translate(-486.31 -479.39)"/><path class="cls-3" d="M1020.94,1037.57c3.27-6.55,3.36-13.38,2.31-20.47a164.35,164.35,0,0,1,1-52.7c1.83-10.59,4.88-21,14.58-27.43,11.4-7.51,23.44-9.54,35.49-1.39,5.52,3.73,10.84,4.15,17.07,1.06.6-5.46,2.5-10.95-1-16.25,15.12,1,20,8.06,16.57,24.6-8.26,4-15.38.12-21.85-4.4-3-2.1-5.26-2.88-8.86-2.43-21.85,2.68-31.46,10.93-35.64,32.39a168.41,168.41,0,0,0-1.74,51.54c.41,3.62,1,7.25,1,10.89.11,7.49-1.82,10.7-6.6,11.76C1028.07,1045.89,1024.47,1043.8,1020.94,1037.57Z" transform="translate(-486.31 -479.39)"/><path class="cls-2" d="M1142.27,1043.62c-11,.44-15.47-2.71-15.92-12.57-1.55-33.73-2.8-67.47-4.11-101.21a47.56,47.56,0,0,1,.4-8.93c.61-4,1.74-7.93,6.83-8.49,4.42-.49,7.85.9,9.7,5.19.52,1.21.92,2.48,1.38,3.72.46,6.88,1,13.76,1.35,20.65.22,4-.25,8,.5,11.89,5.16,26.55,5,53.33,4,80.18A13.16,13.16,0,0,1,1142.27,1043.62Z" transform="translate(-486.31 -479.39)"/><path class="cls-2" d="M1318,1043.59c-11,.48-15.81-2.74-15.7-12.76.38-34-6.62-67.6-4.19-101.63.21-3,0-6,.5-9,.61-3.72,1.91-7.14,6.47-7.78s7.84.75,9.63,5.16c.51,1.23,1.13,2.41,1.7,3.61q.66,11.32,1.3,22.67c.2,3.63-.1,7.36.61,10.9,5.2,26.25,4.44,52.75,3.92,79.28A12.69,12.69,0,0,1,1318,1043.59Z" transform="translate(-486.31 -479.39)"/><path class="cls-3" d="M1455.77,1041.71c2.25-2.82,4.26-5.41,4.22-9.6-.27-25.24.26-50.5-.37-75.72-.25-10.21-2.27-20.46-4.35-30.51-2.8-13.58-9.36-25.43-18.8-35.64,14.36,3.87,23,14.07,29,26.84,7.09,15,9.71,31.25,10.18,47.57.72,25,.25,50,.18,74.93,0,6.2-3.6,10.48-9.67,12-4,1-7.33.56-8.6-4.18C1457.07,1045.49,1456.38,1043.61,1455.77,1041.71Z" transform="translate(-486.31 -479.39)"/><path class="cls-3" d="M1142.27,1043.62a13.16,13.16,0,0,0,4.18-9.57c.94-26.85,1.11-53.63-4-80.18-.75-3.85-.28-7.92-.5-11.89-.4-6.89-.89-13.77-1.35-20.65,12.2-1.67,12.8-1.41,15.85,10.26a38.63,38.63,0,0,1,1.54,11.7c-1,17.72,3.92,34.8,5.16,52.27.2,4.67.41,9.32.61,14-.42,10.26-.81,20.52-1.26,30.79-.34,7.87-1.48,9.46-7.18,11.15-5.5,1.64-8.87-.86-11.38-5.4C1143.42,1045.23,1142.82,1044.44,1142.27,1043.62Z" transform="translate(-486.31 -479.39)"/><path class="cls-3" d="M1318,1043.59a12.69,12.69,0,0,0,4.24-9.51c.52-26.53,1.28-53-3.92-79.28-.71-3.54-.41-7.27-.61-10.9q-.63-11.34-1.3-22.67c12.26-1.46,12.61-1.32,15.83,10.49a62.11,62.11,0,0,1,1.65,10.72c1.79,20.4,3.49,40.82,5.22,61.23v0c-.3,11.56-.58,23.13-.92,34.69-.29,9.82-1.23,11.26-7.21,13.09C1323.58,1053.75,1321.1,1048.24,1318,1043.59Z" transform="translate(-486.31 -479.39)"/><path class="cls-3" d="M1823.68,1022c-9.89-.25-15.69-6.17-19.55-14.45a48.59,48.59,0,0,1-4.28-26.25c1.75-15.1,3.83-30.21,7-45.07,2.18-10.34,3.07-10.05,13.36-10.37a122.89,122.89,0,0,0,14.86-1.25c12.21-1.91,12.19-2,13.22-14.19a29.46,29.46,0,0,1,4-.18c3.46.27,8.36-1.78,9.74,2.57a32.38,32.38,0,0,1,.81,14.46c-.3,1.87-4.34,4-6.94,4.47a134.64,134.64,0,0,1-21.73,2.13c-5.92,0-9.23,1.76-10.66,7.75-4.31,18.09-8.43,36.18-7.62,55A52.65,52.65,0,0,0,1823.68,1022Z" transform="translate(-486.31 -479.39)"/><path class="cls-3" d="M1649.56,1039.79c6.22.89,12.42,2,18.66,2.62,21.76,2.17,38-8,49.9-24.76,11.07-15.63,8.87-32.5.6-48.94-1-2-1.76-4.18-2.64-6.28,17,6.1,26.43,21.64,25.27,41.67-.6,10.32-4.1,19.47-11.31,27-14.75,15.43-32.08,23.55-53.81,18.42C1667,1047.36,1657,1047,1649.56,1039.79Z" transform="translate(-486.31 -479.39)"/><path class="cls-2" d="M1299,877.92c-12,1.11-18.21-4.92-18.93-18.8-.77-14.86,4.88-22.6,17.52-24.43,6.26-.91,11,1.86,14.7,6.54,1.8,2.32,2.84,5.23,4.22,7.87.13,1.95.22,3.91.38,5.86.93,11-2.24,16.43-12.36,20.89C1302.71,876.65,1300.82,877.24,1299,877.92Z" transform="translate(-486.31 -479.39)"/><path class="cls-2" d="M1124.05,878.06c-7.25.4-14.39-2.32-16.41-8.64-2.17-6.79-1.49-14.88-.31-22.13.43-2.69,5.56-6,8.93-6.56,9-1.4,17.86-.38,24,7.89,2.35,15.86.57,19.51-13.65,27.89C1125.73,877,1124.89,877.55,1124.05,878.06Z" transform="translate(-486.31 -479.39)"/><path class="cls-3" d="M1185.92,1033.85c3.93-.46,7.87-.89,11.8-1.38,15-1.87,26.57-9.4,35.73-21.16,1.81-2.33,4.27-4.15,7.1-6.84a37.9,37.9,0,0,1,3.82,21.57c-9.89,8.13-20.72,14.38-33.84,14.92a82.9,82.9,0,0,1-18.67-1.43C1189.6,1039.1,1187.88,1035.82,1185.92,1033.85Z" transform="translate(-486.31 -479.39)"/><path class="cls-3" d="M1642.63,953.21c-5.74-.68-11.88-.21-16.42-5.7,1.55-13.11,9.21-21.83,21.09-26.07,13-4.64,26.41-6.68,38,4.3-6.2.77-12.66.7-18.56,2.48C1654.27,932,1645.22,939.65,1642.63,953.21Z" transform="translate(-486.31 -479.39)"/><path class="cls-3" d="M1299,877.92c1.84-.68,3.73-1.27,5.53-2.07,10.12-4.46,13.29-9.87,12.36-20.89-.16-2-.25-3.91-.38-5.86.65.13,1.29.32,2,.39,11.08,1.36,12,2.1,14,10.69,2.09,9.4-.32,16.92-7,21.2-5.18,3.31-10.79,5-17.07,4C1303.71,884.67,1300,883,1299,877.92Z" transform="translate(-486.31 -479.39)"/><path class="cls-3" d="M1124.05,878.06c.84-.51,1.68-1,2.53-1.55,14.22-8.38,16-12,13.65-27.89,6.85.64,13.2,2,15.94,9.58,3.56,9.79.28,17.89-9.93,24.22C1137.06,888.12,1132.71,887.26,1124.05,878.06Z" transform="translate(-486.31 -479.39)"/><path class="cls-3" d="M1809.94,1041.87c3.26.17,6.67-.22,9.76.61,15,4,27.12-.09,36.71-12.14,3.31,0,6.66-.38,9.89.09,2,.29,4.92,1.56,5.3,3a8.94,8.94,0,0,1-1.45,6.95c-6.09,7.53-13.9,12.49-24,11.51a231.25,231.25,0,0,1-27.34-4.27C1815.62,1046.87,1812.89,1043.84,1809.94,1041.87Z" transform="translate(-486.31 -479.39)"/><path class="cls-3" d="M1825.41,901.94h-15c-2.6-13.61-.17-26.38-.12-39.11,15.84,2.39,15.85,2.39,15.58,18.43C1825.74,888.16,1825.56,895.05,1825.41,901.94Z" transform="translate(-486.31 -479.39)"/><path class="cls-3" d="M1632.58,976.16c8.54-1.17,17.05-2.49,25.61-3.49,14.2-1.66,27.67.17,39.46,9.12-13.25-3.17-26.31-.72-39.4,1.25C1648.71,984.47,1639.72,983.76,1632.58,976.16Z" transform="translate(-486.31 -479.39)"/><path class="cls-3" d="M1702.92,935.55c4.6-8.12,2.93-15.91-1.2-23.58,12.44,2.08,21.43,11.38,20.37,20.41-.49,4.12-.71,7.78-5.1,9.83s-6.77-.36-9.41-3.09A39.07,39.07,0,0,0,1702.92,935.55Z" transform="translate(-486.31 -479.39)"/><path class="cls-3" d="M1150.94,1126.91c-6.2.85-10.37-3.42-15-6.31-1.14-.72-1.6-3.65-1.27-5.35.62-3.22,2-6.29,3.12-9.42a16.56,16.56,0,0,0,1.86-.54c3.67-1.56,7.65-3.19,10.81.31,3,3.3,3.23,7.47,1.88,11.87C1151.46,1120.48,1151.39,1123.76,1150.94,1126.91Z" transform="translate(-486.31 -479.39)"/><path class="cls-3" d="M1756.48,928.36l22.43-1.52c-.25,3.79-.42,6.47-.59,9.15-4.25,0-8.51-.17-12.74.12C1759.85,936.5,1757.1,933.78,1756.48,928.36Z" transform="translate(-486.31 -479.39)"/><path class="cls-3" d="M1364.78,907.22c.13.88.67,2,.29,2.59a46.4,46.4,0,0,1-4.38,4.81l-2.74-6.51Z" transform="translate(-486.31 -479.39)"/><path class="cls-3" d="M555.37,1001.8c-8.13-.47-15.35,1.92-22.37,6.06-6.27,3.7-10.18,8.16-9.46,15.74-3.37-1.18-6.92-2-10.06-3.6-6.82-3.47-8.44-10-3.09-15.1C521.57,994.21,541,987.49,555.37,1001.8Z" transform="translate(-486.31 -479.39)"/><path class="cls-1" d="M1956.45,985.73c-3.45,19.71-20,37.36-40.69,38.12-2.5-5.31-6.23-10.39-7.28-16-4.49-23.84-.45-46.48,11.68-67.58,3.87,4.06,7.75,8.11,11.6,12.2C1941.3,962.6,1950.18,973.2,1956.45,985.73Z" transform="translate(-486.31 -479.39)"/><path class="cls-3" d="M1920.16,940.29c-12.13,21.1-16.17,43.74-11.68,67.58,1,5.59,4.78,10.67,7.28,16-11.44-.78-18.16-8.41-21.29-17.89-2.85-8.63-3.7-18.29-3.52-27.46a93.07,93.07,0,0,1,12.65-45.73c3.48-5.91,7.71-12.19,13.21-15.93,10.77-7.31,14.47-10.37,27.5,2.19C1933.45,922.93,1924.72,929.24,1920.16,940.29Z" transform="translate(-486.31 -479.39)"/><path class="cls-4" d="M1995.43,954.51c-.42-2.55-.85-5.1-1.27-7.65C1994.58,949.41,1995,952,1995.43,954.51Z" transform="translate(-486.31 -479.39)"/><path class="cls-1" d="M1228.29,925.84c4.12,2,5.33,5.57,5.5,9.86.72,18.57-1.74,36.63-9.64,53.56-4.92,10.52-12.23,19-23.85,22.77-1.81-22.29-.67-44.24,6.93-65.56C1210.94,936.06,1218,929.32,1228.29,925.84Z" transform="translate(-486.31 -479.39)"/><path class="cls-3" d="M1228.29,925.84c-10.34,3.48-17.35,10.22-21.06,20.63-7.6,21.32-8.74,43.27-6.93,65.56-8.89,5.59-14.92,3.38-15.86-6.51-2.12-22.26-1-44.32,6.29-65.7,2.5-7.32,6.35-13.57,13.25-18C1214.24,915.31,1220.23,916,1228.29,925.84Z" transform="translate(-486.31 -479.39)"/><path class="cls-1" d="M947,919.68c2.22,1.86,4.88,3.38,6.6,5.63,24,31.27,8.19,74.44-12.7,90.7a37.72,37.72,0,0,1-22.11,8.07c-2.57-6.39-6.45-12.58-7.47-19.2-4-26,1.78-50.1,16.52-71.91A30.85,30.85,0,0,1,947,919.68Z" transform="translate(-486.31 -479.39)"/><path class="cls-3" d="M947,919.68A30.85,30.85,0,0,0,927.82,933c-14.74,21.81-20.49,45.92-16.52,71.91,1,6.62,4.9,12.81,7.47,19.2-10.86-1.13-17-8.4-20.82-17.47a56.11,56.11,0,0,1-3.77-18.41,103.24,103.24,0,0,1,14.24-58.31c4.24-7.28,9.74-13.35,17.87-16.76C935.3,909.35,940.9,910.92,947,919.68Z" transform="translate(-486.31 -479.39)"/><path class="cls-1" d="M999.45,958.86c-.42-2.4-.85-4.8-1.27-7.2C998.6,954.05,999,956.46,999.45,958.86Z" transform="translate(-486.31 -479.39)"/></svg>