<svg id="Layer_1" data-name="Layer 1" xmlns="http://www.w3.org/2000/svg" viewBox="0 0 2537.55 611.25"><defs><style>.cls-1{fill:#f8f4f1;}.cls-2{fill:#423824;}.cls-3{fill:#c3d8a9;}.cls-4{fill:#be5327;}</style></defs><path class="cls-1" d="M1095.71,1163c-10.85-3.16-20.19-8.17-25.17-19.18-4.31-9.52-3-19.13.66-28,1.24-3,7.49-5.23,11.66-5.63,5.69-.55,5.64,5.35,7,9.25-5.32,14.91-5.33,14.93,9.1,21.42a21.18,21.18,0,0,0,3.77.92c26,11.69,61,1.28,78.67-23.46,11-15.37,15.39-33,16.38-51.44.48-8.86-.6-17.81-1-26.71,0-6.9-.42-13.73-4.28-21.59-2.78,2.65-5.24,4.48-7,6.8-8.47,10.88-19.1,18.29-32.83,20.71-4.87.86-9.84,1.2-14.77,1.78-13.71.17-18.09-8.8-20-20.3a19.7,19.7,0,0,0-1.3-3.58q-.63-10.89-1.27-21.8c2.83-16.6,5.06-33.34,8.71-49.75,1.84-8.26,5.9-16.12,9.7-23.78a21.83,21.83,0,0,1,8-8.53c16.2-9.78,33.22-9.79,50.37-2.74,3.58,1.48,6.63,4.23,9.92,6.39,5.25,8,7.32,16.87,8.23,26.31,1.78,18.53,4.6,37,6.06,55.52,1.23,15.55,1.48,31.19,1.47,46.8,0,7.25-2.45,14.5-2.41,21.75.1,20.06-6.65,37.89-16.94,54.5-12.87,20.76-31.59,32.5-56,35.65A153.31,153.31,0,0,1,1095.71,1163Zm56.66-137.06c11.48-3.28,18.43-11.6,23.36-21.76,8.5-17.52,10.92-36.21,9.75-55.48-.23-3.79-.91-7.34-5-8.95-9-10-14.55-10.44-25.51-3.09-6.56,4.39-9.94,10.66-12.32,17.66-7.2,21.21-8.11,43.09-6.18,65.17.31,3.5.66,7.28,5.27,8.72C1145.89,1029.46,1149.49,1029.88,1152.37,1025.89Z" transform="translate(-136.23 -720.27)"/><path class="cls-2" d="M255.64,1330.5c-5-.35-10.06-.17-14.91-1.15-8.66-1.74-11.53-7.14-6.66-14.55,8.21-12.47,17.45-24.27,26.47-36.18,3.61-4.76,7.88-9,11.73-13.6,28.18-33.61,63.8-56.88,103.16-75.26,20.84-9.73,43.13-13.54,65.36-17.61,20.61-3.76,41.34-7,62.15-9.4,8.08-.94,16.64.39,24.74,1.94,9.39,1.79,11.39,7,8.19,16.1-4.22,12-12.35,21.25-20.73,30.3-21.76,23.5-44.92,45.67-70.08,65.38-19.14,15-41.13,25.88-64.23,33.92-19.46,6.76-38.95,13.86-59.57,16-21.78,2.26-43.67,3.46-65.51,5.13C255.71,1331.18,255.68,1330.84,255.64,1330.5Zm270.24-148.63L481,1196.66c-1.39,13.66-2.72,26.81-4.09,40.29,1.2-.53,2-.64,2.37-1.08,14.87-15.67,29.76-31.33,44.49-47.15,1.46-1.56,1.89-4.06,2.79-6.14l.46-1.35Zm-184.31,87.68c-10.81,5.8-21.64,11.55-32.42,17.39q-29.34,15.91-58.62,31.92a28.85,28.85,0,0,0-2.83,2l.57,1.92,70.8-3.55L343.34,1271c-.13-.81-.25-1.62-.37-2.43Zm74.55-39.67c-2,.28-2.73.2-3.24.48-18.28,10.13-36.48,20.39-54.83,30.38-3.49,1.9-5.13,4.51-6.77,8-6.8,14.39-14.11,28.54-21.19,42.79-.79,1.59-1.33,3.3-2.44,6.09,29.51-6,56.94-13.95,81.71-28.06C412.15,1269.29,416.6,1250.15,416.12,1229.88Zm-5.39-6.92c-5.62-1.1-9.69-2.29-13.84-2.64-17.22-1.49-34.46-2.86-51.71-3.93a13.19,13.19,0,0,0-8.22,2.38c-16,12.43-31.88,25.12-47.67,37.88-1.57,1.27-2.36,3.49-4.15,6.27,3-.16,4.56-.17,6.13-.34,14.88-1.59,29.79-2.88,44.6-4.92,11.42-1.58,23-2.74,33.29-9.08,11.9-7.32,24.18-14,36.24-21.09C407,1226.58,408.2,1225.14,410.73,1223Zm13.79-.16c-2.36,20.87-4.61,40.8-6.91,61.1,1.67-.34,2.72-.31,3.53-.75,17.14-9.26,31-22.61,44.8-36.05a9.18,9.18,0,0,0,2-4.27c1.18-4.81,2.58-9.63,3.1-14.54,1-9.29,3.38-18.59,1.41-29.08C454.79,1204.94,439.55,1213.44,424.52,1222.8Zm-70.65-14.62c.28.87.55,1.74.83,2.6a86,86,0,0,0,9.71.76,164.17,164.17,0,0,1,50.35,5.88c4.07,1.17,7-.62,10.24-2.4,10.5-5.74,21.12-11.28,31.68-16.92,1.82-1,3.56-2.11,6.75-4-8.93-2.73-16.22-4.35-24-4.21-5.27.09-11,.44-15.71-1.42-8.49-3.36-16.31-1.74-24.32.57a116.26,116.26,0,0,0-14.14,4.88C374.74,1198.49,364.33,1203.4,353.87,1208.18Zm-22.39,58.62-1-3.07c-12.15,1.69-24.26,4.38-36.44,4.77s-20.11,5.45-26.91,14.93c-7.26,10.12-15.58,19.47-23.44,29.15C275.74,1301.84,302.42,1282.17,331.48,1266.8Zm106.33-84.75c10.16,2.08,20.3,3.7,30.15,6.34,5.68,1.52,10.85,2.31,16.43,0,3.35-1.36,7.08-1.75,10.49-3,10.47-3.77,20.86-7.74,32.78-12.19C514.64,1168.15,453.87,1174.83,437.81,1182.05Z" transform="translate(-136.23 -720.27)"/><path class="cls-1" d="M2134.64,1187.3a54.82,54.82,0,0,1-5.95.62c-7.25,0-8.69-1.27-9-8.64-.79-16.43,2.35-32.41,5.33-48.48,3.59-19.27,6.3-38.71,9.17-58.1,1.93-13.09-.8-25.25-8.81-35.9-17.48-23.26-30.42-49.2-44.49-74.5-5-9-10.81-17.55-16.57-26.1-4.48-6.66-8.6-13.37-9.81-21.21,10.29-11.84,15.4-11.94,26-.87,2.88,5.54,5.5,11.24,8.68,16.6,12.78,21.61,25.75,43.11,38.62,64.67,2.37,4,4.48,8.15,10.69,9.62.61-4,1.19-7.77,1.78-11.56,2.51-22,4.8-44.05,7.63-66,1.09-8.42,3.4-16.68,5.11-24.78,8.74-1.38,14.18,1.44,18.16,7.56.27,5.29,2,11,.56,15.78-5,15.87-4.73,32.17-5.89,48.4-.57,8-1.09,16-2.77,23.76-6.92,32-9.75,64.43-13.14,96.86-2.86,27.45-6.62,54.82-10,82.21C2139.36,1181.2,2138.78,1185.19,2134.64,1187.3Z" transform="translate(-136.23 -720.27)"/><path class="cls-2" d="M2447.41,1304.94c-18.88-2.52-37-4.88-55.09-7.38-5.92-.82-11.77-2.12-17.68-3-34.34-5.07-64.62-19.63-92.65-39.48-5.15-3.66-10.6-7-15.39-11-7.32-6.21-14.3-12.83-21.2-19.5a174.75,174.75,0,0,1-12.23-13.15c-8.33-9.91-16.86-19.7-24.52-30.12-7.15-9.72-4.51-15.81,7.24-16.85a300.91,300.91,0,0,1,32.77-.71c12.61.25,25.37.18,37.8,2a276.53,276.53,0,0,1,93.17,30.81c20.16,11,36,27.17,53.46,41.49,10.76,8.84,20.6,18.91,30.15,29.08a89.11,89.11,0,0,1,13.06,18.72c4.54,8.43,2.41,12.93-6.94,15.33C2462,1303,2454.41,1303.78,2447.41,1304.94Zm-48.5-84.89a18,18,0,0,0-2.08-3c-14.85-12.69-32.2-21.06-50-28.59-1.88-.79-4.54-.47-6.64.09-11.21,3-22.33,6.3-33.53,9.29-4.85,1.3-9.91,1.88-15.12,5.44,13.35,6.87,25.36,13.28,37.62,19.15,2.7,1.3,6.39,1.27,9.5.85,17.51-2.37,35-4.11,52.76-3.25C2393.62,1220.14,2395.82,1220.05,2398.91,1220.05Zm-64.49,55.84c-1.19-14.75-2.32-28.83-3.55-44.08l-44.7-23c-3.3,15.35.65,28.84,1.77,42.45C2302.64,1261.3,2317.59,1270.35,2334.42,1275.89Zm59.44,14.51c-5-10.22-9.78-18.89-13.33-28.05-1.72-4.43-3.83-7.29-8-9.29-9-4.31-17.73-9-26.66-13.37-1.81-.89-3.93-1.16-6.19-1.8-1.87,12.35.12,23.36,2.89,34.34,1.42,5.6,4.11,9.34,10.34,10.4C2366.25,1284.9,2379.49,1287.64,2393.86,1290.4Zm-169.3-119.15c1.45,1.73,1.75,2.44,2.27,2.67,16.66,7.5,33.41,14.82,50,22.54,3.77,1.76,6.62,1.31,10.32,0,7.46-2.69,15.2-4.63,22.87-6.72,6.89-1.87,13.83-3.53,22.78-5.81C2296.42,1170.31,2261,1171.11,2224.56,1171.25Zm-8.5,7.59c19.62,23,37,48.05,62.2,65.23v-38.72C2257.23,1195.53,2237.75,1184.91,2216.06,1178.84Zm129.29,52c7.8,4,14.48,6.85,20.5,10.71,11,7.1,23,9.7,35.91,9.48,11.12-.19,22.24,0,34.83,0-3.84-3.46-6.9-6.27-10-9-15.15-13.3-15.15-13.39-35.24-14.19C2376.53,1227.19,2361.71,1226.89,2345.35,1230.82Zm43.27,30.14c1.66,10.28,8.26,16.42,11.74,24.08,2.75,6,7.18,8.12,13.14,8.56,14.6,1.06,29.19,2.21,43.79,3.14,2.2.14,4.46-.74,7.14-1.23Zm17.46-3c-.13.67-.25,1.34-.38,2,20.18,11.24,41.29,20.37,65.38,28.88-7.62-12.06-16.31-20-24.89-27.9a4.7,4.7,0,0,0-2.73-.93C2431,1259.35,2418.54,1258.69,2406.08,1258Z" transform="translate(-136.23 -720.27)"/><path class="cls-2" d="M2467.59,836.31c-12.91-1.67-26.45-3.18-39.92-5.23-10.16-1.55-20.24-3.71-30.33-5.75a36.83,36.83,0,0,1-7.58-2.44c-8.15-3.58-9.5-8.12-3.22-14.38A303.19,303.19,0,0,1,2414,783.88c12.3-9.59,24.78-19.21,38.21-27a262.37,262.37,0,0,1,92.69-32.51,108.75,108.75,0,0,1,19.91-1.27c25.27.81,50.55,1.6,75.77,3.27,8.14.54,16.34,3.1,24.1,5.9,10.18,3.68,11.69,8.78,5.31,17.17a82.92,82.92,0,0,1-15.1,15.75,484,484,0,0,1-80.69,49.61c-18.81,9.26-39.33,14.48-60.22,17.17C2498.8,833.88,2483.53,834.84,2467.59,836.31Zm148-80.53c-3.32-4-5.61-6.37-7.51-9-7.84-11-17.44-18.3-31.95-15.65a8.37,8.37,0,0,1-2-.11c-25-1.55-49,3-72.53,10.88-2,.68-3.94,1.77-7.09,3.22,29.07,4.08,29.13,4,53.27,20.17,4.22,2.83,8.11,3.78,13,2.74,14.32-3,28.72-5.64,43.06-8.59C2607.43,758.67,2610.81,757.29,2615.63,755.78ZM2434,777.1l1,2.49c1.23.12,2.47.2,3.69.38,15.43,2.27,30.84,4.71,46.31,6.72a29.06,29.06,0,0,0,10.52-1.1c12.22-3.1,24.36-6.51,36.54-9.8,3.74-1,7.49-2,11.83-3.15-13.61-12.92-24.28-17.69-40.46-18.66-4-.24-8.51.37-11.83-1.31-9.59-4.83-17-.12-24.75,4.13-4.38,2.4-9,4.47-13.17,7.13C2446.93,768.13,2440.49,772.69,2434,777.1Zm119.4.86c-9.95,2.38-17.3,4-24.57,5.91-9.92,2.6-19.82,5.28-29.63,8.27-2.36.72-5.23,2.28-6.29,4.29-5.38,10.13-10.24,20.54-15.5,31.31,18.8,1.1,36.67-2.41,54.48-6,2-.41,4.26-2.91,5.18-5C2542.35,804.63,2547.32,792.39,2553.35,778Zm-6.67,38.92c3.36-.81,5.71-1,7.72-1.93,11.1-5.13,22.12-10.45,33.17-15.7,15-7.13,20.87-21.93,30.94-35.74l-57.62,11.94C2556.11,789.39,2551.6,802.52,2546.68,816.88Zm-79.72,12c6.4-10.75,13-20.09,17.27-32.4-26.43,7.14-49.69,19.52-75.79,24Zm-72.46-19.21c25.18.9,65.26-9.95,75.89-18.64L2424,785.55Zm269.59-70.53c-14-5.44-49.53-8.85-58-6.06,4.59,5.3,9.28,10.44,13.65,15.84,2.64,3.27,5.49,4.41,9.5,2.93C2640.39,747.71,2651.56,743.69,2664.09,739.13Zm-47.7,41.38c16.49-8.74,31.92-18.56,45.11-31.63-10.66,2.92-20.93,6.53-31.11,10.36a7.93,7.93,0,0,0-3.46,3.31C2623.31,768.48,2619.89,774.52,2616.39,780.51Z" transform="translate(-136.23 -720.27)"/><path class="cls-1" d="M1317.82,922.14c2.75-4.47,5.57-8.89,8.25-13.4,7.28-12.28,19.33-15.41,32.13-15.58,11.14-.15,21.12,4.57,30.12,11.12a71,71,0,0,1,19,35.49c2.14,10.37,4.13,21,4.4,31.5.64,24.89.09,49.82.35,74.73,0,4.19-1.84,6.8-4.25,9.52a48.79,48.79,0,0,1-5.51,2.22c-4.69,1.26-8-.39-8.63-5.37a149.66,149.66,0,0,1-.91-16.67c0-2.59,1.23-5.19,1.3-7.8.7-27.83,1.37-55.69-6.15-82.9-2.56-9.24-5.08-18.59-13-25.09-10.22-8.84-13.73-9-24.27-2.42-6.46,4-11.63,9.14-14.47,16-5.09,12.19-10.43,24.41-13.87,37.1-6.55,24.12-8.18,49-8.65,73.93-.08,3.86.93,8.16-3.52,10.61-11.65,3-12.66,2.4-15.74-8.92-.43-1.57-.83-3.15-1.24-4.7.08-2.78.17-5.6.26-8.41l-.09-12.08v-.15c0-7,.19-13.9,0-20.85-.14-6.28-.58-12.55-1-18.82-1.1-18.51-2.38-37-3.21-55.55-.19-4.31-1-9.74,5.29-11.4,6-1.56,10.33.63,13.53,5.68a20.1,20.1,0,0,0,1.91,2.23l3.08,7Z" transform="translate(-136.23 -720.27)"/><path class="cls-1" d="M584.68,922.27c2.77-4.49,5.62-8.93,8.3-13.47,7.3-12.4,19.41-15.58,32.29-15.62,11.93,0,22.49,5,31.59,12.81,8.12,9,14,19.4,16.64,31.22,2.1,9.34,4.32,18.88,4.57,28.38.71,26.81.34,53.65.67,80.48,0,4.13-1.66,6.89-4.17,9.59l-11.15,2.86c-4.65-7.53-5.19-14.78-3.83-22,2.82-14.84,1.95-29.61,1.11-44.56-.82-14.57-1-29.11-5-43.28-2.85-10.16-4.85-20.74-13.37-28.21-10-9.27-14.28-9.52-25.08-2.87-6.84,4.22-11.37,10.12-15.06,16.94a145,145,0,0,0-16.11,50.13c-2.66,20.12-3.87,40.42-5.93,60.62-.35,3.43-1.8,6.75-2.75,10.12-2.26.42-4.51.94-6.78,1.22-4.26.51-7.29-1.5-8-5.55-1.06-5.75-1.48-11.63-2-17.47s-.88-11.71-1.31-17.54c0-2.59,0-5.2,0-7.82,2.86-14.68-1-29.08-1.8-43.61-.72-12.94-1.18-25.89-1.47-38.85-.1-4.46-1-9.72,5.18-11.52,6-1.73,10.35.5,13.6,5.53.54.84,1.19,1.6,1.79,2.39l3.3,6.67Z" transform="translate(-136.23 -720.27)"/><path class="cls-1" d="M464.45,932.72l-11.43,2c-5.67-9.31-2.61-20.16,7.7-24.61,15.12-6.53,31.13-9.4,47.46-5.83,4.84,1.06,9,5.05,13.54,7.7,2.35,5.45,5.45,10.71,6.91,16.39,4,15.38,7.91,30.83,10.58,46.46,3.37,19.66,3.75,39.6,2.49,59.55-.49,7.81-3.84,12.5-11.45,15.2-20.57,7.31-41.45,11.61-63.38,8.77-4.82-2.14-10.25-3.49-14.33-6.6-6-4.56-12.67-9.7-13.72-17.52-1.39-10.19-1.06-20.93,5-29.82a32,32,0,0,1,12.65-10.6c14.61-6.58,29.87-8.5,45.49-3,4.31,1.5,8.75,2.6,14,4.14,4.86-22.7.47-43.3-7.46-63.52-3.62-7.29-9.94-9.43-17.17-7.52C482.23,926.3,473.4,929.73,464.45,932.72Zm11.11,104.85c15.16,5.76,27.44.52,39.67-10.14l-7.88-11.6c-14.47-14.32-33.73-7.57-44.92,3.08-5.35,5.08-3.73,11.6,3.08,15.07C468.66,1035.58,472.2,1036.4,475.56,1037.57Z" transform="translate(-136.23 -720.27)"/><path class="cls-1" d="M1761.91,1055.81c-17.55-3.6-26-15.89-29.71-32.07-4.26-18.54-3.44-37.42-2.36-56.25.34-5.9.62-11.8.93-17.7-.11-2.72-.22-5.43-.36-9l-22.16,1.72a57.45,57.45,0,0,0-6.92-.33c-5.43.4-7.56-2.76-8.85-7.35-3.17-11.33-1.78-14.11,10-16.25,8.11-1.48,16.4-2,24.61-2.81,7.26-.73,8.44-1.37,9.87-8.57a82.54,82.54,0,0,0,1.07-13.81c.17-6.61,0-13.23,0-19.68,9.1-6.93,19.15-5.58,24,3,.34,12.71-2.36,25.5.39,39.4h14.88c3.94.06,7.89.19,11.83.18,8,0,8-.05,11.13,7.84-1.13,12.52-1.11,12.68-14.06,14.57a96.32,96.32,0,0,1-16.88,1c-5.61-.17-8.85,1.82-9.77,7.41-2.63,16-5.69,31.93-7.74,48a47.72,47.72,0,0,0,4.26,26.29c3.87,8.3,9.71,14.19,19.57,14.52,8.13.13,16.26.56,24.38.29,5.63-.19,8.78,1.6,8.87,7.5-10,12.73-22.7,16.83-38.32,12.54C1767.9,1055.6,1764.83,1056,1761.91,1055.81Z" transform="translate(-136.23 -720.27)"/><path class="cls-1" d="M1594.77,967.39c10.2-.56,20.41-.92,30.59-1.74,10.78-.88,21.1,1.3,31.16,4.57,3.92,1.28,7.27,4.35,10.87,6.6.63,1.16,1.23,2.33,1.89,3.47,9.6,16.65,12.47,34.11,1.31,50.62-12,17.73-28.84,28-51.43,25.44-5.91-.69-11.78-1.7-17.66-2.56-4.85-2.07-10-3.67-14.47-6.33-7.89-4.65-9.8-10.26-7.69-21.42,4,.48,8.26.5,12.23,1.59a59.28,59.28,0,0,1,12.89,5.2c15.09,8.29,28.84,4.9,42-4.36a26,26,0,0,0,10.9-18.29c.88-6.38-.33-12-7.48-14.36-11.89-8.84-25.39-10.79-39.67-9.11-8.59,1-17.16,2.24-25.74,3.38-18.47-5.54-27.22-16.77-25.87-33.62s13.64-35.65,31.61-37.05c10.16-.79,20.16-3.49,30.32-4.25a45.1,45.1,0,0,1,33.23,10.63c4.91,7.42,7.16,14.89.51,22.55-3.63,1-6.81,1-9.61-2.32-2-2.44-4.84-4.22-7.31-6.3-11.66-10.17-24.78-9.61-38-4.36-11.76,4.66-19.56,13-21,26.15C1582.85,967,1589.09,966.4,1594.77,967.39Z" transform="translate(-136.23 -720.27)"/><path class="cls-1" d="M866,1058.54c-18.16-4.65-29.32-16.73-34.06-34.25-9.39-34.72-4.52-67.9,13.93-98.65,6.34-10.55,15-19.53,28.13-22.18,13.61-2.76,26.39-1.88,37,8.44,1.61,2.11,3.33,4.14,4.81,6.34,19.95,29.61,26.5,61.19,14,95.57C921.33,1037.18,889.54,1062.21,866,1058.54Zm4.93-20.73c14.56-.27,25-7.77,32.94-19.23a75.66,75.66,0,0,0,13.43-37c1.54-18.62-3.2-35.48-17.63-48.56-13.21-12.53-16.55-9.18-27.55-2.15-4.81,3.08-8.65,8.32-11.72,13.33-9.2,15-13.47,31.7-14.33,49.25-.45,9.36-.2,18.79,3.86,27.4C854.11,1029.68,860,1037,870.94,1037.81Z" transform="translate(-136.23 -720.27)"/><path class="cls-1" d="M1862.42,1058.52c-18.6-4.92-29.6-17.62-34.28-35.53-8.82-33.82-3.92-66.17,13.69-96.16,6.76-11.5,15.92-21.39,30.5-23.71,12.64-2,24.52-1.33,34.46,8,1.67,2,3.48,4,5,6.17,20.21,28.92,26.66,60.19,15.59,94.25C1918.93,1037.48,1885.89,1062.29,1862.42,1058.52Zm5.53-20.79c13.69-.32,23.8-7.17,31.63-17.76a74.06,74.06,0,0,0,14.05-35.66c2.29-19.59-2-37.49-17.38-51.37-12.44-12.06-16.84-9.49-28.38-1.43-4.71,3.29-8.48,8.55-11.41,13.65a102.57,102.57,0,0,0-13.62,56.51c.29,6.55,1.28,13.54,4,19.4C1850.81,1029.78,1856.76,1037.47,1868,1037.73Z" transform="translate(-136.23 -720.27)"/><path class="cls-2" d="M2134.64,1187.3c4.14-2.11,4.72-6.1,5.21-10.08,3.39-27.39,7.15-54.76,10-82.21,3.39-32.43,6.22-64.9,13.14-96.86,1.68-7.76,2.2-15.81,2.77-23.76,1.16-16.23.91-32.53,5.89-48.4,1.48-4.73-.29-10.49-.56-15.78,12.71.63,16.79,4.63,17.07,16.86.06,2.32.3,4.8-.37,6.95-5.33,17.09-4.44,34.86-6.23,52.35-1.5,14.52-4.79,28.85-6.77,43.33-2.62,19.11-4.77,38.27-7.08,57.42q-6,49.5-11.88,99c-.45,3.77-1.4,7.05-5.23,9C2142.42,1199.24,2137.52,1196.92,2134.64,1187.3Z" transform="translate(-136.23 -720.27)"/><path class="cls-2" d="M1095.71,1163a153.31,153.31,0,0,0,46.66,1.32c24.45-3.15,43.17-14.89,56-35.65,10.29-16.61,17-34.44,16.94-54.5,0-7.25,2.4-14.5,2.41-21.75,0-15.61-.24-31.25-1.47-46.8-1.46-18.55-4.28-37-6.06-55.52-.91-9.44-3-18.32-8.23-26.31,11.42,1.07,18.29,8,21.21,18.33,2.33,8.25,3.11,17,4.18,25.53,1.59,12.86,2.44,25.81,4.3,38.62,3.19,21.84,5.37,43.58.5,65.47-.86,3.84-.48,8-.64,12-1,24.9-10.13,46.69-26.31,65.34-14.4,16.61-33.86,23.37-55.1,24.38-12.2.58-24.56-.71-36.74-2.13C1106.93,1170.48,1100.34,1168.39,1095.71,1163Z" transform="translate(-136.23 -720.27)"/><path class="cls-2" d="M782.1,731.19c-.15,1.06,0,3.89-1,6.28-5.9,14.7-12,29.32-18.13,43.94-10.43,24.94-28,44.08-49,60.54-16.16,12.68-34.64,20.88-53.46,28.51a20,20,0,0,1-4.76,1.41c-5.65.76-8.23-1.47-7.66-7.3a75.68,75.68,0,0,1,2.77-13.64c6.74-23.09,15.25-45.37,30.08-64.71,10.57-13.79,22.06-26.64,37-35.93,12.69-7.9,25.36-15.85,38.29-23.36A61.75,61.75,0,0,1,771,721.08C779.44,718.8,782.12,721.09,782.1,731.19Zm-14.7-3.82c-16.81,7.09-26.1,12.75-30.24,18.43l18.15,2c.87-.51,1.24-.61,1.43-.86q6.48-8.81,12.94-17.63c.57-.93,1.14-1.86,1.72-2.79ZM671,809.87l1.46,1.89c4.9-.61,10-2.28,14.67-1.58,10,1.48,17.26-2.22,23.62-9.39,3.08-3.47,6.89-6.28,10.16-9.59a39.71,39.71,0,0,0,3.82-5.41c-10.21-7.3-21.63-4.71-33-7Zm60.74-31.07,18-23.14c-21.28-7-36.82-.36-49.05,15.4Zm-31.61,68,28-22.54v-29.7c-8,7.31-14.25,13.05-20.47,18.83a5.17,5.17,0,0,0-1.63,2.4C704.16,825.4,702.38,835.06,700.17,846.77Zm35.6-34.68c14.39-13.65,25.08-28.46,18.62-50.37-5.86,7.53-11.31,14.19-16.32,21.16a14.05,14.05,0,0,0-2.2,7.29C735.59,797.47,735.77,804.78,735.77,812.09Zm-45.29,39.27,7.34-27.09c-14.76,10.74-26.09,24.21-36.66,38.38.4.62.8,1.25,1.19,1.88Zm-35.21,3,1.68.54,33.55-37.47-23.89,1.79C662.93,830.63,659.1,842.5,655.27,854.38ZM776.13,736.67c-16.22,16-15.41,17-10.82,29.1C769.12,755.53,772.62,746.1,776.13,736.67Z" transform="translate(-136.23 -720.27)"/><path class="cls-2" d="M953.67,1190.5c-29.63-3.87-59.41-5-86.39-19.35-16.85-8.93-32.91-18.91-45.83-33.16-8-8.87-16-17.83-23.3-27.31-6.2-8-4.24-12,5.66-12.83,36.59-3,71.81,2.19,104.22,20,23.54,12.95,42.5,31.85,60.88,51.18,1.79,1.89,3,4.41,4.26,6.74,4.52,8.12,3.3,11.12-5.95,13.2C962.73,1190,958,1190.05,953.67,1190.5Zm-107.22-68.36c5.31,2.92,9,5,12.77,7,10.53,5.69,21,8.94,33,3.1,5.87-2.88,12.81-3.57,21.57-5.85-12.82-7.46-23.68-12.85-35.49-16.21a6.31,6.31,0,0,0-3.8.11C865.74,1113.89,857.07,1117.63,846.45,1122.14Zm34.09,49.47c11.15,5.26,22.71,7.31,35.26,8.08-2.25-6.48-4.11-12.4-6.43-18.13a8.59,8.59,0,0,0-4.07-3.93c-8-3.86-16.1-7.47-24.15-11.15C876.09,1155.12,881.05,1163.2,880.54,1171.61Zm62-21.17-21.22-18-31.8,8.15C905.23,1154.1,922.87,1152.41,942.51,1150.44Zm-98-20.16c1.56,8.45,2.89,15.93,4.36,23.38.25,1.22.85,2.87,1.8,3.39,6.86,3.74,13.85,7.25,21.21,11v-25.15Zm17.94-23.85c-16.75-5.35-33.46-3.17-51.64-4.54C833.11,1118.43,835.29,1120,862.5,1106.43Zm101,79.29c.11-.79.21-1.59.32-2.38-15.09-6.16-29.2-14.61-46.35-20.4,3,7.57,5.22,13.29,7.68,19.57Zm-122.67-37.48c-2.12-8.25-3.42-14.33-5.33-20.2a10.21,10.21,0,0,0-4.41-4.93c-6.83-4-13.84-7.68-20.86-11.34-1.4-.73-3.15-.8-4.73-1.18C816.25,1123.42,824.92,1137.67,840.86,1148.24Zm124.7,28,1.92-2.27-19.27-16.75-15.45,1.68-.42,1.64Z" transform="translate(-136.23 -720.27)"/><path class="cls-2" d="M1521,1196.92c-22.6,1.8-44.2-3.67-65.63-9.69-9-2.53-9.78-6.86-2.61-13.25,35.59-31.66,76.24-50.46,124.94-47.75,13.91.77,27.81,2.29,41.65,4a62.73,62.73,0,0,1,15.34,4.11c6.6,2.58,7.9,7.5,3.71,13.18-2.32,3.15-4.91,6.58-8.19,8.49-16.34,9.5-32.43,19.7-49.61,27.46C1556.24,1194.42,1550.24,1194.83,1521,1196.92Zm16.74-63.28,21.29,22.59,33.52-9.2c-5-3.83-9.6-6.2-12.59-9.88-5.34-6.56-12.15-7.18-19.45-6.53S1546.13,1132.5,1537.74,1133.64Zm10.07,24,1.08-2.29-21.23-19.6-33.23,13.57c6.85,3.74,12.77,7.17,18.89,10.2,2.5,1.24,5.55,2.5,8.17,2.2C1530.31,1160.7,1539.05,1159,1547.81,1157.6Zm3.64,7.47c-10.41,1.41-18.55,2.45-26.66,3.67a5.6,5.6,0,0,0-3.34,1.92c-5,6.76-9.87,13.63-14.93,20.68h34.31Zm40.48-10-32.54,8.83c-3.06,8.36-5.85,16-9,24.62a75.7,75.7,0,0,0,26.74-8.64,5.52,5.52,0,0,0,2.25-1.75C1583.34,1171,1587.22,1163.76,1591.93,1155.07Zm-81.25,19.09-1.15-1.5-49.56,9.56-.08,1.57,35.75,7.29Zm-48.83-1.67.93,1.51,43.37-8.41c.13-.69.26-1.38.4-2.08l-20.21-8.57Zm127-40.89c-.23.63-.47,1.25-.7,1.88,3.63,3.27,7.21,6.6,10.92,9.79.94.8,2.36,1.78,3.4,1.62,9.82-1.55,19.6-3.33,29.39-5.05,0-.67-.05-1.35-.07-2-5.46-1-10.91-2.21-16.41-3C1606.6,1133.61,1597.73,1132.67,1588.89,1131.6Zm1.83,40.68c14.67-5.34,34.08-17.52,39.33-24.36-7.82,1.31-15.33,2.34-22.71,3.93a11.33,11.33,0,0,0-6.2,4C1597.66,1160.6,1594.77,1165.79,1590.72,1172.28Z" transform="translate(-136.23 -720.27)"/><path class="cls-1" d="M950.39,963.4c.54-11.58,1.09-23.17,1.63-34.62,5.84-4,10.54-4.22,15.51.71,3.47,3.44,7.21,3.62,12.44,1.27,17.37-7.81,35.55-10.5,53.93-3.19,3.19,1.27,5.7,4.27,8.52,6.48,3,5.66,2.21,11.35.64,16.92-9,2.13-9.48,2.9-19.13-3-13.18-8.05-36.82-1.15-43.34,15.9a84.27,84.27,0,0,0-4.51,16.23,166.45,166.45,0,0,0-.76,51.53c.92,6.29,1.51,12.58-2.21,18.32-2.89.22-5.8.76-8.66.57-3.67-.24-6.11-2.35-6.47-6.23-.49-5.24-.83-10.49-1.33-15.73-1.17-12.4-2.41-24.81-3.62-37.2Q951.71,977.41,950.39,963.4Z" transform="translate(-136.23 -720.27)"/><path class="cls-1" d="M1969.7,1050c-12.18,2.35-15.34.31-15.86-11.7-.65-15.15.17-30.4-4.15-45.2q-1.21-15.36-2.45-30.74c.32-9.29.37-18.61,1-27.88.65-8.89,7.32-11.82,14.33-6.11,5.28,4.3,9.32,4.4,15.88,1.54,16.79-7.32,34.52-9.38,52.16-2.3,3.18,1.27,5.67,4.29,8.48,6.5,3.3,5.71,2.16,11.38.44,16.84-7.48,3.64-13.54.6-19.15-2.91-14.13-8.86-37.67,0-43.1,16a116.05,116.05,0,0,0-5.28,21.11c-2.12,15.13-2.69,30.33-.26,45.58C1972.82,1037.17,1973.87,1044,1969.7,1050Z" transform="translate(-136.23 -720.27)"/><path class="cls-2" d="M1914.18,870.79c-10.26,3.8-17.88-.31-25.46-3.37-21.4-8.63-41.35-19.67-58.45-35.49-12.3-11.37-23.26-23.72-30.76-38.85-6.34-12.81-13-25.47-19-38.43-2.49-5.37-3.93-11.27-5.41-17-1.91-7.44-.45-9.7,7.27-10.27a25,25,0,0,1,11.52,1.85,241.49,241.49,0,0,1,26.78,13.27c18.48,11,37.36,21.53,51.37,38.65,12.91,15.77,25,31.94,31.57,51.56,3.16,9.44,6.56,18.8,9.51,28.31C1914.06,864,1913.85,867.36,1914.18,870.79ZM1902,866l1,1.08.2-.81-1.24-.16c-.14-1.21.15-2.77-.5-3.57-9-11.13-17.89-22.28-27.18-33.13-2.6-3-5.6-6.27-11.19-7.47-1.12,9.48-2.15,18.23-3.22,27.26,10.79,4.83,20.7,9.43,30.78,13.67C1894.23,864.36,1898.21,865,1902,866Zm-49-22.34c1.56-8.41,3.15-16.12,4.31-23.9.3-2,0-5-1.35-6.23-8.25-7.47-16.86-14.56-26.89-23.08-2,10.66-3.72,19.43-5.54,28.88C1832.2,828.38,1841.52,837.1,1853.05,843.64ZM1834,786c9.81,8.37,17.78,15.21,25.82,22a5.64,5.64,0,0,0,3.57,1.4c7.34-.56,14.66-1.35,23.49-2.21l-20.85-27Zm-22.73-22.32c5.24,5.26,10,10.2,15,14.88a6.06,6.06,0,0,0,4.5,1.38c9-1.47,17.9-3.21,28-5.09-7.44-9.57-16.75-14.16-24.33-18.27Zm12.5,21.51L1805,767.77c-1.37,5-2.47,8.83-3.41,12.68-.38,1.52-1.07,3.42-.52,4.66,4.23,9.56,8.63,19.07,16.86,26.91C1820,802.83,1821.75,794.53,1823.77,785.22Zm81.25,70c-3.33-13-6.45-26-12.94-37.73a4.43,4.43,0,0,0-3.17-2c-6.09-.2-12.19-.1-18.61-.1ZM1785.88,730.88c4.89,7.34,8.18,12.7,11.92,17.73,1.91,2.58,4.48,6.3,7,6.48,6.94.5,14.35,1.51,22.32-3.34A218.53,218.53,0,0,0,1785.88,730.88Zm-4.38,5.74c.72,13,10.27,33.5,16.31,37.55,0-5.55,1.68-11.32-.35-15.11C1793.16,751,1786.93,744,1781.5,736.62Z" transform="translate(-136.23 -720.27)"/><path class="cls-2" d="M466.87,1058.38c21.93,2.84,42.81-1.46,63.38-8.77,7.61-2.7,11-7.39,11.45-15.2,1.26-20,.88-39.89-2.49-59.55-2.67-15.63-6.62-31.08-10.58-46.46-1.46-5.68-4.56-10.94-6.91-16.39,10.45.4,16.85,7,19.78,15.77a466.7,466.7,0,0,1,12.25,45.09c2.61,11.62,3.78,23.56,5.59,35.38,0,2.64,0,5.25,0,7.84-.48,8.23-1.3,16.49-1.34,24.74,0,8.75-3.55,14.09-12.06,17.06-20.92,7.28-42,13-64.27,7.82C476.44,1064.5,471.78,1060.89,466.87,1058.38Z" transform="translate(-136.23 -720.27)"/><path class="cls-2" d="M1947.24,962.35q1.23,15.38,2.45,30.74c-2,8.66-3.24,17.61-6.19,25.95-8.47,23.91-26.2,38.71-49.67,46.61-11.41,3.83-22.25,1-31.41-7.13,23.47,3.77,56.51-21,64.95-47,11.07-34.06,4.62-65.33-15.59-94.25-1.51-2.17-3.32-4.12-5-6.17,5.68-1,9.36,2.65,13.13,5.82,11.56,9.74,18.1,22.67,23.14,36.57C1944.17,956.54,1945.83,959.4,1947.24,962.35Z" transform="translate(-136.23 -720.27)"/><path class="cls-2" d="M577.45,1055.43c.95-3.37,2.4-6.69,2.75-10.12,2.06-20.2,3.27-40.5,5.93-60.62a145,145,0,0,1,16.11-50.13c3.69-6.82,8.22-12.72,15.06-16.94,10.8-6.65,15-6.4,25.08,2.87C627.29,927,618.69,939.18,612.9,954A205.6,205.6,0,0,0,600,1007.1c-1.68,15.53-2.53,31.14-3.68,46.72-.57,7.77-2.93,10.57-9.67,11.1C581.49,1065.32,580,1063.74,577.45,1055.43Z" transform="translate(-136.23 -720.27)"/><path class="cls-2" d="M950.39,963.4q1.32,14,2.64,28c-.94,5.55-1.66,11.16-2.85,16.67-5.81,26.82-22.41,44.81-47,55.66-13.12,5.79-25.93,4.67-37.2-5.16,23.52,3.67,55.31-21.36,63.81-44.73,12.51-34.38,6-66-14-95.57-1.48-2.2-3.2-4.23-4.81-6.34,6-.79,10,2.78,13.9,6.34,10.57,9.61,16.69,22,21.42,35.17C947.57,956.79,949,960.07,950.39,963.4Z" transform="translate(-136.23 -720.27)"/><path class="cls-2" d="M1310.08,1055.08c4.45-2.45,3.44-6.75,3.52-10.61.47-24.93,2.1-49.81,8.65-73.93,3.44-12.69,8.78-24.91,13.87-37.1,2.84-6.81,8-12,14.47-16,10.54-6.55,14.05-6.42,24.27,2.42-24,12.66-31.08,36-36.83,59.72-5.79,23.92-8,48.37-8.28,73,0,3.92.54,7.88-4,10.4C1318.13,1067.31,1313.39,1065.06,1310.08,1055.08Z" transform="translate(-136.23 -720.27)"/><path class="cls-2" d="M153.83,893.86c-1.42,5.93-1.42,5.93-9.05,9.55-4.72-1.81-5.87-6.37-6.4-10.4-4.63-34.91-2.93-68.86,16.5-99.82a18.84,18.84,0,0,1,1.93-2.27l2.19,1.86c1,.51,2.16,1.63,3,1.44,11-2.46,17.11-11.64,16.22-24.32l-2.52,1.67-2.27-2.09c3.32-5.05,7-9.64,13.22-11.14,5.55,3.51,5.44,9.35,6.21,14.38,3.37,21.88,3.54,43.62-3.05,65.18-6.28,20.53-18.44,37.51-31.2,54.2-.89,1.15-3.19,1.23-4.83,1.8,2.5-4.07,5-8.13,7.48-12.22,1-1.65,2.71-3.43,2.61-5-.44-6.94-1.44-13.84-2.24-20.76-4.89,12.65-10.46,24.85-11.49,38.62Zm15.88-29.35c10.54-9.14,14.6-20.94,17.93-33.06.39-1.42-.19-3.21-.64-4.74-1-3.46-2.11-6.93-3.47-10.28-1.73-4.28-3.75-8.44-6.17-13.81-7.1,17-11.84,32.28-7.8,49.08C170.53,855.75,169.71,860.23,169.71,864.51Zm-.06-64-16.09,2.69c-6,11.83-10.71,24.18-11.81,38.86,5.42-3,9.79-5.27,14-7.83,1.61-1,3.53-2.37,4.1-4C163.19,820.72,166.19,811.1,169.65,800.48Zm-28.74,87.2,2.1.42q6.48-21.86,13-43.69a31.63,31.63,0,0,0-12.38,5.93,7.21,7.21,0,0,0-2.56,4.85C140.8,866,140.91,876.85,140.91,887.68Zm46.25-114.75c-2,5.21-4.2,10.37-6,15.67-.66,2-1.19,4.74-.34,6.42,2.62,5.15,5.94,10,9.87,16.31C193,797.38,189.49,785.39,187.16,772.93Z" transform="translate(-136.23 -720.27)"/><path class="cls-1" d="M1270,1056.87c-10.09,1.86-15.11-1.16-15.55-10.77-1.61-34.87-2.85-69.76-4-104.65-.15-4.23.89-8.5,1.34-12.43,10.89-4,11.92-3.54,16.38,6.18.57,6.91,1.2,13.82,1.68,20.74.3,4.31-.2,8.75.62,12.95,5.15,26.39,4.48,53,3.83,79.67C1274.14,1052.28,1273.05,1055,1270,1056.87Z" transform="translate(-136.23 -720.27)"/><path class="cls-2" d="M1969.7,1050c4.17-6,3.12-12.82,2.09-19.27-2.43-15.25-1.86-30.45.26-45.58a116.05,116.05,0,0,1,5.28-21.11c5.43-16,29-24.86,43.1-16,5.61,3.51,11.67,6.55,19.15,2.91,1.72-5.46,2.86-11.13-.44-16.84,12.06,1.18,19,7.91,18.37,17.74-.54,7.84-4.23,10.6-12,8.47a61.25,61.25,0,0,1-10.12-4.17c-14.69-7-32.88-1.31-40.38,13a56.66,56.66,0,0,0-5.24,15,165,165,0,0,0-1.51,57.54,34,34,0,0,1,.64,5.93c-.16,6.63-2.85,10.66-7.46,11.54Q1973.3,1060.75,1969.7,1050Z" transform="translate(-136.23 -720.27)"/><path class="cls-1" d="M1094.13,1056.93c-10.12,1.77-15.58-1.24-15.26-11,1.1-33.65-7-66.86-4.36-100.53.44-5.6.92-11.19,1.36-16.45,11-3.89,12.15-3.43,16.39,6.22.57,6.19,1.27,12.37,1.7,18.58.34,4.94-.27,10,.64,14.83,5,26.53,4.86,53.25,3.84,80.06C1098.3,1052.4,1097.16,1055,1094.13,1056.93Z" transform="translate(-136.23 -720.27)"/><path class="cls-2" d="M973.11,1050c3.72-5.74,3.13-12,2.21-18.32a166.45,166.45,0,0,1,.76-51.53,84.27,84.27,0,0,1,4.51-16.23c6.52-17,30.16-24,43.34-15.9,9.65,5.89,10.12,5.12,19.13,3,1.57-5.57,2.41-11.26-.64-16.92,13.12,1.2,20.14,8.78,18.13,19.57-1.17,6.27-4.2,8.46-10.59,6.93a51.46,51.46,0,0,1-10.18-4c-17.12-8.2-36.46-.77-43.63,16.87-4.58,11.29-5.72,23.27-6,35.21-.24,10.25.94,20.54,1.47,30.81.14,2.66.35,5.32.31,8-.1,7.34-2.09,10.56-7,11.6C979.52,1060.18,975.78,1057.31,973.11,1050Z" transform="translate(-136.23 -720.27)"/><path class="cls-2" d="M674.57,1055.66c2.51-2.7,4.22-5.46,4.17-9.59-.33-26.83,0-53.67-.67-80.48-.25-9.5-2.47-19-4.57-28.38C670.83,925.39,665,915,656.86,906c4.19,1.69,8.94,2.62,12.45,5.22,7.89,5.84,13.18,13.87,16.83,23.07,6.24,15.69,8.65,32.18,9.12,48.79.67,23.27.21,46.57-.09,69.85,0,3-1.22,6.78-3.24,8.85C684.53,1069.31,678.3,1067,674.57,1055.66Z" transform="translate(-136.23 -720.27)"/><path class="cls-2" d="M1407.77,1055.52c2.41-2.72,4.3-5.33,4.25-9.52-.26-24.91.29-49.84-.35-74.73-.27-10.54-2.26-21.13-4.4-31.5a71,71,0,0,0-19-35.49c14.88,3.69,23.48,14.23,29.6,27.35a104.21,104.21,0,0,1,9.43,40.52c1,27.51.55,55.07.45,82.61,0,6.15-6.72,11.7-12.79,11a7.12,7.12,0,0,1-4.76-2.79C1408.92,1060.83,1408.55,1058.05,1407.77,1055.52Z" transform="translate(-136.23 -720.27)"/><path class="cls-2" d="M1094.13,1056.93c3-1.92,4.17-4.53,4.31-8.24,1-26.81,1.15-53.53-3.84-80.06-.91-4.81-.3-9.89-.64-14.83-.43-6.21-1.13-12.39-1.7-18.58,12.35-1.76,13.54-1,16.51,10.88a26.89,26.89,0,0,1,1.18,8.8c-1.43,15.11,3,29.61,4.38,44.41a12.19,12.19,0,0,0,1,2.81q.65,10.95,1.27,21.83c-.42,7.48-.81,15-1.24,22.5-.17,2.94-.52,5.88-.61,8.83-.15,5-1.75,8.84-7.22,10.24s-8.89-.81-11.58-5.1C1095.26,1059.31,1094.74,1058.1,1094.13,1056.93Z" transform="translate(-136.23 -720.27)"/><path class="cls-2" d="M1270,1056.87c3.08-1.92,4.17-4.59,4.26-8.31.65-26.65,1.32-53.28-3.83-79.67-.82-4.2-.32-8.64-.62-12.95-.48-6.92-1.11-13.83-1.68-20.74,12.07-1.69,13.06-1.18,16.18,10a60.71,60.71,0,0,1,1.65,10.68q1.63,17.7,3,35.43c.53,6.91.57,13.87,1.34,20.75.34,3,2,5.84,3,8.76v.16c-3,4-2.88,8.07.09,12.07-.09,2.81-.18,5.63-.26,8.41-1,4.45-2.64,8.9-2.81,13.41-.2,5.2-1.17,9-6.76,10.57-5.37,1.48-9-.65-11.72-5C1271.11,1059.28,1270.58,1058.05,1270,1056.87Z" transform="translate(-136.23 -720.27)"/><path class="cls-2" d="M1775.73,1036c-9.86-.33-15.7-6.22-19.57-14.52a47.72,47.72,0,0,1-4.26-26.29c2-16.07,5.11-32,7.74-48,.92-5.59,4.16-7.58,9.77-7.41a96.32,96.32,0,0,0,16.88-1c13-1.89,12.93-2,14.06-14.57,1,0,2,0,3,0,11.21,0,13.42,2.45,12.63,13.24-.31,4.21-1.91,7.23-6,7.9a211.62,211.62,0,0,1-21.57,2.63c-10,.59-11.1.48-13.25,9.76-3.79,16.42-7.63,32.91-7.27,50A57.73,57.73,0,0,0,1775.73,1036Z" transform="translate(-136.23 -720.27)"/><path class="cls-2" d="M1601.5,1053.79c5.88.86,11.75,1.87,17.66,2.56,22.59,2.6,39.45-7.71,51.43-25.44,11.16-16.51,8.29-34-1.31-50.62-.66-1.14-1.26-2.31-1.89-3.47,9.09.8,15.29,5.79,19.45,13.58,14.18,26.59,7.09,55-26.81,70.82-8.89,4.15-18.29,5.64-28.11,3.07-6.4-1.67-13.07-2.36-19.36-4.34C1608.62,1058.71,1605.17,1055.9,1601.5,1053.79Z" transform="translate(-136.23 -720.27)"/><path class="cls-1" d="M1251,892.05c-7.57-.25-14.74-1.13-17.24-10.1-2.27-8.15-3.9-16.19,2.24-23.51.85-1,1.78-2.8,2.67-2.8,7.22,0,14.44.3,21.66.6,4.31.18,6.07,3.5,7.84,6.73.12,1.31.2,2.63.37,3.93,1.74,13.2-1.37,18.49-13.89,23.62C1253.44,891,1252.23,891.54,1251,892.05Z" transform="translate(-136.23 -720.27)"/><path class="cls-1" d="M1075.88,892.25c-2.59-.5-5.37-.55-7.73-1.56-10.27-4.42-15.09-21.69-8.34-30.55,1.87-2.45,5.17-5,8-5.29,9-.9,18.14-.79,24.36,7.72,2.56,15.74.63,19.65-13.86,28.1C1077.5,891.16,1076.7,891.72,1075.88,892.25Z" transform="translate(-136.23 -720.27)"/><path class="cls-2" d="M2140.2,993.45c-.59,3.79-1.17,7.58-1.78,11.56-6.21-1.47-8.32-5.64-10.69-9.62-12.87-21.56-25.84-43.06-38.62-64.67-3.18-5.36-5.8-11.06-8.68-16.6,8.55-.89,13.29,3.93,17.4,10.71C2111.77,947.81,2126.05,970.59,2140.2,993.45Z" transform="translate(-136.23 -720.27)"/><path class="cls-2" d="M1594.77,967.39c-5.68-1-11.92-.39-16.51-5.87,1.49-13.11,9.29-21.49,21-26.15,13.23-5.25,26.35-5.81,38,4.36-6.5,1-13.26,1.07-19.43,3C1605.89,946.59,1597.12,954.16,1594.77,967.39Z" transform="translate(-136.23 -720.27)"/><path class="cls-2" d="M1137.87,1047.83c4.93-.58,9.9-.92,14.77-1.78,13.73-2.42,24.36-9.83,32.83-20.71,1.81-2.32,4.27-4.15,7-6.8,3.86,7.86,4.27,14.69,4.28,21.59-9.7,7.57-20,14.07-32.67,14.88-6.45.42-13-.54-19.52-1.07C1140.94,1053.65,1138.61,1051.54,1137.87,1047.83Z" transform="translate(-136.23 -720.27)"/><path class="cls-2" d="M1251,892.05c1.22-.51,2.43-1,3.65-1.53,12.52-5.13,15.63-10.42,13.89-23.62-.17-1.3-.25-2.62-.37-3.93,1,.08,2,.17,3,.23,6.86.38,11.86,2.62,13.47,10.39,1.7,8.18.77,15.42-5.64,20.9-5.22,4.46-11.69,6-18.67,5.13C1255.54,899,1252.21,896.91,1251,892.05Z" transform="translate(-136.23 -720.27)"/><path class="cls-2" d="M1075.88,892.25c.82-.53,1.62-1.09,2.46-1.58,14.49-8.45,16.42-12.36,13.86-28.1,12.94,1.75,18.19,7.08,17.61,17.9-.46,8.61-11,19-19.74,19.41C1083.9,900.14,1079.45,897,1075.88,892.25Z" transform="translate(-136.23 -720.27)"/><path class="cls-2" d="M1761.91,1055.81c2.92.15,6-.21,8.75.54,15.62,4.29,28.35.19,38.32-12.54,3.63.17,7.29.06,10.86.59,4.57.69,6.52,5.24,3.52,8.8-5.82,6.91-12.33,13.45-22.36,12.63a257.49,257.49,0,0,1-29.3-4C1768.17,1061.15,1765.16,1057.9,1761.91,1055.81Z" transform="translate(-136.23 -720.27)"/><path class="cls-2" d="M1777.39,916.16h-14.88c-2.75-13.9,0-26.69-.39-39.4a6.59,6.59,0,0,1,1,0c14.76,2,14.87,2.08,14.78,16.47C1777.83,900.86,1777.56,908.51,1777.39,916.16Z" transform="translate(-136.23 -720.27)"/><path class="cls-2" d="M1584.44,990.09c8.58-1.14,17.15-2.37,25.74-3.38,14.28-1.68,27.78.27,39.67,9.11-12.82-2.49-25.43-.63-38.14,1.34C1601.84,998.7,1591.88,998.78,1584.44,990.09Z" transform="translate(-136.23 -720.27)"/><path class="cls-2" d="M464.45,932.72c8.95-3,17.78-6.42,26.89-8.82,7.23-1.91,13.55.23,17.17,7.52l-40.72,12.49C466.44,939.37,465.44,936.05,464.45,932.72Z" transform="translate(-136.23 -720.27)"/><path class="cls-2" d="M1654.24,948.35c6.65-7.66,4.4-15.13-.51-22.55,7.12.38,12.18,4.75,17,9.2,3.4,3.12,4.41,13.78,2.22,17.75a7.72,7.72,0,0,1-11.64,2.48C1658.8,953.15,1656.59,950.66,1654.24,948.35Z" transform="translate(-136.23 -720.27)"/><path class="cls-2" d="M1102.72,1141.74a21.18,21.18,0,0,1-3.77-.92c-14.43-6.49-14.42-6.51-9.1-21.42,1.24-.39,2.45-.9,3.71-1.18,8.46-1.85,13.07,2.51,11.66,11.14C1104.55,1133.51,1103.57,1137.61,1102.72,1141.74Z" transform="translate(-136.23 -720.27)"/><path class="cls-2" d="M1708.25,942.51l22.16-1.72c.14,3.57.25,6.28.36,9-4.5.08-9,.05-13.5.28C1711.83,950.35,1708.68,948.11,1708.25,942.51Z" transform="translate(-136.23 -720.27)"/><path class="cls-2" d="M162.76,783.05l10.68-13.57,2.27,2.09-11,13.11Z" transform="translate(-136.23 -720.27)"/><path class="cls-2" d="M1317.82,922.14l-4.85,7-3.08-7Z" transform="translate(-136.23 -720.27)"/><path class="cls-2" d="M584.68,922.27l-4.74,6.61-3.3-6.67Z" transform="translate(-136.23 -720.27)"/><path class="cls-2" d="M156.81,790.92l4.2-6,1.88,1.86c-1.3,2-2.59,4-3.89,6Z" transform="translate(-136.23 -720.27)"/><path class="cls-2" d="M161,784.93c.59-.63,1.18-1.25,1.76-1.88l1.92,1.63-1.8,2.11Z" transform="translate(-136.23 -720.27)"/><path class="cls-2" d="M1180.45,939.7c-11,3.91-18.11,11.31-21.83,22.52-6.91,20.81-7.91,42.08-6.25,63.67-2.88,4-6.48,3.57-10.66,2.27-4.61-1.44-5-5.22-5.27-8.72-1.93-22.08-1-44,6.18-65.17,2.38-7,5.76-13.27,12.32-17.66C1165.9,929.26,1171.48,929.7,1180.45,939.7Z" transform="translate(-136.23 -720.27)"/><path class="cls-3" d="M416.12,1229.88c.48,20.27-4,39.41-6.76,59.67-24.77,14.11-52.2,22-81.71,28.06,1.11-2.79,1.65-4.5,2.44-6.09,7.08-14.25,14.39-28.4,21.19-42.79,1.64-3.48,3.28-6.09,6.77-8,18.35-10,36.55-20.25,54.83-30.38C413.39,1230.08,414.11,1230.16,416.12,1229.88Z" transform="translate(-136.23 -720.27)"/><path class="cls-3" d="M410.73,1223c-2.53,2.18-3.78,3.62-5.33,4.53-12.06,7.06-24.34,13.77-36.24,21.09-10.29,6.34-21.87,7.5-33.29,9.08-14.81,2-29.72,3.33-44.6,4.92-1.57.17-3.17.18-6.13.34,1.79-2.78,2.58-5,4.15-6.27,15.79-12.76,31.63-25.45,47.67-37.88a13.19,13.19,0,0,1,8.22-2.38c17.25,1.07,34.49,2.44,51.71,3.93C401,1220.67,405.11,1221.86,410.73,1223Z" transform="translate(-136.23 -720.27)"/><path class="cls-3" d="M424.52,1222.8c15-9.36,30.27-17.86,48-23.59,2,10.49-.42,19.79-1.41,29.08-.52,4.91-1.92,9.73-3.1,14.54a9.18,9.18,0,0,1-2,4.27c-13.78,13.44-27.66,26.79-44.8,36.05-.81.44-1.86.41-3.53.75C419.91,1263.6,422.16,1243.67,424.52,1222.8Z" transform="translate(-136.23 -720.27)"/><path class="cls-3" d="M353.87,1208.18c10.46-4.78,20.87-9.69,31.41-14.28a116.26,116.26,0,0,1,14.14-4.88c8-2.31,15.83-3.93,24.32-.57,4.7,1.86,10.44,1.51,15.71,1.42,7.76-.14,15.05,1.48,24,4.21-3.19,1.91-4.93,3-6.75,4-10.56,5.64-21.18,11.18-31.68,16.92-3.26,1.78-6.17,3.57-10.24,2.4a164.17,164.17,0,0,0-50.35-5.88,86,86,0,0,1-9.71-.76C354.42,1209.92,354.15,1209.05,353.87,1208.18Z" transform="translate(-136.23 -720.27)"/><path class="cls-3" d="M343.35,1271c-8.05,16-16.1,32-24.28,48.23l-70.8,3.55-.57-1.92a28.85,28.85,0,0,1,2.83-2q29.29-16,58.62-31.92c10.78-5.84,21.61-11.59,32.42-17.39Z" transform="translate(-136.23 -720.27)"/><path class="cls-3" d="M331.48,1266.8c-29.06,15.37-55.74,35-87.81,45.78,7.86-9.68,16.18-19,23.44-29.15,6.8-9.48,14.82-14.53,26.91-14.93s24.29-3.08,36.44-4.77Z" transform="translate(-136.23 -720.27)"/><path class="cls-3" d="M526.52,1182.59c-.91,2.07-1.34,4.57-2.8,6.13-14.73,15.82-29.62,31.48-44.49,47.15-.41.44-1.17.55-2.37,1.08,1.37-13.48,2.7-26.63,4.09-40.29l44.93-14.79Z" transform="translate(-136.23 -720.27)"/><path class="cls-3" d="M437.81,1182.05c16.06-7.22,76.83-13.9,89.85-8.78-11.92,4.45-22.31,8.42-32.78,12.19-3.41,1.23-7.14,1.62-10.49,3-5.58,2.26-10.75,1.47-16.43,0C458.11,1185.75,448,1184.13,437.81,1182.05Z" transform="translate(-136.23 -720.27)"/><path class="cls-3" d="M525.88,1181.87l1.09-.64c-.15.45-.31.9-.45,1.35Z" transform="translate(-136.23 -720.27)"/><path class="cls-3" d="M341.57,1269.55l1.4-1c.12.81.24,1.62.37,2.43Z" transform="translate(-136.23 -720.27)"/><path class="cls-3" d="M2398.91,1220.05c-3.09,0-5.29.09-7.48,0-17.71-.86-35.25.88-52.76,3.25-3.11.42-6.8.45-9.5-.85-12.26-5.87-24.27-12.28-37.62-19.15,5.21-3.56,10.27-4.14,15.12-5.44,11.2-3,22.32-6.31,33.53-9.29,2.1-.56,4.76-.88,6.64-.09,17.79,7.53,35.14,15.9,50,28.59A18,18,0,0,1,2398.91,1220.05Z" transform="translate(-136.23 -720.27)"/><path class="cls-3" d="M2334.42,1275.89c-16.83-5.54-31.78-14.59-46.48-24.62-1.12-13.61-5.07-27.1-1.77-42.45l44.7,23C2332.1,1247.06,2333.23,1261.14,2334.42,1275.89Z" transform="translate(-136.23 -720.27)"/><path class="cls-3" d="M2393.86,1290.4c-14.37-2.76-27.61-5.5-40.94-7.77-6.23-1.06-8.92-4.8-10.34-10.4-2.77-11-4.76-22-2.89-34.34,2.26.64,4.38.91,6.19,1.8,8.93,4.38,17.7,9.06,26.66,13.37,4.16,2,6.27,4.86,8,9.29C2384.08,1271.51,2388.9,1280.18,2393.86,1290.4Z" transform="translate(-136.23 -720.27)"/><path class="cls-3" d="M2224.56,1171.25c36.48-.14,71.86-.94,108.21,12.65-8.95,2.28-15.89,3.94-22.78,5.81-7.67,2.09-15.41,4-22.87,6.72-3.7,1.34-6.55,1.79-10.32,0-16.56-7.72-33.31-15-50-22.54C2226.31,1173.69,2226,1173,2224.56,1171.25Z" transform="translate(-136.23 -720.27)"/><path class="cls-3" d="M2216.06,1178.84c21.69,6.07,41.17,16.69,62.2,26.51v38.72C2253.06,1226.89,2235.68,1201.86,2216.06,1178.84Z" transform="translate(-136.23 -720.27)"/><path class="cls-3" d="M2345.35,1230.82c16.36-3.93,31.18-3.63,46-3,20.09.8,20.09.89,35.24,14.19,3.12,2.74,6.18,5.55,10,9-12.59,0-23.71-.15-34.83,0-12.9.22-24.87-2.38-35.91-9.48C2359.83,1237.67,2353.15,1234.85,2345.35,1230.82Z" transform="translate(-136.23 -720.27)"/><path class="cls-3" d="M2388.62,1261l75.81,34.55c-2.68.49-4.94,1.37-7.14,1.23-14.6-.93-29.19-2.08-43.79-3.14-6-.44-10.39-2.53-13.14-8.56C2396.88,1277.38,2390.28,1271.24,2388.62,1261Z" transform="translate(-136.23 -720.27)"/><path class="cls-3" d="M2406.08,1258c12.46.68,24.92,1.34,37.38,2.06a4.7,4.7,0,0,1,2.73.93c8.58,8,17.27,15.84,24.89,27.9-24.09-8.51-45.2-17.64-65.38-28.88C2405.83,1259.35,2406,1258.68,2406.08,1258Z" transform="translate(-136.23 -720.27)"/><path class="cls-3" d="M2615.63,755.78c-4.82,1.51-8.2,2.89-11.71,3.61-14.34,3-28.74,5.57-43.06,8.59-4.92,1-8.81.09-13-2.74-24.14-16.19-24.2-16.09-53.27-20.17,3.15-1.45,5.05-2.54,7.09-3.22,23.54-7.85,47.57-12.43,72.53-10.88a8.37,8.37,0,0,0,2,.11c14.51-2.65,24.11,4.62,31.95,15.65C2610,749.41,2612.31,751.81,2615.63,755.78Z" transform="translate(-136.23 -720.27)"/><path class="cls-3" d="M2434,777.1c6.54-4.41,13-9,19.65-13.17,4.21-2.66,8.79-4.73,13.17-7.13,7.75-4.25,15.16-9,24.75-4.13,3.32,1.68,7.85,1.07,11.83,1.31,16.18,1,26.85,5.74,40.46,18.66-4.34,1.16-8.09,2.14-11.83,3.15-12.18,3.29-24.32,6.7-36.54,9.8a29.06,29.06,0,0,1-10.52,1.1c-15.47-2-30.88-4.45-46.31-6.72-1.22-.18-2.46-.26-3.69-.38Z" transform="translate(-136.23 -720.27)"/><path class="cls-3" d="M2553.35,778c-6,14.43-11,26.67-16.33,38.74-.92,2.08-3.16,4.58-5.18,5-17.81,3.64-35.68,7.15-54.48,6,5.26-10.77,10.12-21.18,15.5-31.31,1.06-2,3.93-3.57,6.29-4.29,9.81-3,19.71-5.67,29.63-8.27C2536.05,782,2543.4,780.34,2553.35,778Z" transform="translate(-136.23 -720.27)"/><path class="cls-3" d="M2546.68,816.88c4.92-14.36,9.43-27.49,14.21-41.43l57.62-11.94c-10.07,13.81-15.92,28.61-30.94,35.74-11.05,5.25-22.07,10.57-33.17,15.7C2552.39,815.88,2550,816.07,2546.68,816.88Z" transform="translate(-136.23 -720.27)"/><path class="cls-3" d="M2467,828.87l-58.52-8.37c26.1-4.51,49.36-16.89,75.79-24C2480,808.78,2473.36,818.12,2467,828.87Z" transform="translate(-136.23 -720.27)"/><path class="cls-3" d="M2394.5,809.66,2424,785.55l46.36,5.47C2459.76,799.71,2419.68,810.56,2394.5,809.66Z" transform="translate(-136.23 -720.27)"/><path class="cls-3" d="M2664.09,739.13c-12.53,4.56-23.7,8.58-34.83,12.71-4,1.48-6.86.34-9.5-2.93-4.37-5.4-9.06-10.54-13.65-15.84C2614.56,730.28,2650.06,733.69,2664.09,739.13Z" transform="translate(-136.23 -720.27)"/><path class="cls-3" d="M2616.39,780.51c3.5-6,6.92-12,10.54-18a7.93,7.93,0,0,1,3.46-3.31c10.18-3.83,20.45-7.44,31.11-10.36C2648.31,762,2632.88,771.77,2616.39,780.51Z" transform="translate(-136.23 -720.27)"/><path class="cls-4" d="M1293.36,1033.05c-3-4-3-8-.09-12.07Z" transform="translate(-136.23 -720.27)"/><path class="cls-2" d="M507.35,1015.83a38.46,38.46,0,0,0-21.55,5.47c-6.57,3.76-11.06,8.17-10.24,16.27-3.36-1.17-6.9-2-10.05-3.59-6.81-3.47-8.43-10-3.08-15.07C473.62,1008.26,492.88,1001.51,507.35,1015.83Z" transform="translate(-136.23 -720.27)"/><path class="cls-2" d="M899.68,933c-11.51,3.6-19.43,11.41-24.88,21.8-9.82,18.73-14.18,38.71-12.37,59.83a46.56,46.56,0,0,0,8.51,23.18c-10.92-.81-16.83-8.13-21-17-4.06-8.61-4.31-18-3.86-27.4.86-17.55,5.13-34.21,14.33-49.25,3.07-5,6.91-10.25,11.72-13.33C883.13,923.82,886.47,920.47,899.68,933Z" transform="translate(-136.23 -720.27)"/><path class="cls-2" d="M1896.25,932.94c-13.65,4.38-21.78,14.43-27.39,27-8.44,18.8-12.29,38.47-8.75,58.89,1.13,6.57,5.15,12.64,7.84,18.94-11.19-.26-17.14-8-21.14-16.66-2.69-5.86-3.68-12.85-4-19.4a102.57,102.57,0,0,1,13.62-56.51c2.93-5.1,6.7-10.36,11.41-13.65C1879.41,923.45,1883.81,920.88,1896.25,932.94Z" transform="translate(-136.23 -720.27)"/><path class="cls-3" d="M671,809.87l20.68-31.13c11.42,2.34,22.84-.25,33,7A39.71,39.71,0,0,1,721,791.2c-3.27,3.31-7.08,6.12-10.16,9.59-6.36,7.17-13.59,10.87-23.62,9.39-4.71-.7-9.77,1-14.67,1.58Z" transform="translate(-136.23 -720.27)"/><path class="cls-3" d="M731.78,778.8l-31-7.74c12.23-15.76,27.77-22.36,49.05-15.4Z" transform="translate(-136.23 -720.27)"/><path class="cls-3" d="M700.17,846.77c2.21-11.71,4-21.37,5.89-31a5.17,5.17,0,0,1,1.63-2.4c6.22-5.78,12.5-11.52,20.47-18.83v29.7Z" transform="translate(-136.23 -720.27)"/><path class="cls-3" d="M735.77,812.09c0-7.31-.18-14.62.1-21.92a14.05,14.05,0,0,1,2.2-7.29c5-7,10.46-13.63,16.32-21.16C760.85,783.63,750.16,798.44,735.77,812.09Z" transform="translate(-136.23 -720.27)"/><path class="cls-3" d="M690.48,851.36l-28.13,13.17c-.39-.63-.79-1.26-1.19-1.88,10.57-14.17,21.9-27.64,36.66-38.38Z" transform="translate(-136.23 -720.27)"/><path class="cls-3" d="M655.27,854.38c3.83-11.88,7.66-23.75,11.34-35.14l23.89-1.79L657,854.92Z" transform="translate(-136.23 -720.27)"/><path class="cls-3" d="M769.68,729.32q-6.46,8.82-12.94,17.63c-.19.25-.56.35-1.43.86l-18.15-2c4.14-5.68,13.43-11.34,30.24-18.43Z" transform="translate(-136.23 -720.27)"/><path class="cls-3" d="M776.13,736.67c-3.51,9.43-7,18.86-10.82,29.1C760.72,753.62,759.91,752.68,776.13,736.67Z" transform="translate(-136.23 -720.27)"/><path class="cls-3" d="M767.4,727.37l4-.84c-.58.93-1.15,1.86-1.72,2.79Z" transform="translate(-136.23 -720.27)"/><path class="cls-3" d="M846.45,1122.14c10.62-4.51,19.29-8.25,28-11.84a6.31,6.31,0,0,1,3.8-.11c11.81,3.36,22.67,8.75,35.49,16.21-8.76,2.28-15.7,3-21.57,5.85-12,5.84-22.44,2.59-33-3.1C855.48,1127.13,851.76,1125.06,846.45,1122.14Z" transform="translate(-136.23 -720.27)"/><path class="cls-3" d="M880.54,1171.61c.51-8.41-4.45-16.49.61-25.13,8.05,3.68,16.16,7.29,24.15,11.15a8.59,8.59,0,0,1,4.07,3.93c2.32,5.73,4.18,11.65,6.43,18.13C903.25,1178.92,891.69,1176.87,880.54,1171.61Z" transform="translate(-136.23 -720.27)"/><path class="cls-3" d="M942.51,1150.44c-19.64,2-37.28,3.66-53-9.89l31.8-8.15Z" transform="translate(-136.23 -720.27)"/><path class="cls-3" d="M844.56,1130.28l27.37,12.66v25.15c-7.36-3.79-14.35-7.3-21.21-11-1-.52-1.55-2.17-1.8-3.39C847.45,1146.21,846.12,1138.73,844.56,1130.28Z" transform="translate(-136.23 -720.27)"/><path class="cls-3" d="M862.5,1106.43c-27.21,13.6-29.39,12-51.64-4.54C829,1103.26,845.75,1101.08,862.5,1106.43Z" transform="translate(-136.23 -720.27)"/><path class="cls-3" d="M963.53,1185.72l-38.35-3.21c-2.46-6.28-4.7-12-7.68-19.57,17.15,5.79,31.26,14.24,46.35,20.4C963.74,1184.13,963.64,1184.93,963.53,1185.72Z" transform="translate(-136.23 -720.27)"/><path class="cls-3" d="M840.86,1148.24c-15.94-10.57-24.61-24.82-35.33-37.65,1.58.38,3.33.45,4.73,1.18,7,3.66,14,7.35,20.86,11.34a10.21,10.21,0,0,1,4.41,4.93C837.44,1133.91,838.74,1140,840.86,1148.24Z" transform="translate(-136.23 -720.27)"/><path class="cls-3" d="M965.56,1176.28l-33.22-15.7.42-1.64,15.45-1.68L967.48,1174Z" transform="translate(-136.23 -720.27)"/><path class="cls-3" d="M1537.74,1133.64c8.39-1.14,15.55-2.37,22.77-3s14.11,0,19.45,6.53c3,3.68,7.59,6,12.59,9.88l-33.52,9.2Z" transform="translate(-136.23 -720.27)"/><path class="cls-3" d="M1547.81,1157.6c-8.76,1.42-17.5,3.1-26.32,4.08-2.62.3-5.67-1-8.17-2.2-6.12-3-12-6.46-18.89-10.2l33.23-13.57,21.23,19.6Z" transform="translate(-136.23 -720.27)"/><path class="cls-3" d="M1551.45,1165.07l-10.62,26.27h-34.31c5.06-7,9.91-13.92,14.93-20.68a5.6,5.6,0,0,1,3.34-1.92C1532.9,1167.52,1541,1166.48,1551.45,1165.07Z" transform="translate(-136.23 -720.27)"/><path class="cls-3" d="M1591.93,1155.07c-4.71,8.69-8.59,15.9-12.57,23.06a5.52,5.52,0,0,1-2.25,1.75,75.7,75.7,0,0,1-26.74,8.64c3.17-8.64,6-16.26,9-24.62Z" transform="translate(-136.23 -720.27)"/><path class="cls-3" d="M1510.68,1174.16l-15,16.92-35.75-7.29.08-1.57,49.56-9.56Z" transform="translate(-136.23 -720.27)"/><path class="cls-3" d="M1461.85,1172.49l24.49-17.55,20.21,8.57c-.14.7-.27,1.39-.4,2.08l-43.37,8.41Z" transform="translate(-136.23 -720.27)"/><path class="cls-3" d="M1588.89,1131.6c8.84,1.07,17.71,2,26.53,3.24,5.5.77,10.95,2,16.41,3,0,.67.05,1.35.07,2-9.79,1.72-19.57,3.5-29.39,5.05-1,.16-2.46-.82-3.4-1.62-3.71-3.19-7.29-6.52-10.92-9.79C1588.42,1132.85,1588.66,1132.23,1588.89,1131.6Z" transform="translate(-136.23 -720.27)"/><path class="cls-3" d="M1590.72,1172.28c4-6.49,6.94-11.68,10.42-16.44a11.33,11.33,0,0,1,6.2-4c7.38-1.59,14.89-2.62,22.71-3.93C1624.8,1154.76,1605.39,1166.94,1590.72,1172.28Z" transform="translate(-136.23 -720.27)"/><path class="cls-3" d="M1853.05,843.64c-11.53-6.54-20.85-15.26-29.47-24.33,1.82-9.45,3.5-18.22,5.54-28.88,10,8.52,18.64,15.61,26.89,23.08,1.31,1.18,1.65,4.22,1.35,6.23C1856.2,827.52,1854.61,835.23,1853.05,843.64Z" transform="translate(-136.23 -720.27)"/><path class="cls-3" d="M1902,866c-3.8-1-7.78-1.62-11.38-3.13-10.08-4.24-20-8.84-30.78-13.67,1.07-9,2.1-17.78,3.22-27.26,5.59,1.2,8.59,4.43,11.19,7.47,9.29,10.85,18.23,22,27.18,33.13.65.8.36,2.36.5,3.57Z" transform="translate(-136.23 -720.27)"/><path class="cls-3" d="M1834,786l32-5.89,20.85,27c-8.83.86-16.15,1.65-23.49,2.21a5.64,5.64,0,0,1-3.57-1.4C1851.78,801.24,1843.81,794.4,1834,786Z" transform="translate(-136.23 -720.27)"/><path class="cls-3" d="M1811.27,763.71l23.18-7.1c7.58,4.11,16.89,8.7,24.33,18.27-10.12,1.88-19,3.62-28,5.09a6.06,6.06,0,0,1-4.5-1.38C1821.26,773.91,1816.51,769,1811.27,763.71Z" transform="translate(-136.23 -720.27)"/><path class="cls-3" d="M1823.77,785.22c-2,9.31-3.82,17.61-5.81,26.8-8.23-7.84-12.63-17.35-16.86-26.91-.55-1.24.14-3.14.52-4.66.94-3.85,2-7.66,3.41-12.68Z" transform="translate(-136.23 -720.27)"/><path class="cls-3" d="M1905,855.2l-34.72-39.81c6.42,0,12.52-.1,18.61.1a4.43,4.43,0,0,1,3.17,2C1898.57,829.23,1901.69,842.19,1905,855.2Z" transform="translate(-136.23 -720.27)"/><path class="cls-3" d="M1785.88,730.88a218.53,218.53,0,0,1,41.22,20.87c-8,4.85-15.38,3.84-22.32,3.34-2.5-.18-5.07-3.9-7-6.48C1794.06,743.58,1790.77,738.22,1785.88,730.88Z" transform="translate(-136.23 -720.27)"/><path class="cls-3" d="M1781.5,736.62c5.43,7.42,11.66,14.41,16,22.44,2,3.79.35,9.56.35,15.11C1791.77,770.12,1782.22,749.61,1781.5,736.62Z" transform="translate(-136.23 -720.27)"/><path class="cls-3" d="M1901.94,866.09l1.24.16-.2.81-1-1.08Z" transform="translate(-136.23 -720.27)"/><path class="cls-3" d="M169.71,864.51c0-4.28.82-8.76-.15-12.81-4-16.8.7-32.11,7.8-49.08,2.42,5.37,4.44,9.53,6.17,13.81,1.36,3.35,2.43,6.82,3.47,10.28.45,1.53,1,3.32.64,4.74C184.31,843.57,180.25,855.37,169.71,864.51Z" transform="translate(-136.23 -720.27)"/><path class="cls-3" d="M169.65,800.48c-3.46,10.62-6.46,20.24-9.82,29.72-.57,1.63-2.49,3-4.1,4-4.19,2.56-8.56,4.83-14,7.83,1.1-14.68,5.85-27,11.81-38.86Z" transform="translate(-136.23 -720.27)"/><path class="cls-3" d="M140.91,887.68c0-10.83-.11-21.66.11-32.49a7.21,7.21,0,0,1,2.56-4.85A31.63,31.63,0,0,1,156,844.41q-6.48,21.84-13,43.69Z" transform="translate(-136.23 -720.27)"/><path class="cls-3" d="M187.16,772.93c2.33,12.46,5.81,24.45,3.57,38.4-3.93-6.36-7.25-11.16-9.87-16.31-.85-1.68-.32-4.42.34-6.42C183,783.3,185.15,778.14,187.16,772.93Z" transform="translate(-136.23 -720.27)"/><path class="cls-3" d="M153.83,893.86l-3.68.63c1-13.77,6.6-26,11.49-38.62.8,6.92,1.8,13.82,2.24,20.76.1,1.62-1.62,3.4-2.61,5-2.46,4.09-5,8.15-7.48,12.22Z" transform="translate(-136.23 -720.27)"/><path class="cls-3" d="M162.89,786.79l1.8-2.11,11-13.11,2.52-1.67c.89,12.68-5.18,21.86-16.22,24.32-.85.19-2-.93-3-1.44C160.3,790.79,161.59,788.79,162.89,786.79Z" transform="translate(-136.23 -720.27)"/></svg>