<svg id="Layer_1" data-name="Layer 1" xmlns="http://www.w3.org/2000/svg" viewBox="0 0 2035.89 664.5"><defs><style>.cls-1{fill:#cbe2b0;}</style></defs><path d="M829.45,27.83,909,20.48c3.31-.3,6.62-.91,9.94-.94,37.63-.34,75.26-.5,112.89-.9,25.46-.26,50.93-1.31,76.4-1.07,13.93.13,27.84,2.17,41.76,3.42,18.24,1.63,36.52,2.92,54.68,5.17,14,1.73,27.8,4.74,41.7,7.13,4.22.73,8.49,1.93,12.7,1.81,20.67-.55,40.84,1.24,60.4,8.85,6.67,2.59,14.25,2.87,21.44,4.06,4.58.77,9.21,1.27,13.81,1.92,4.28.61,8.54,1.65,12.83,1.81,15,.58,29.09,4.3,43.27,9.1,11.07,3.75,23.11,4.57,34.68,6.84,15.61,3.07,31.67,4.07,46.53,10.6a40.24,40.24,0,0,0,11.53,3c18.84,2.14,37,6.36,54.19,14.72,8.32,4,17.7,5.81,26.45,9,12.8,4.71,25.62,9.42,38.13,14.81,20,8.63,39.87,17.74,59.71,26.81,10.45,4.78,20.6,10.23,31.15,14.75,9.91,4.25,20.17,7.69,30.28,11.47q18,6.72,36,13.4c11.55,4.26,23,8.83,34.71,12.57s23.18,8.1,33.74,14.8c6,3.79,13,5.93,19.48,8.93,10.56,4.88,21.39,9.28,31.54,14.91,27.54,15.26,54.52,31.56,82.25,46.47,19,10.25,34.83,24.45,51.06,38.24a9.65,9.65,0,0,1,1,1.07c14.72,16.75,9.83,50.76-8.85,62.72-4.88,3.13-9.13,7.23-13.93,10.49-9.77,6.62-19.46,13.42-29.65,19.36q-40.61,23.63-81.67,46.48c-10.3,5.7-21.32,10.1-32,15.16-8,3.77-15.73,7.95-23.83,11.37-11.77,5-23.76,9.42-35.66,14.07-10.22,4-20.42,8.06-30.68,11.93-10.89,4.11-21.67,8.61-32.81,11.89-12.2,3.59-24,7.77-35.23,13.88-9.78,5.31-20.17,9.51-30.34,14.11-17.46,7.89-35.15,15.29-52.36,23.67a296.66,296.66,0,0,1-45.56,17.75c-10.81,3.22-21,8.43-31.82,11.68-13.35,4-27,6.93-40.56,10.32-6.58,1.65-13.16,3.28-19.73,5-5.45,1.39-10.82,3.2-16.34,4.21-18.81,3.42-37.76,6.18-56.49,10-9.39,1.91-18.42,5.6-27.63,8.41a35.39,35.39,0,0,1-6.35,1.36c-15.52,1.71-31.08,3.15-46.57,5.1a66,66,0,0,0-16.45,4c-19,7.68-38.75,9.12-58.9,8.76-4.71-.09-9.46,1.19-14.16,2-13.58,2.31-27.07,5.74-40.74,6.81-23.93,1.87-47.71,4.63-71.54,7.36-16.73,1.92-33.88.25-50.84.27-18.49,0-37,.25-55.46.2-25.13-.08-50.27-.34-75.41-.54-1.83,0-3.67-.39-5.49-.31-28.27,1.24-56.09-4.37-84.2-5.57-15.29-.65-30.6-1.14-45.89-2a120.15,120.15,0,0,1-15.68-2.44c-4.57-.88-9.08-2.06-13.6-3.18-6.13-1.52-12.23-3.1-18.35-4.66-3.7-.94-7.35-2.28-11.12-2.77-32.32-4.24-63.74-12.29-94.83-21.94-34.05-10.57-68-21.54-102.37-31-26.93-7.43-54.46-12.66-81.63-19.24-12.77-3.1-25.54-6.48-38-10.75-75.5-25.89-151-51.78-226.27-78.32-24-8.47-47.41-18.75-71-28.55C113,457.59,86.53,438.34,60.28,418.84a94.78,94.78,0,0,0-9.58-6.31,63.2,63.2,0,0,1-19.92-17.14c-4.59-6.13-9.81-11.77-14.4-17.89-10.44-13.92-12.66-29.61-8.16-46A24.54,24.54,0,0,1,16.73,319C41.36,301,62,278.34,87.41,261.15c30.27-20.47,63.14-35,96.77-48.42,80.27-31.93,162.41-58.51,244.26-85.91,20.7-6.92,41.34-14,63.14-16.94,6.55-.89,12.83-3.56,19.3-5.15,13.26-3.24,26.66-6,39.82-9.52C568.54,90.37,586.22,85,604,79.75c34.21-10,68.28-20.57,102.69-29.87,16.66-4.51,34-6.69,51-9.92,1.64-.31,3.3-.53,4.91-1,13.82-3.61,27.53-7.76,41.5-10.69,8.22-1.72,16.84-1.5,25.28-2.15C829.36,26.72,829.41,27.28,829.45,27.83Zm133.06,34.8,0-.79q-37.92,1.89-75.83,3.8c-3,.15-5.95.72-8.93,1.12Q838.39,72.11,799,77.5a89.41,89.41,0,0,0-11.29,2.09q-73.1,19.81-146.13,39.84c-23.75,6.55-46.94,14.89-71.36,19.24-20.45,3.65-40.58,9.27-60.71,14.53-13.54,3.53-26.86,7.88-40.23,12-36.9,11.42-74.81,19.74-110.2,35.8a64.72,64.72,0,0,1-6.68,2.08c-10.73,3.56-21.55,6.91-32.17,10.79-14.71,5.37-29.19,11.37-43.9,16.72-23.27,8.47-46.66,16.61-70,24.94-2.35.84-4.53,2.11-6.83,3.08-19.18,8.11-38,17.19-57.63,24-22.15,7.7-41.76,18.87-59,34.65-3.34,3.07-7.64,5.22-11.75,7.32-7.7,3.95-15.7,7.33-23.36,11.34-7.43,3.89-8.87,12.24-3,17.95a207.15,207.15,0,0,0,19.09,16.83c11,8.32,22.25,16.34,33.77,23.92,8.86,5.83,17.88,11.75,27.56,15.93,18.18,7.87,37.69,13,55.17,22.07,22.05,11.45,46.55,16.14,68.47,27.55,5.85,3,12.57,4.37,18.86,6.55,11.65,4,23.34,7.94,34.91,12.19,27,9.92,53.63,21.09,81,29.82,55.54,17.69,111.08,35.51,168.12,48q17.33,3.79,34.6,7.78c5.52,1.28,11,2.63,16.45,4.21,43.38,12.55,86.62,25.61,130.15,37.59,29.17,8,58.19,17.39,88.94,17.85a33.62,33.62,0,0,1,5.91,1C873.11,634.31,919,636.84,965,637.81c11.15.23,22.29.81,33.44,1.19,20.14.67,40.28,1.49,60.42,1.89,9.29.19,18.61-.35,27.9-.79,4.82-.23,9.61-1.3,14.42-1.4a782.29,782.29,0,0,0,96-7.77c39.57-5.69,79.5-9.06,118.88-15.75,35.43-6,70.37-15,105.46-23,15.91-3.6,31.67-7.88,47.51-11.77,14.71-3.6,29.49-6.91,44.16-10.67,10.64-2.72,21.16-5.94,31.72-9,6.39-1.84,13-3.18,19.09-5.74,15-6.32,30-12.87,44.74-19.94,58.3-28,116.89-55.28,178-76.95,32.84-11.65,65.3-24.39,94.38-44.18,13.35-9.08,27.79-15.54,43.19-20.44A152.48,152.48,0,0,0,1955,380.31c9.26-5.42,17.36-12.87,25.73-19.72,9.2-7.52,9.15-13.58,0-21.19-6.91-5.76-13.89-11.44-21-16.92a36.85,36.85,0,0,0-8.67-4.89c-13.74-5.52-27.63-10.7-41.36-16.25-5.54-2.24-11.24-4.49-16.15-7.8-33.11-22.41-69.27-38.42-106.75-51.82a1444.6,1444.6,0,0,1-144.56-61c-40-19.39-79.66-39.65-123.69-49-16.92-3.59-33.62-8.22-50.44-12.3-9.7-2.35-19.45-4.55-29.17-6.83-38-8.9-75.61-19.47-113.94-26.26-42.43-7.52-85.46-11.75-128.27-17.1q-32.21-4-64.55-6.87c-16.42-1.45-32.9-2.07-49.36-3-6.31-.35-12.65-.89-19-.66C1030.06,59.9,996.29,61.3,962.51,62.63Z" transform="translate(-6.01 -17.53)"/><path class="cls-1" d="M962.51,62.63c33.78-1.33,67.55-2.73,101.33-3.91,6.3-.23,12.64.31,19,.66,16.46.91,32.94,1.53,49.36,3q32.32,2.86,64.55,6.87c42.81,5.35,85.84,9.58,128.27,17.1,38.33,6.79,76,17.36,113.94,26.26,9.72,2.28,19.47,4.48,29.17,6.83,16.82,4.08,33.52,8.71,50.44,12.3,44,9.36,83.72,29.62,123.69,49a1444.6,1444.6,0,0,0,144.56,61c37.48,13.4,73.64,29.41,106.75,51.82,4.91,3.31,10.61,5.56,16.15,7.8,13.73,5.55,27.62,10.73,41.36,16.25a36.85,36.85,0,0,1,8.67,4.89c7.13,5.48,14.11,11.16,21,16.92,9.11,7.61,9.16,13.67,0,21.19-8.37,6.85-16.47,14.3-25.73,19.72a152.48,152.48,0,0,1-30.67,13.23c-15.4,4.9-29.84,11.36-43.19,20.44-29.08,19.79-61.54,32.53-94.38,44.18-61.06,21.67-119.65,48.93-178,76.95-14.71,7.07-29.69,13.62-44.74,19.94-6.09,2.56-12.7,3.9-19.09,5.74-10.56,3-21.08,6.25-31.72,9-14.67,3.76-29.45,7.07-44.16,10.67-15.84,3.89-31.6,8.17-47.51,11.77-35.09,7.95-70,17-105.46,23-39.38,6.69-79.31,10.06-118.88,15.75a782.29,782.29,0,0,1-96,7.77c-4.81.1-9.6,1.17-14.42,1.4-9.29.44-18.61,1-27.9.79-20.14-.4-40.28-1.22-60.42-1.89-11.15-.38-22.29-1-33.44-1.19-46-1-91.86-3.5-137.11-12.62a33.62,33.62,0,0,0-5.91-1c-30.75-.46-59.77-9.81-88.94-17.85-43.53-12-86.77-25-130.15-37.59-5.43-1.58-10.93-2.93-16.45-4.21q-17.26-4-34.6-7.78c-57-12.51-112.58-30.33-168.12-48-27.4-8.73-54-19.9-81-29.82-11.57-4.25-23.26-8.16-34.91-12.19-6.29-2.18-13-3.52-18.86-6.55-21.92-11.41-46.42-16.1-68.47-27.55-17.48-9.09-37-14.2-55.17-22.07-9.68-4.18-18.7-10.1-27.56-15.93-11.52-7.58-22.77-15.6-33.77-23.92a207.15,207.15,0,0,1-19.09-16.83c-5.87-5.71-4.43-14.06,3-17.95,7.66-4,15.66-7.39,23.36-11.34,4.11-2.1,8.41-4.25,11.75-7.32,17.23-15.78,36.84-26.95,59-34.65,19.62-6.82,38.45-15.9,57.63-24,2.3-1,4.48-2.24,6.83-3.08,23.32-8.33,46.71-16.47,70-24.94,14.71-5.35,29.19-11.35,43.9-16.72,10.62-3.88,21.44-7.23,32.17-10.79a64.72,64.72,0,0,0,6.68-2.08c35.39-16.06,73.3-24.38,110.2-35.8,13.37-4.13,26.69-8.48,40.23-12,20.13-5.26,40.26-10.88,60.71-14.53,24.42-4.35,47.61-12.69,71.36-19.24q73-20.16,146.13-39.84A89.41,89.41,0,0,1,799,77.5q39.33-5.43,78.68-10.74c3-.4,5.94-1,8.93-1.12q37.9-2,75.83-3.8ZM511,308.38c-11.65,1.63-22,3.12-32.41,4.53-11.15,1.52-14,5.09-14.63,16.29-.79,13.3-2.88,26.29-1.32,39.94,2,17.4,2,18.64,19.18,21.67,17.93,3.16,35.67,3.87,53.58.2,9.78-2,19.65-4.21,29.57-4.84,24.25-1.52,48.55-2.49,72.84-3.11,27.48-.69,55-1.18,82.46-1,41.8.28,83.61,1.64,125.41,1.79,85.14.29,170.28.09,255.41.09,38,0,76,.13,113.92,0,35.65-.16,71.3-.61,107-1,6.32-.07,12.65-.8,19-.65,16.64.39,33.28,1.44,49.92,1.61,25.81.25,51.62-.06,77.43.05,2.08,0,4.14,1.38,6.21,2.12-1.34,1.52-2.39,3.61-4.06,4.49-23.72,12.5-43.32,31-65.77,45.27-6.42,4.08-12.88,8.45-19.92,11.15-29.47,11.33-57.62,25.3-85,41q-35.51,20.4-71,40.88c-15.88,9.11-32,17.74-45.47,30.59-4.64,4.44-8.1,8.69-6.74,15.52s5.86,10.69,12.31,12.28a35,35,0,0,1,16.43,9c4.07,4,9.53,6.09,14.7,3.63a113.42,113.42,0,0,0,18.93-11.89c6.61-4.94,12.67-10.62,18.94-16a50,50,0,0,0,6.26-5.7c4.95-6,11.24-9.53,18.51-12.15,5-1.81,9.68-4.93,14.16-8,10.45-7.09,20.21-15.36,31.16-21.55,17.39-9.82,35.55-18.26,53.31-27.42,15.73-8.12,31.16-16.67,43.11-30.24a31.68,31.68,0,0,1,7.5-5.75c8.28-5,16.57-9.95,25-14.57,20.63-11.26,40.78-23.21,59.74-37.2a61.08,61.08,0,0,1,20.21-9.33c19.22-5.1,38.33-10.06,54.82-21.95a55.26,55.26,0,0,1,20.79-9.27c6.91-1.52,12.09-6.55,14.39-13.44,3.09-9.26-3.39-18.42-14.07-21.7-6.11-1.88-12.33-4.13-17.73-7.46-15.28-9.42-31-17.19-48.84-20.91-9.27-1.93-19.12-5.09-26.66-10.54-21.81-15.79-45.18-28.82-68.38-42.25-9-5.23-18.72-10.09-26.19-17.15a153.27,153.27,0,0,0-33.76-24.62c-19.46-10.24-39.36-19.66-58.54-30.37-11.71-6.54-22.73-14.46-33.48-22.53-5.41-4.07-10.62-7.94-17.22-9.66-6.34-1.65-11.26-5.39-15.78-10.07-3.43-3.56-7.5-6.51-11.38-9.62-2.6-2.07-6-3.46-7.94-6-5.8-7.41-13.4-12.28-21.26-17.05-6.62-4-13.06-4.32-18.79,1a40.2,40.2,0,0,1-17.75,9.62c-6.08,1.55-10.17,5.38-11.51,11.85s1.61,10.89,6.16,15.27c13.39,12.88,29.44,21.7,45.4,30.68,19.15,10.79,38.92,20.59,57.48,32.31a575.29,575.29,0,0,0,91.94,47c6.63,2.68,13.62,4.94,19.53,8.8,12.12,7.91,23.6,16.77,35.35,25.24,5.4,3.88,10.69,7.93,16.24,11.59,7.51,4.94,15.25,9.51,22.79,14.39,1.27.82,2,2.41,3,3.64a34.91,34.91,0,0,1-4.6,2.25,11.41,11.41,0,0,1-3.47.14c-10.48,0-21-.17-31.44-.09-39,.29-77.91.85-116.87.91-26,.05-52-.71-78-.88-26.81-.17-53.61-.07-80.42-.07-35.14,0-70.27-.12-105.41,0-92.47.46-184.95-1.24-277.42,1.76-25,.81-50-.5-75-.77-34.82-.37-69.64-.36-104.45-1.17-14.61-.33-29.24-1.88-43.76-3.67C539.76,313.39,524.86,310.59,511,308.38Z" transform="translate(-6.01 -17.53)"/><path d="M511,308.38c13.88,2.21,28.78,5,43.8,6.86,14.52,1.79,29.15,3.34,43.76,3.67,34.81.81,69.63.8,104.45,1.17,25,.27,50,1.58,75,.77,92.47-3,184.95-1.3,277.42-1.76,35.14-.17,70.27,0,105.41,0,26.81,0,53.61-.1,80.42.07,26,.17,52,.93,78,.88,39-.06,77.91-.62,116.87-.91,10.48-.08,21,.06,31.44.09a11.41,11.41,0,0,0,3.47-.14,34.91,34.91,0,0,0,4.6-2.25c-1-1.23-1.76-2.82-3-3.64-7.54-4.88-15.28-9.45-22.79-14.39-5.55-3.66-10.84-7.71-16.24-11.59-11.75-8.47-23.23-17.33-35.35-25.24-5.91-3.86-12.9-6.12-19.53-8.8a575.29,575.29,0,0,1-91.94-47c-18.56-11.72-38.33-21.52-57.48-32.31-16-9-32-17.8-45.4-30.68-4.55-4.38-7.52-8.73-6.16-15.27s5.43-10.3,11.51-11.85a40.2,40.2,0,0,0,17.75-9.62c5.73-5.27,12.17-5,18.79-1,7.86,4.77,15.46,9.64,21.26,17.05,2,2.51,5.34,3.9,7.94,6,3.88,3.11,8,6.06,11.38,9.62,4.52,4.68,9.44,8.42,15.78,10.07,6.6,1.72,11.81,5.59,17.22,9.66,10.75,8.07,21.77,16,33.48,22.53,19.18,10.71,39.08,20.13,58.54,30.37A153.27,153.27,0,0,1,1425,235.35c7.47,7.06,17.15,11.92,26.19,17.15,23.2,13.43,46.57,26.46,68.38,42.25,7.54,5.45,17.39,8.61,26.66,10.54,17.84,3.72,33.56,11.49,48.84,20.91,5.4,3.33,11.62,5.58,17.73,7.46,10.68,3.28,17.16,12.44,14.07,21.7-2.3,6.89-7.48,11.92-14.39,13.44a55.26,55.26,0,0,0-20.79,9.27c-16.49,11.89-35.6,16.85-54.82,21.95a61.08,61.08,0,0,0-20.21,9.33c-19,14-39.11,25.94-59.74,37.2-8.48,4.62-16.77,9.59-25,14.57a31.68,31.68,0,0,0-7.5,5.75c-12,13.57-27.38,22.12-43.11,30.24-17.76,9.16-35.92,17.6-53.31,27.42-11,6.19-20.71,14.46-31.16,21.55-4.48,3-9.13,6.16-14.16,8-7.27,2.62-13.56,6.15-18.51,12.15a50,50,0,0,1-6.26,5.7c-6.27,5.39-12.33,11.07-18.94,16A113.42,113.42,0,0,1,1220,599.8c-5.17,2.46-10.63.32-14.7-3.63a35,35,0,0,0-16.43-9c-6.45-1.59-10.94-5.36-12.31-12.28s2.1-11.08,6.74-15.52c13.43-12.85,29.59-21.48,45.47-30.59q35.51-20.4,71-40.88c27.33-15.7,55.48-29.67,85-41,7-2.7,13.5-7.07,19.92-11.15,22.45-14.31,42-32.77,65.77-45.27,1.67-.88,2.72-3,4.06-4.49-2.07-.74-4.13-2.11-6.21-2.12-25.81-.11-51.62.2-77.43-.05-16.64-.17-33.28-1.22-49.92-1.61-6.31-.15-12.64.58-19,.65-35.65.39-71.3.84-107,1-38,.17-76,0-113.92,0-85.13,0-170.27.2-255.41-.09-41.8-.15-83.61-1.51-125.41-1.79-27.49-.18-55,.31-82.46,1-24.29.62-48.59,1.59-72.84,3.11-9.92.63-19.79,2.83-29.57,4.84-17.91,3.67-35.65,3-53.58-.2-17.17-3-17.2-4.27-19.18-21.67-1.56-13.65.53-26.64,1.32-39.94.67-11.2,3.48-14.77,14.63-16.29C489,311.5,499.33,310,511,308.38Z" transform="translate(-6.01 -17.53)"/></svg>